<svg width="48" height="48" viewBox="0 0 48 48" fill="none" xmlns="http://www.w3.org/2000/svg">
<path fill-rule="evenodd" clip-rule="evenodd" d="M48 24C48 37.2554 37.2546 48 24 48C10.7437 48 0 37.2554 0 24C0 10.7446 10.7437 0 24 0C37.2546 0 48 10.7446 48 24Z" fill="#ED0722"/>
<path fill-rule="evenodd" clip-rule="evenodd" d="M25.048 31.7574C24.7556 31.4465 24.7695 30.9565 25.0791 30.663L31.2994 24.7647H14.7622C14.3413 24.7647 14 24.4289 14 24.0147C14 23.6005 14.3413 23.2647 14.7622 23.2647H31.3304L25.0791 17.337C24.7695 17.0435 24.7556 16.5535 25.048 16.2426C25.3404 15.9318 25.8284 15.9178 26.138 16.2113L33.7584 23.4372C34.0805 23.7427 34.0805 24.2573 33.7584 24.5628L26.138 31.7887C25.8284 32.0822 25.3404 32.0682 25.048 31.7574Z" fill="white"/>
</svg>
