<svg width="157" height="120" viewBox="0 0 157 120" fill="none" xmlns="http://www.w3.org/2000/svg">
<path d="M115.214 113.077H41.6576L0.389109 77.9224C-0.129703 77.403 -0.129703 76.5532 0.389109 76.0338L77.4926 0.389039C78.012 -0.12968 78.8603 -0.12968 79.3791 0.389039L156.611 76.0338C157.13 76.5532 157.13 77.403 156.611 77.9224L115.214 113.077Z" fill="#F3F4F6"/>
<path d="M100.385 116.817C100.385 118.522 95.4287 119.905 89.3147 119.905C83.2013 119.905 78.2451 118.522 78.2451 116.817C78.2451 115.112 83.2013 113.729 89.3147 113.729C95.4287 113.729 100.385 115.112 100.385 116.817Z" fill="#D0D7DA"/>
<path fill-rule="evenodd" clip-rule="evenodd" d="M25.1629 113.462C25.1629 113.249 24.9904 113.077 24.7776 113.077H18.8559C18.6431 113.077 18.4706 113.249 18.4706 113.462C18.4706 113.674 18.6431 113.846 18.8559 113.846H24.7776C24.9904 113.846 25.1629 113.674 25.1629 113.462ZM45.9662 113.077C46.1789 113.077 46.3514 113.249 46.3514 113.462C46.3514 113.674 46.1789 113.846 45.9662 113.846H32.1462C31.9334 113.846 31.7609 113.674 31.7609 113.462C31.7609 113.249 31.9334 113.077 32.1462 113.077H45.9662ZM133.526 113.077C133.739 113.077 133.912 113.249 133.912 113.462C133.912 113.674 133.739 113.846 133.526 113.846H110.135C109.923 113.846 109.75 113.674 109.75 113.462C109.75 113.249 109.923 113.077 110.135 113.077H133.526Z" fill="#EB1D26"/>
<path d="M102.305 51.0571L101.805 51.0557V51.0557L102.305 51.0571ZM101.806 50.5557L101.805 51.0557L101.806 50.5557ZM102.302 52.2231L102.802 52.2245L102.302 52.2231ZM101.8 52.7217L101.802 52.2217L101.8 52.7217ZM101.302 52.2203L100.802 52.219L101.302 52.2203ZM101.305 51.0544L101.805 51.0557L101.305 51.0544ZM102.298 54.5571L102.798 54.5584L102.298 54.5571ZM101.799 54.0557L101.801 53.5557L101.799 54.0557ZM102.295 55.723L102.795 55.7244L102.295 55.723ZM101.793 56.2217L101.795 55.7217H101.795L101.793 56.2217ZM101.295 55.7203L101.795 55.7217L101.295 55.7203ZM101.298 54.5543L101.798 54.5557L101.298 54.5543ZM102.964 52.8913L102.963 53.3913L102.964 52.8913ZM102.463 53.3903L102.963 53.3913L102.463 53.3903ZM104.126 52.8937L104.125 53.3937L104.126 52.8937ZM104.625 53.3947L104.125 53.3937L104.625 53.3947ZM104.124 53.8937L104.123 54.3937L104.124 53.8937ZM102.962 53.8913L102.963 53.3913L102.962 53.8913ZM99.4748 52.8844L99.4758 52.3844L99.4748 52.8844ZM98.9738 53.3833L99.4738 53.3844L98.9738 53.3833ZM100.638 52.8868L100.637 53.3868L100.638 52.8868ZM101.137 53.3878L101.637 53.3888V53.3888L101.137 53.3878ZM100.636 53.8868L100.637 53.3868H100.637L100.636 53.8868ZM99.4727 53.8844L99.4738 53.3844L99.4727 53.8844ZM102.805 51.0585C102.806 50.5062 102.36 50.0572 101.808 50.0557L101.805 51.0557L101.805 51.0557L102.805 51.0585ZM102.802 52.2245L102.805 51.0585L101.805 51.0557L101.802 52.2217L102.802 52.2245ZM101.799 53.2217C102.351 53.2232 102.8 52.7767 102.802 52.2245L101.802 52.2217V52.2217L101.799 53.2217ZM100.802 52.219C100.8 52.7713 101.247 53.2202 101.799 53.2217L101.802 52.2217L100.802 52.219ZM100.805 51.053L100.802 52.219L101.802 52.2217L101.805 51.0557L100.805 51.053ZM101.808 50.0557C101.255 50.0542 100.806 50.5007 100.805 51.053L101.805 51.0557L101.808 50.0557ZM102.798 54.5584C102.799 54.0061 102.353 53.5572 101.801 53.5557L101.798 54.5557L102.798 54.5584ZM102.795 55.7244L102.798 54.5584L101.798 54.5557L101.795 55.7217L102.795 55.7244ZM101.792 56.7217C102.344 56.7232 102.793 56.2767 102.795 55.7244L101.795 55.7217H101.795L101.792 56.7217ZM100.795 55.7189C100.793 56.2712 101.24 56.7202 101.792 56.7217L101.795 55.7217L100.795 55.7189ZM100.798 54.5529L100.795 55.7189L101.795 55.7217L101.798 54.5557L100.798 54.5529ZM101.801 53.5557C101.248 53.5542 100.799 54.0007 100.798 54.5529L101.798 54.5557L101.801 53.5557ZM102.965 52.3913C102.412 52.3902 101.964 52.8369 101.963 53.3892L102.963 53.3913L102.965 52.3913ZM104.127 52.3937L102.965 52.3913L102.963 53.3913L104.125 53.3937L104.127 52.3937ZM105.125 53.3958C105.126 52.8435 104.679 52.3948 104.127 52.3937L104.125 53.3937V53.3937L105.125 53.3958ZM104.123 54.3937C104.675 54.3948 105.124 53.948 105.125 53.3958L104.125 53.3937V53.3937L104.123 54.3937ZM102.961 54.3913L104.123 54.3937L104.125 53.3937L102.963 53.3913L102.961 54.3913ZM101.963 53.3892C101.961 53.9415 102.408 54.3902 102.961 54.3913L102.963 53.3913L101.963 53.3892ZM99.4758 52.3844C98.9235 52.3832 98.4749 52.83 98.4738 53.3823L99.4738 53.3844L99.4758 52.3844ZM100.639 52.3868L99.4758 52.3844L99.4738 53.3844L100.637 53.3868L100.639 52.3868ZM101.637 53.3888C101.638 52.8365 101.191 52.3879 100.639 52.3868L100.637 53.3868V53.3868L101.637 53.3888ZM100.635 54.3868C101.187 54.3879 101.636 53.9411 101.637 53.3888L100.637 53.3868H100.637L100.635 54.3868ZM99.4717 54.3844L100.635 54.3868L100.637 53.3868L99.4738 53.3844L99.4717 54.3844ZM98.4738 53.3823C98.4726 53.9346 98.9194 54.3832 99.4717 54.3844L99.4738 53.3844L98.4738 53.3823Z" fill="#D62793"/>
<path d="M66.0452 72.4222L65.5452 72.4208V72.4208L66.0452 72.4222ZM65.5466 71.9208L65.5452 72.4208L65.5466 71.9208ZM66.042 73.5888L65.542 73.5875L66.042 73.5888ZM65.5406 74.0875L65.542 73.5875L65.5406 74.0875ZM65.042 73.5861L64.542 73.5847L65.042 73.5861ZM65.0452 72.4195L64.5452 72.4181V72.4181L65.0452 72.4195ZM66.0384 75.9222L66.5384 75.9235L66.0384 75.9222ZM65.5397 75.4208L65.5411 74.9208L65.5397 75.4208ZM66.0352 77.0888L65.5352 77.0874L66.0352 77.0888ZM65.5338 77.5874L65.5352 77.0874H65.5352L65.5338 77.5874ZM65.0352 77.0861L64.5352 77.0847L65.0352 77.0861ZM65.0384 75.9194L65.5384 75.9208L65.0384 75.9194ZM66.7043 74.2564L66.7029 74.7564L66.7043 74.2564ZM66.2029 74.755L65.7029 74.7537L66.2029 74.755ZM67.8673 74.2596L67.8686 73.7596L67.8673 74.2596ZM68.3659 74.761L67.8659 74.7596L68.3659 74.761ZM67.8645 75.2596L67.8631 75.7596L67.8645 75.2596ZM66.7016 75.2564L66.7029 74.7564L66.7016 75.2564ZM63.2155 74.2495L63.2141 74.7495H63.2141L63.2155 74.2495ZM62.7141 74.7481L63.2141 74.7495L62.7141 74.7481ZM64.3784 74.2527L64.3798 73.7527L64.3784 74.2527ZM64.877 74.7541L64.377 74.7527L64.877 74.7541ZM64.3757 75.2527L64.3743 75.7527L64.3757 75.2527ZM63.2127 75.2495L63.2141 74.7495H63.2141L63.2127 75.2495ZM66.5452 72.4236C66.5467 71.8713 66.1002 71.4224 65.5479 71.4208L65.5452 72.4208L65.5452 72.4208L66.5452 72.4236ZM66.542 73.5902L66.5452 72.4236L65.5452 72.4208L65.542 73.5875L66.542 73.5902ZM65.5393 74.5875C66.0916 74.589 66.5405 74.1425 66.542 73.5902L65.542 73.5875L65.5393 74.5875ZM64.542 73.5847C64.5405 74.137 64.987 74.5859 65.5393 74.5875L65.542 73.5875L64.542 73.5847ZM64.5452 72.4181L64.542 73.5847L65.542 73.5875L65.5452 72.4208L64.5452 72.4181ZM65.5479 71.4208C64.9957 71.4193 64.5467 71.8658 64.5452 72.4181L65.5452 72.4208H65.5452L65.5479 71.4208ZM66.5384 75.9235C66.5399 75.3712 66.0934 74.9223 65.5411 74.9208L65.5384 75.9208L66.5384 75.9235ZM66.5352 77.0902L66.5384 75.9235L65.5384 75.9208L65.5352 77.0874L66.5352 77.0902ZM65.5324 78.0874C66.0847 78.0889 66.5337 77.6424 66.5352 77.0902L65.5352 77.0874L65.5324 78.0874ZM64.5352 77.0847C64.5337 77.637 64.9802 78.0859 65.5324 78.0874L65.5352 77.0874H65.5352L64.5352 77.0847ZM64.5384 75.9181L64.5352 77.0847L65.5352 77.0874L65.5384 75.9208L64.5384 75.9181ZM65.5411 74.9208C64.9888 74.9193 64.5399 75.3658 64.5384 75.9181L65.5384 75.9208L65.5411 74.9208ZM66.7057 73.7564C66.1534 73.7549 65.7045 74.2014 65.7029 74.7537L66.7029 74.7564L66.7057 73.7564ZM67.8686 73.7596L66.7057 73.7564L66.7029 74.7564L67.8659 74.7596L67.8686 73.7596ZM68.8659 74.7624C68.8674 74.2101 68.4209 73.7611 67.8686 73.7596L67.8659 74.7596L68.8659 74.7624ZM67.8631 75.7596C68.4154 75.7611 68.8644 75.3146 68.8659 74.7624L67.8659 74.7596L67.8631 75.7596ZM66.7002 75.7564L67.8631 75.7596L67.8659 74.7596L66.7029 74.7564L66.7002 75.7564ZM65.7029 74.7537C65.7014 75.3059 66.1479 75.7549 66.7002 75.7564L66.7029 74.7564L65.7029 74.7537ZM63.2169 73.7495C62.6646 73.748 62.2156 74.1944 62.2141 74.7467L63.2141 74.7495H63.2141L63.2169 73.7495ZM64.3798 73.7527L63.2169 73.7495L63.2141 74.7495L64.377 74.7527L64.3798 73.7527ZM65.377 74.7554C65.3786 74.2032 64.9321 73.7542 64.3798 73.7527L64.377 74.7527L65.377 74.7554ZM64.3743 75.7527C64.9266 75.7542 65.3755 75.3077 65.377 74.7554L64.377 74.7527H64.377L64.3743 75.7527ZM63.2114 75.7495L64.3743 75.7527L64.377 74.7527L63.2141 74.7495L63.2114 75.7495ZM62.2141 74.7467C62.2126 75.299 62.6591 75.748 63.2114 75.7495L63.2141 74.7495H63.2141L62.2141 74.7467Z" fill="#F5C400"/>
<path d="M89.1599 62.6705V85.0867" stroke="#575825" stroke-linecap="round" stroke-linejoin="round"/>
<path d="M142.09 36.0852C142.09 23.1945 134.423 12.7449 124.965 12.7449C115.506 12.7449 107.839 23.1945 107.839 36.0852C107.839 48.8745 115.389 59.2555 124.744 59.4172L123.319 62.4679H128.091L126.603 59.3164C135.293 58.1915 142.09 48.2219 142.09 36.0852Z" fill="white"/>
<path fill-rule="evenodd" clip-rule="evenodd" d="M142.09 36.0852C142.09 23.1945 134.423 12.7449 124.965 12.7449C115.506 12.7449 107.839 23.1945 107.839 36.0852C107.839 48.8745 115.389 59.2555 124.744 59.4172L123.319 62.4679H128.091L126.603 59.3164C135.293 58.1915 142.09 48.2219 142.09 36.0852Z" stroke="#DDE5E8" stroke-linecap="round" stroke-linejoin="round"/>
<path d="M125.705 62.9644V111.829" stroke="#DDE5E8" stroke-linecap="round"/>
<path d="M51.8927 34.5895L46.1562 41.647L42.3315 33.0545" fill="white"/>
<path d="M51.8927 34.5895L46.1562 41.647L42.3315 33.0545" stroke="#DDE5E8" stroke-linecap="round" stroke-linejoin="round"/>
<path d="M72.5555 35.3736L78.6017 42.5685L82.166 34.1935" fill="white"/>
<path d="M72.5555 35.3736L78.6017 42.5685L82.166 34.1935" stroke="#DDE5E8" stroke-linecap="round" stroke-linejoin="round"/>
<path d="M23.4766 25.6479C66.3942 47.7241 109.312 25.6479 109.312 25.6479" stroke="#DDE5E8" stroke-linecap="round"/>
<path d="M27.5353 27.6064L29.0795 37.2218L37.1259 31.2757" stroke="#DDE5E8" stroke-linecap="round" stroke-linejoin="round"/>
<path d="M57.5532 35.3929L62.4749 43.4034L67.2334 35.6477" stroke="#DDE5E8" stroke-linecap="round" stroke-linejoin="round"/>
<path d="M88.6862 32.6413L95.6106 38.991L98.0638 30.2227" stroke="#DDE5E8" stroke-linecap="round" stroke-linejoin="round"/>
<path d="M134.369 50.5751C133.8 51.485 133.263 52.1755 132.843 52.6606L134.369 50.5751Z" fill="white"/>
<path d="M134.369 50.5751C133.8 51.485 133.263 52.1755 132.843 52.6606" stroke="#DDE5E8" stroke-linecap="round" stroke-linejoin="round"/>
<path d="M130.656 19.2879C130.656 19.2879 138.08 25.0697 138.08 35.9737C138.08 41.1966 137.01 45.1283 135.765 47.9345" fill="white"/>
<path d="M130.656 19.2879C130.656 19.2879 138.08 25.0697 138.08 35.9737C138.08 41.1966 137.01 45.1283 135.765 47.9345" stroke="#DDE5E8" stroke-linecap="round" stroke-linejoin="round"/>
<path fill-rule="evenodd" clip-rule="evenodd" d="M49.1428 61.4393L51.1162 66.0224L53.3915 64.9431L50.9307 60.8566L49.1428 61.4393Z" stroke="#D62793"/>
<path fill-rule="evenodd" clip-rule="evenodd" d="M66.3942 22.9104L68.3669 27.4928L70.6429 26.4128L68.1821 22.3264L66.3942 22.9104Z" stroke="#F2C217"/>
<path fill-rule="evenodd" clip-rule="evenodd" d="M77.092 47.6797L74.5122 51.9478L76.7076 53.1831L78.6016 48.8034L77.092 47.6797Z" stroke="#7350A0" stroke-linecap="round" stroke-linejoin="round"/>
<path fill-rule="evenodd" clip-rule="evenodd" d="M111.155 73.4702L108.576 77.7382L110.77 78.9735L112.665 74.5938L111.155 73.4702Z" stroke="#0B9CE5" stroke-linecap="round" stroke-linejoin="round"/>
<path d="M96.7429 72.7548C96.1679 72.0701 92.9407 72.1163 91.158 73.6237C89.3739 75.1311 88.6626 77.4573 89.7078 78.7022C90.753 79.9465 93.1589 79.6372 94.9423 78.1298C96.7257 76.6224 97.3187 73.4402 96.7429 72.7548Z" fill="#CBD62A"/>
<path d="M96.7429 72.7548C96.1679 72.0701 92.9407 72.1163 91.158 73.6237C89.3739 75.1311 88.6626 77.4573 89.7078 78.7022C90.753 79.9465 93.1589 79.6372 94.9423 78.1298C96.7257 76.6224 97.3187 73.4402 96.7429 72.7548" stroke="#575825" stroke-linecap="round" stroke-linejoin="round"/>
<path d="M80.828 77.0651C80.3745 77.8601 81.554 80.9506 83.6227 82.1371C85.6921 83.3243 88.1683 83.1921 88.9915 81.7483C89.8141 80.3044 88.6723 78.0956 86.603 76.9091C84.5343 75.7219 81.2809 76.27 80.828 77.0651Z" fill="#A3C23A"/>
<path d="M80.828 77.0651C80.3745 77.8601 81.554 80.9506 83.6227 82.1371C85.6921 83.3243 88.1683 83.1921 88.9915 81.7483C89.8141 80.3044 88.6723 78.0956 86.603 76.9091C84.5343 75.7219 81.2809 76.27 80.828 77.0651" stroke="#575825" stroke-linecap="round" stroke-linejoin="round"/>
<path d="M94.506 62.4687C94.0557 61.9951 91.7049 62.176 90.4729 63.3561C89.2415 64.5362 88.8276 66.265 89.6458 67.1249C90.4645 67.9842 92.2045 67.6492 93.4365 66.4691C94.6685 65.2896 94.9563 62.9416 94.506 62.4687Z" fill="#CBD62A"/>
<path d="M94.506 62.4687C94.0557 61.9951 91.7049 62.176 90.4729 63.3561C89.2415 64.5362 88.8276 66.265 89.6458 67.1249C90.4645 67.9842 92.2045 67.6492 93.4365 66.4691C94.6685 65.2896 94.9563 62.9416 94.506 62.4687" stroke="#575825" stroke-linecap="round" stroke-linejoin="round"/>
<path d="M81.8432 66.3227C81.3474 66.985 82.0587 69.8919 83.7826 71.1914C85.5066 72.4896 87.7441 72.6506 88.6448 71.4474C89.5448 70.2449 88.7676 68.1336 87.0443 66.8354C85.3211 65.536 82.3389 65.6605 81.8432 66.3227Z" fill="#A3C23A"/>
<path d="M81.8432 66.3227C81.3474 66.985 82.0587 69.8919 83.7826 71.1914C85.5066 72.4896 87.7441 72.6506 88.6448 71.4474C89.5448 70.2449 88.7676 68.1336 87.0443 66.8354C85.3211 65.536 82.3389 65.6605 81.8432 66.3227" stroke="#575825" stroke-linecap="round" stroke-linejoin="round"/>
<path d="M75.3464 97.5522V107.294C75.3464 110.676 77.5073 113.418 80.1728 113.418H98.2704C100.936 113.418 103.097 110.676 103.097 107.294V85.7505H75.3464V92.4198" fill="white"/>
<path d="M75.3464 97.5522V107.294C75.3464 110.676 77.5073 113.418 80.1728 113.418H98.2704C100.936 113.418 103.097 110.676 103.097 107.294V85.7505H75.3464V92.4198" stroke="#7350A0" stroke-linecap="round" stroke-linejoin="round"/>
<path d="M92.6419 89.5503H76.8669" stroke="#F2C217" stroke-linecap="round" stroke-linejoin="round"/>
<path d="M101.799 106.975C101.799 110.07 96.8077 111.829 96.8077 111.829V91.3748H101.799V106.975Z" fill="#F2F3F3"/>
<path d="M101.799 89.5503H96.8077" stroke="#F2C217" stroke-linecap="round" stroke-linejoin="round"/>
<path d="M62.3382 115C62.3382 116.062 59.7544 116.923 56.5661 116.923C53.3778 116.923 50.7941 116.062 50.7941 115C50.7941 113.938 53.3778 113.077 56.5661 113.077C59.7544 113.077 62.3382 113.938 62.3382 115Z" fill="#D0D7DA"/>
<path d="M98.9132 115.278C98.9132 115.631 98.6253 115.92 98.2735 115.92H80.3051C79.9533 115.92 79.6654 115.631 79.6654 115.278V114.06C79.6654 113.707 79.9533 113.418 80.3051 113.418H98.2735C98.6253 113.418 98.9132 113.707 98.9132 114.06V115.278Z" fill="#7350A0"/>
<path d="M62.107 98.3331C62.0647 98.3331 62.0244 98.3446 61.9822 98.3459C61.4679 96.0024 59.389 94.2479 56.8981 94.2479C54.3989 94.2479 52.3129 96.0146 51.8082 98.3709C51.6847 98.3587 51.5658 98.3331 51.4385 98.3331C49.2546 98.3331 47.484 100.109 47.484 102.3C47.484 104.491 49.2546 106.267 51.4385 106.267H62.107C64.2908 106.267 66.0621 104.491 66.0621 102.3C66.0621 100.109 64.2908 98.3331 62.107 98.3331Z" fill="white"/>
<path fill-rule="evenodd" clip-rule="evenodd" d="M62.107 98.3331C62.0647 98.3331 62.0244 98.3446 61.9822 98.3459C61.4679 96.0024 59.389 94.2479 56.8981 94.2479C54.3989 94.2479 52.3129 96.0146 51.8082 98.3709C51.6847 98.3587 51.5658 98.3331 51.4385 98.3331C49.2546 98.3331 47.484 100.109 47.484 102.3C47.484 104.491 49.2546 106.267 51.4385 106.267H62.107C64.2908 106.267 66.0621 104.491 66.0621 102.3C66.0621 100.109 64.2908 98.3331 62.107 98.3331Z" stroke="#7350A0" stroke-linecap="round" stroke-linejoin="round"/>
<path d="M63.4165 113.808H50.1413L48.6509 104.811H64.9069L63.4165 113.808Z" fill="white"/>
<path fill-rule="evenodd" clip-rule="evenodd" d="M63.4165 113.808H50.1413L48.6509 104.811H64.9069L63.4165 113.808Z" stroke="#7350A0" stroke-linecap="round" stroke-linejoin="round"/>
<path d="M52.7865 105L52.2887 105.047L52.7865 105ZM52.2417 104.549L52.2887 105.047L52.2887 105.047L52.2417 104.549ZM53.5855 113.46L54.0833 113.413L53.5855 113.46ZM53.1347 114.005L53.1817 114.502L53.1347 114.005ZM52.5899 113.554L52.0921 113.601L52.5899 113.554ZM51.7909 105.094L52.2887 105.047L51.7909 105.094ZM61.7501 105.094L61.2523 105.047V105.047L61.7501 105.094ZM61.2993 104.549L61.3463 104.051L61.2993 104.549ZM60.9511 113.554L60.4533 113.507L60.9511 113.554ZM59.9556 113.46L59.4578 113.413L59.9556 113.46ZM60.7545 105L60.2567 104.953V104.953L60.7545 105ZM57.779 105.047C57.779 104.494 57.3313 104.047 56.779 104.047V105.047H57.779ZM57.779 113.507V105.047H56.779V113.507H57.779ZM56.779 114.507C57.3313 114.507 57.779 114.059 57.779 113.507H56.779V114.507ZM55.779 113.507C55.779 114.059 56.2267 114.507 56.779 114.507V113.507H55.779ZM55.779 105.047V113.507H56.779V105.047H55.779ZM56.779 104.047C56.2267 104.047 55.779 104.494 55.779 105.047H56.779V104.047ZM53.2843 104.953C53.2324 104.403 52.7446 103.999 52.1947 104.051L52.2887 105.047H52.2887L53.2843 104.953ZM54.0833 113.413L53.2843 104.953L52.2887 105.047L53.0877 113.507L54.0833 113.413ZM53.1817 114.502C53.7315 114.451 54.1352 113.963 54.0833 113.413L53.0877 113.507H53.0877L53.1817 114.502ZM52.0921 113.601C52.144 114.151 52.6319 114.554 53.1817 114.502L53.0877 113.507H53.0877L52.0921 113.601ZM51.2932 105.141L52.0921 113.601L53.0877 113.507L52.2887 105.047L51.2932 105.141ZM52.1947 104.051C51.6449 104.103 51.2412 104.591 51.2932 105.141L52.2887 105.047V105.047L52.1947 104.051ZM62.2479 105.141C62.2998 104.591 61.8962 104.103 61.3463 104.051L61.2523 105.047L62.2479 105.141ZM61.4489 113.601L62.2479 105.141L61.2523 105.047L60.4533 113.507L61.4489 113.601ZM60.3593 114.502C60.9092 114.554 61.397 114.151 61.4489 113.601L60.4533 113.507L60.3593 114.502ZM59.4578 113.413C59.4059 113.963 59.8095 114.451 60.3593 114.502L60.4533 113.507L59.4578 113.413ZM60.2567 104.953L59.4578 113.413L60.4533 113.507L61.2523 105.047L60.2567 104.953ZM61.3463 104.051C60.7965 103.999 60.3087 104.403 60.2567 104.953L61.2523 105.047V105.047L61.3463 104.051Z" fill="#7350A0"/>
<path d="M58.4193 94.2478C58.4193 95.1565 57.685 95.8931 56.7792 95.8931C55.8728 95.8931 55.1378 95.1565 55.1378 94.2478C55.1378 93.3385 55.8728 92.6018 56.7792 92.6018C57.685 92.6018 58.4193 93.3385 58.4193 94.2478Z" fill="white"/>
<path fill-rule="evenodd" clip-rule="evenodd" d="M58.4193 94.2478C58.4193 95.1565 57.685 95.8931 56.7792 95.8931C55.8728 95.8931 55.1378 95.1565 55.1378 94.2478C55.1378 93.3385 55.8728 92.6018 56.7792 92.6018C57.685 92.6018 58.4193 93.3385 58.4193 94.2478Z" stroke="#EB1D26" stroke-linecap="round" stroke-linejoin="round"/>
<path d="M54.3534 98.1545L55.4204 98.9545" stroke="#D62793" stroke-linecap="round" stroke-linejoin="round"/>
<path d="M60.8322 100.616L60.4831 100.258V100.258L60.8322 100.616ZM60.8411 99.9087L60.4831 100.258L60.8411 99.9087ZM59.9373 101.489L60.2864 101.846L59.9373 101.489ZM59.2303 101.48L59.5882 101.131L59.2303 101.48ZM59.2391 100.773L59.5882 101.131L59.2391 100.773ZM60.134 99.8999L59.7849 99.5419V99.5419L60.134 99.8999ZM52.305 101.583L52.691 101.265L52.305 101.583ZM51.6012 101.515L51.919 101.901H51.919L51.6012 101.515ZM53.1037 102.553L52.7177 102.871L53.1037 102.553ZM53.0355 103.257L52.7177 102.871H52.7177L53.0355 103.257ZM52.3317 103.189L52.7177 102.871L52.3317 103.189ZM51.5329 102.218L51.919 101.901L51.5329 102.218ZM61.1813 100.974C61.5767 100.588 61.5846 99.955 61.199 99.5596L60.4831 100.258L61.1813 100.974ZM60.2864 101.846L61.1813 100.974L60.4831 100.258L59.5882 101.131L60.2864 101.846ZM58.8723 101.829C59.2579 102.224 59.891 102.232 60.2864 101.846L59.5882 101.131L58.8723 101.829ZM58.89 100.415C58.4946 100.8 58.4867 101.433 58.8723 101.829L59.5882 101.131L58.89 100.415ZM59.7849 99.5419L58.89 100.415L59.5882 101.131L60.4831 100.258L59.7849 99.5419ZM61.199 99.5596C60.8134 99.1642 60.1803 99.1563 59.7849 99.5419L60.4831 100.258L61.199 99.5596ZM52.691 101.265C52.34 100.839 51.7098 100.778 51.2834 101.129L51.919 101.901H51.919L52.691 101.265ZM53.4897 102.235L52.691 101.265L51.919 101.901L52.7177 102.871L53.4897 102.235ZM53.3532 103.643C53.7796 103.292 53.8407 102.662 53.4897 102.235L52.7177 102.871L53.3532 103.643ZM51.9456 103.507C52.2966 103.933 52.9268 103.994 53.3532 103.643L52.7177 102.871H52.7177L51.9456 103.507ZM51.1469 102.536L51.9456 103.507L52.7177 102.871L51.919 101.901L51.1469 102.536ZM51.2834 101.129C50.857 101.48 50.7959 102.11 51.1469 102.536L51.919 101.901L51.2834 101.129Z" fill="#F5C400"/>
<path d="M64.2063 103.205L63.624 102.001" stroke="#D62793" stroke-linecap="round" stroke-linejoin="round"/>
</svg>
