<svg width="157" height="120" viewBox="0 0 157 120" fill="none" xmlns="http://www.w3.org/2000/svg">
<path d="M116.047 116.923H40.9531L0.397241 80.4957C-0.132414 79.9592 -0.132414 79.0812 0.397241 78.5447L77.537 0.401886C78.0673 -0.133962 78.9332 -0.133962 79.4629 0.401886L156.603 78.5447C157.132 79.0812 157.132 79.9592 156.603 80.4957L116.047 116.923Z" fill="#F3F4F6"/>
<path d="M54.2514 117.019C54.4672 117.019 54.6422 117.148 54.6422 117.308C54.6422 117.467 54.4672 117.596 54.2514 117.596H39.6408C39.425 117.596 39.25 117.467 39.25 117.308C39.25 117.148 39.425 117.019 39.6408 117.019H54.2514Z" fill="#EB1D26"/>
<path d="M31.939 117.019C32.1514 117.019 32.3234 117.148 32.3234 117.308C32.3234 117.467 32.1514 117.596 31.939 117.596H25.7814C25.5691 117.596 25.397 117.467 25.397 117.308C25.397 117.148 25.5691 117.019 25.7814 117.019H31.939Z" fill="#EB1D26"/>
<path d="M130.454 117.019C130.663 117.019 130.833 117.148 130.833 117.307C130.833 117.467 130.663 117.597 130.454 117.597H96.5807C96.371 117.597 96.2009 117.467 96.2009 117.307C96.2009 117.148 96.371 117.019 96.5807 117.019H130.454Z" fill="#EB1D26"/>
<path d="M90.8138 116.923C90.8138 118.623 85.1279 120 78.115 120C71.1026 120 65.4167 118.623 65.4167 116.923C65.4167 115.224 71.1026 113.846 78.115 113.846C85.1279 113.846 90.8138 115.224 90.8138 116.923Z" fill="#D0D7DA"/>
<path d="M87.0435 83.8176L47.6973 89.207C46.287 89.4001 44.9895 88.4003 44.7987 86.9745L41.5824 62.9618C41.3916 61.5354 42.3801 60.2223 43.7904 60.0287L83.136 54.6393C84.5463 54.4463 85.8444 55.446 86.0359 56.8718L89.2508 80.8845C89.4423 82.311 88.4538 83.6246 87.0435 83.8176Z" fill="white"/>
<path d="M53.4872 58.4614L42.4284 59.9612C41.3922 60.1017 40.6663 61.0565 40.8067 62.0942L44.2539 87.589C44.3943 88.6267 45.3474 89.3538 46.3836 89.2133L54.9391 88.0523L59.0227 87.4986L87.6357 83.6168C88.6718 83.4762 89.3971 82.5221 89.2574 81.4852L88.9874 79.4947" fill="white"/>
<path d="M53.4872 58.4614L42.4284 59.9612C41.3922 60.1017 40.6663 61.0565 40.8067 62.0942L44.2539 87.589C44.3943 88.6267 45.3474 89.3538 46.3836 89.2133L54.9391 88.0523L59.0227 87.4986L87.6357 83.6168C88.6718 83.4762 89.3971 82.5221 89.2574 81.4852L88.9874 79.4947" stroke="#C3D3D8" stroke-width="1.001" stroke-linecap="round"/>
<path d="M47.9134 69.2062L42.1683 69.9999L41.5588 65.4122L86.3555 59.2307L86.9657 63.8192L50.3394 68.872" fill="#F3F4F6"/>
<path d="M47.9134 69.2062L42.1683 69.9999L41.5588 65.4122L86.3555 59.2307L86.9657 63.8192L50.3394 68.872" stroke="#DDE3E2" stroke-width="1.001" stroke-linecap="round" stroke-linejoin="round"/>
<path d="M56.1814 72.3077L73.8824 70" stroke="#DDE5E8" stroke-width="1.001" stroke-linecap="round" stroke-linejoin="round"/>
<path d="M45.407 73.8461L53.8727 72.3076" stroke="#DDE5E8" stroke-width="1.001" stroke-linecap="round" stroke-linejoin="round"/>
<path d="M56.1814 74.6153L73.8824 72.3076" stroke="#DDE5E8" stroke-width="1.001" stroke-linecap="round" stroke-linejoin="round"/>
<path d="M45.407 75.3847L53.8727 74.6155" stroke="#DDE5E8" stroke-width="1.001" stroke-linecap="round" stroke-linejoin="round"/>
<path d="M95.8019 80.0001H57.35C55.4298 80.0001 53.8726 78.4553 53.8726 76.5506V54.2187C53.8726 52.3134 55.4298 50.7693 57.35 50.7693H95.8019C97.7228 50.7693 99.2794 52.3134 99.2794 54.2187V76.5506C99.2794 78.4553 97.7228 80.0001 95.8019 80.0001Z" fill="#F3F4F6"/>
<path d="M98.9804 76.9232H58.7893C57.349 76.9232 56.1814 75.765 56.1814 74.3362V50.2793C56.1814 48.8505 57.349 47.6924 58.7893 47.6924H98.9804C100.421 47.6924 101.588 48.8505 101.588 50.2793V74.3362C101.588 75.765 100.421 76.9232 98.9804 76.9232Z" fill="white"/>
<path d="M101.588 65.0426V69.2008V75.047C101.588 76.0825 100.741 76.9232 99.6961 76.9232H58.0734C57.0282 76.9232 56.1814 76.0825 56.1814 75.047V49.5692C56.1814 48.533 57.0282 47.6924 58.0734 47.6924H84.6266H88.6168" stroke="#391572" stroke-linecap="round" stroke-linejoin="round"/>
<path d="M70.5336 64.6155C71.1845 63.6034 71.5666 62.3871 71.5734 61.0759C71.5927 57.527 68.8516 54.6347 65.4518 54.6156C62.0507 54.5971 59.2792 57.4574 59.2599 61.0069C59.2525 62.3173 59.6214 63.5375 60.2617 64.5574" stroke="#D62793" stroke-linecap="round" stroke-linejoin="round"/>
<path fill-rule="evenodd" clip-rule="evenodd" d="M68.1033 58.2119C68.1033 58.2119 68.5925 59.0654 68.3759 61.008C68.3759 61.008 68.2867 62.7568 67.0432 63.7375L70.0343 65.1277L69.9188 65.2437C68.8417 66.2924 67.3882 66.9322 65.7918 66.923C64.1948 66.9136 62.7484 66.258 61.6828 65.1976L61.5686 65.0807L62.2461 64.7747L64.5734 63.7236C63.3413 62.7285 63.2906 60.9787 63.2906 60.9787C63.0961 59.0344 63.5734 58.1857 63.5734 58.1857C63.5734 58.1857 64.1982 56.9134 65.8448 56.9232C67.492 56.9322 68.1033 58.2119 68.1033 58.2119Z" stroke="#575700" stroke-linecap="round" stroke-linejoin="round"/>
<path fill-rule="evenodd" clip-rule="evenodd" d="M78.4733 67.0779L97.6941 67.1895C98.105 67.1919 98.4428 66.8623 98.4452 66.4574L98.4464 66.2363C98.4488 65.832 98.1152 65.4978 97.7043 65.4961L78.4834 65.3845C78.0725 65.3821 77.7348 65.711 77.7323 66.116L77.7305 66.3377C77.7281 66.7426 78.0624 67.0755 78.4733 67.0779ZM78.5362 71.4268L97.757 71.5383C98.1686 71.5408 98.5063 71.2112 98.5087 70.8062L98.5098 70.5852C98.5122 70.1809 98.178 69.8467 97.7678 69.845L78.5469 69.7335C78.1353 69.7309 77.7976 70.0599 77.7952 70.4649L77.794 70.6865C77.7915 71.0915 78.1253 71.4243 78.5362 71.4268Z" fill="#DDE5E8"/>
<path d="M100.819 57.6922C105.069 57.6922 108.515 54.2482 108.515 49.9999C108.515 45.7516 105.069 42.3076 100.819 42.3076C96.5681 42.3076 93.1226 45.7516 93.1226 49.9999C93.1226 54.2482 96.5681 57.6922 100.819 57.6922Z" fill="white"/>
<path fill-rule="evenodd" clip-rule="evenodd" d="M93.856 42.2711C94.2036 41.9238 94.5711 41.6084 94.952 41.321C99.0241 38.2471 104.841 38.5632 108.551 42.2711C112.262 45.9799 112.576 51.7942 109.503 55.8636C109.214 56.245 108.898 56.6118 108.551 56.9591C108.203 57.3065 107.837 57.622 107.454 57.91C103.384 60.9832 97.5665 60.6679 93.856 56.9591C90.1455 53.2505 89.8299 47.4368 92.9047 43.3673C93.1929 42.986 93.5084 42.6185 93.856 42.2711ZM107.323 53.2872L97.4144 43.5361C100.137 41.6377 103.859 41.9358 106.265 44.4309C108.671 46.9254 109.154 50.466 107.323 53.2872ZM95.9448 54.8241C93.421 52.3369 93.1202 48.4909 95.0402 45.6784L105.226 55.7162C102.373 57.6072 98.4691 57.3105 95.9448 54.8241Z" fill="#AA81F7"/>
<path d="M107.323 53.2872L106.973 53.6436L107.409 54.0733L107.743 53.5594L107.323 53.2872ZM97.4144 43.5361L97.1284 43.1259L96.6346 43.4702L97.0637 43.8925L97.4144 43.5361ZM106.265 44.4309L106.625 44.0838L106.625 44.0838L106.265 44.4309ZM95.9448 54.8241L95.5938 55.1802L95.5939 55.1803L95.9448 54.8241ZM95.0402 45.6784L95.3911 45.3223L94.9648 44.9021L94.6272 45.3965L95.0402 45.6784ZM105.226 55.7162L105.502 56.133L106.016 55.7926L105.577 55.3601L105.226 55.7162ZM94.952 41.321L95.2532 41.7201L95.2533 41.72L94.952 41.321ZM93.856 42.2711L93.5026 41.9174L93.5026 41.9175L93.856 42.2711ZM92.9047 43.3673L92.5058 43.0658L92.5058 43.0659L92.9047 43.3673ZM93.856 56.9591L94.2095 56.6055L94.2095 56.6055L93.856 56.9591ZM107.454 57.91L107.154 57.5104L107.153 57.5109L107.454 57.91ZM108.551 56.9591L108.904 57.3134L108.905 57.3124L108.551 56.9591ZM109.503 55.8636L109.901 56.1656L109.902 56.165L109.503 55.8636ZM108.551 42.2711L108.905 41.9175L108.905 41.9174L108.551 42.2711ZM107.674 52.9308L97.7651 43.1797L97.0637 43.8925L106.973 53.6436L107.674 52.9308ZM97.7004 43.9462C100.223 42.187 103.671 42.4614 105.906 44.778L106.625 44.0838C104.046 41.4101 100.051 41.0883 97.1284 43.1259L97.7004 43.9462ZM105.906 44.778C108.166 47.1224 108.595 50.4085 106.904 53.015L107.743 53.5594C109.713 50.5235 109.176 46.7284 106.625 44.0838L105.906 44.778ZM96.2957 54.4679C93.9469 52.1532 93.6673 48.5762 95.4531 45.9604L94.6272 45.3965C92.573 48.4056 92.8952 52.5207 95.5938 55.1802L96.2957 54.4679ZM94.6892 46.0346L104.875 56.0724L105.577 55.3601L95.3911 45.3223L94.6892 46.0346ZM104.95 55.2994C102.289 57.0629 98.6477 56.7846 96.2956 54.4678L95.5939 55.1803C98.2906 57.8365 102.456 58.1516 105.502 56.133L104.95 55.2994ZM94.6509 40.9218C94.253 41.222 93.8678 41.5525 93.5026 41.9174L94.2094 42.6248C94.5394 42.2951 94.8892 41.9947 95.2532 41.7201L94.6509 40.9218ZM93.5026 41.9175C93.1373 42.2826 92.8067 42.6677 92.5058 43.0658L93.3036 43.6688C93.5791 43.3042 93.8796 42.9545 94.2095 42.6247L93.5026 41.9175ZM92.5058 43.0659C89.2828 47.3316 89.613 53.4251 93.5026 57.3127L94.2095 56.6055C90.6781 53.0758 90.3771 47.542 93.3036 43.6687L92.5058 43.0659ZM93.5025 57.3127C97.392 61.2004 103.489 61.5303 107.756 58.309L107.153 57.5109C103.279 60.4361 97.741 60.1354 94.2095 56.6055L93.5025 57.3127ZM107.755 58.3095C108.156 58.0079 108.539 57.6773 108.904 57.3134L108.199 56.6048C107.866 56.9357 107.518 57.2361 107.154 57.5104L107.755 58.3095ZM108.905 57.3124C109.269 56.9479 109.6 56.5637 109.901 56.1656L109.104 55.5617C108.828 55.9262 108.527 56.2757 108.198 56.6058L108.905 57.3124ZM109.902 56.165C113.123 51.8994 112.794 45.8052 108.905 41.9175L108.198 42.6247C111.729 46.1545 112.029 51.6889 109.104 55.5623L109.902 56.165ZM108.905 41.9174C105.016 38.0307 98.919 37.7 94.6508 40.9219L95.2533 41.72C99.1293 38.7942 104.667 39.0957 108.198 42.6248L108.905 41.9174Z" fill="#7350A0"/>
<path d="M90.0355 37.7708C90.2206 37.9757 90.5368 37.9917 90.7417 37.8065C90.9465 37.6214 90.9625 37.3052 90.7773 37.1003L90.0355 37.7708ZM88.5993 34.6905C88.4141 34.4856 88.0979 34.4697 87.8931 34.6548C87.6882 34.84 87.6722 35.1562 87.8574 35.361L88.5993 34.6905ZM90.7773 37.1003L88.5993 34.6905L87.8574 35.361L90.0355 37.7708L90.7773 37.1003ZM89.2625 40.5442L86.2031 40.5009L86.189 41.5008L89.2483 41.5441L89.2625 40.5442ZM86.189 41.5008L89.2483 41.5441L89.2625 40.5442L86.2031 40.5009L86.189 41.5008ZM93.8803 36.2949L93.921 33.0832L92.9211 33.0706L92.8804 36.2822L93.8803 36.2949ZM92.9211 33.0706L92.8804 36.2822L93.8803 36.2949L93.921 33.0832L92.9211 33.0706Z" fill="#0B9CE5"/>
</svg>
