<svg width="157" height="120" viewBox="0 0 157 120" fill="none" xmlns="http://www.w3.org/2000/svg">
<path d="M116.047 117.662H40.953L0.39718 77.9023C-0.132475 77.383 -0.132475 76.5334 0.39718 76.0141L77.5369 0.388938C78.0672 -0.129646 78.9332 -0.129646 79.4628 0.388938L156.603 76.0141C157.132 76.5334 157.132 77.383 156.603 77.9023L116.047 117.662Z" fill="#F3F4F6"/>
<path d="M124.196 117.284C123.644 117.284 123.196 117.732 123.196 118.284H124.196V117.284ZM137.312 117.284H124.196V118.284H137.312V117.284ZM138.312 118.284C138.312 117.732 137.865 117.284 137.312 117.284V118.284H138.312ZM137.312 119.284C137.865 119.284 138.312 118.836 138.312 118.284H137.312V119.284ZM124.196 119.284H137.312V118.284H124.196V119.284ZM123.196 118.284C123.196 118.836 123.644 119.284 124.196 119.284V118.284H123.196ZM12.2883 117.284C11.736 117.284 11.2883 117.732 11.2883 118.284H12.2883V117.284ZM18.5829 117.284H12.2883V118.284H18.5829V117.284ZM19.5829 118.284C19.5829 117.732 19.1351 117.284 18.5829 117.284V118.284H19.5829ZM18.5829 119.284C19.1351 119.284 19.5829 118.836 19.5829 118.284H18.5829V119.284ZM12.2883 119.284H18.5829V118.284H12.2883V119.284ZM11.2883 118.284C11.2883 118.836 11.736 119.284 12.2883 119.284V118.284H11.2883Z" fill="#EB1D26"/>
<path fill-rule="evenodd" clip-rule="evenodd" d="M37.1946 120C42.7329 120 47.222 119.418 47.222 118.7C47.222 117.982 42.7329 117.399 37.1946 117.399C31.6578 117.399 27.1686 117.982 27.1686 118.7C27.1686 119.418 31.6578 120 37.1946 120ZM86.4448 120C91.9824 120 96.4715 119.418 96.4715 118.7C96.4715 117.982 91.9824 117.399 86.4448 117.399C80.9073 117.399 76.4182 117.982 76.4182 118.7C76.4182 119.418 80.9073 120 86.4448 120Z" fill="#D0D7DA"/>
<path d="M27.8865 113.531L27.5519 113.902H27.5519L27.8865 113.531ZM27.8172 113.468L27.3714 113.695L27.4135 113.778L27.4827 113.84L27.8172 113.468ZM27.7751 113.385L27.3292 113.612H27.3292L27.7751 113.385ZM23.5549 105.069L24.0008 104.843L24.0008 104.843L23.5549 105.069ZM23.5121 104.985L23.0143 105.032L23.0233 105.127L23.0662 105.211L23.5121 104.985ZM23.503 104.891L23.0053 104.938L23.503 104.891ZM24.4899 104.702L23.9918 104.746L24.0003 104.842L24.0441 104.928L24.4899 104.702ZM28.6243 112.849L28.1784 113.075L28.2214 113.16L28.2925 113.223L28.6243 112.849ZM91.7218 116.285L91.5569 115.813L91.7218 116.285ZM91.6405 116.313L91.6378 116.813L91.724 116.814L91.8054 116.785L91.6405 116.313ZM91.5543 116.313L91.5516 116.813L91.5543 116.313ZM82.5882 116.265L82.5856 116.765H82.5856L82.5882 116.265ZM82.502 116.264L82.332 116.735L82.4131 116.764L82.4993 116.764L82.502 116.264ZM82.4209 116.235L82.2509 116.705H82.2509L82.4209 116.235ZM77.8981 113.525L77.5637 113.897V113.897L77.8981 113.525ZM77.8288 113.463L77.383 113.689L77.4251 113.772L77.4944 113.834L77.8288 113.463ZM77.7866 113.38L77.3408 113.606V113.606L77.7866 113.38ZM73.5671 105.066L73.1212 105.292V105.292L73.5671 105.066ZM73.5243 104.981L73.0265 105.029L73.0355 105.123L73.0784 105.207L73.5243 104.981ZM73.5152 104.887L74.013 104.839L73.5152 104.887ZM74.5021 104.698L74.004 104.742L74.0125 104.838L74.0563 104.925L74.5021 104.698ZM78.6358 112.843L78.1899 113.069L78.2329 113.154L78.3041 113.217L78.6358 112.843ZM82.6807 115.265L82.5075 115.734L82.59 115.765L82.678 115.765L82.6807 115.265ZM91.4726 115.312L91.4699 115.812L91.5578 115.813L91.6406 115.783L91.4726 115.312ZM37.1325 89.7037C29.3262 89.7037 22.9436 95.9333 22.9436 103.634H23.9436C23.9436 96.5043 29.8595 90.7037 37.1325 90.7037V89.7037ZM51.3222 103.634C51.3222 95.9332 44.9388 89.7037 37.1325 89.7037V90.7037C44.4055 90.7037 50.3222 96.5043 50.3222 103.634H51.3222ZM37.1325 117.565C44.9389 117.565 51.3222 111.335 51.3222 103.634H50.3222C50.3222 110.764 44.4055 116.565 37.1325 116.565V117.565ZM27.5519 113.902C30.0783 116.177 33.445 117.565 37.1325 117.565V116.565C33.7 116.565 30.5697 115.273 28.221 113.159L27.5519 113.902ZM27.4827 113.84L27.5519 113.902L28.221 113.159L28.1518 113.097L27.4827 113.84ZM27.3292 113.612L27.3714 113.695L28.2631 113.242L28.221 113.159L27.3292 113.612ZM23.109 105.295L27.3292 113.612L28.221 113.159L24.0008 104.843L23.109 105.295ZM23.0662 105.211L23.109 105.295L24.0008 104.843L23.9579 104.759L23.0662 105.211ZM23.0053 104.938L23.0143 105.032L24.0098 104.937L24.0008 104.843L23.0053 104.938ZM22.9436 103.634C22.9436 104.073 22.9641 104.508 23.0053 104.938L24.0008 104.843C23.9626 104.444 23.9436 104.042 23.9436 103.634H22.9436ZM24.9436 103.634C24.9436 97.0749 30.3933 91.7037 37.1325 91.7037V90.7037C29.8595 90.7037 23.9436 96.5043 23.9436 103.634H24.9436ZM24.988 104.658C24.9584 104.321 24.9436 103.98 24.9436 103.634H23.9436C23.9436 104.009 23.9597 104.379 23.9918 104.746L24.988 104.658ZM29.0702 112.623L24.9358 104.476L24.0441 104.928L28.1784 113.075L29.0702 112.623ZM37.1325 115.565C33.987 115.565 31.1196 114.394 28.9561 112.475L28.2925 113.223C30.633 115.299 33.7347 116.565 37.1325 116.565V115.565ZM49.3222 103.634C49.3222 110.194 43.8717 115.565 37.1325 115.565V116.565C44.4055 116.565 50.3222 110.764 50.3222 103.634H49.3222ZM37.1325 91.7037C43.8718 91.7037 49.3222 97.075 49.3222 103.634H50.3222C50.3222 96.5043 44.4055 90.7037 37.1325 90.7037V91.7037ZM23.4561 103.635C23.4561 96.2717 29.5736 90.2463 37.1325 90.2463V89.2463C29.0399 89.2463 22.4561 95.701 22.4561 103.635H23.4561ZM37.1325 117.023C29.5736 117.023 23.4561 110.997 23.4561 103.635H22.4561C22.4561 111.568 29.0399 118.023 37.1325 118.023V117.023ZM50.809 103.635C50.809 110.997 44.6921 117.023 37.1325 117.023V118.023C45.2259 118.023 51.809 111.568 51.809 103.635H50.809ZM37.1325 90.2463C44.6922 90.2463 50.809 96.2717 50.809 103.635H51.809C51.809 95.701 45.2259 89.2463 37.1325 89.2463V90.2463ZM37.1325 88.2463C28.5066 88.2463 21.4561 95.13 21.4561 103.635H22.4561C22.4561 95.701 29.0399 89.2463 37.1325 89.2463V88.2463ZM52.809 103.635C52.809 95.13 45.7592 88.2463 37.1325 88.2463V89.2463C45.2259 89.2463 51.809 95.701 51.809 103.635H52.809ZM37.1325 119.023C45.7593 119.023 52.809 112.139 52.809 103.635H51.809C51.809 111.568 45.2259 118.023 37.1325 118.023V119.023ZM21.4561 103.635C21.4561 112.139 28.5065 119.023 37.1325 119.023V118.023C29.0399 118.023 22.4561 111.568 22.4561 103.635H21.4561ZM87.142 89.7027C79.337 89.7027 72.9558 95.9316 72.9558 103.631H73.9558C73.9558 96.5026 79.8704 90.7027 87.142 90.7027V89.7027ZM101.328 103.631C101.328 95.9316 94.947 89.7027 87.142 89.7027V90.7027C94.4136 90.7027 100.328 96.5026 100.328 103.631H101.328ZM91.8867 116.757C97.3711 114.841 101.328 109.691 101.328 103.631H100.328C100.328 109.241 96.6636 114.029 91.5569 115.813L91.8867 116.757ZM91.8054 116.785L91.8867 116.757L91.5569 115.813L91.4755 115.841L91.8054 116.785ZM91.5516 116.813L91.6378 116.813L91.6431 115.813L91.5569 115.813L91.5516 116.813ZM82.5856 116.765L91.5516 116.813L91.5569 115.813L82.5909 115.765L82.5856 116.765ZM82.4993 116.764L82.5856 116.765L82.5909 115.765L82.5047 115.764L82.4993 116.764ZM82.2509 116.705L82.332 116.735L82.672 115.794L82.5909 115.765L82.2509 116.705ZM77.5637 113.897C78.9129 115.11 80.5015 116.073 82.2509 116.705L82.5909 115.765C80.9645 115.177 79.4872 114.282 78.2325 113.153L77.5637 113.897ZM77.4944 113.834L77.5637 113.897L78.2325 113.153L78.1632 113.091L77.4944 113.834ZM77.3408 113.606L77.383 113.689L78.2747 113.236L78.2325 113.153L77.3408 113.606ZM73.1212 105.292L77.3408 113.606L78.2325 113.153L74.013 104.839L73.1212 105.292ZM73.0784 105.207L73.1212 105.292L74.013 104.839L73.9701 104.755L73.0784 105.207ZM73.0175 104.935L73.0265 105.029L74.022 104.934L74.013 104.839L73.0175 104.935ZM72.9558 103.631C72.9558 104.07 72.9763 104.504 73.0175 104.935L74.013 104.839C73.9748 104.441 73.9558 104.038 73.9558 103.631H72.9558ZM74.9558 103.631C74.9558 97.0732 80.4042 91.7027 87.142 91.7027V90.7027C79.8704 90.7027 73.9558 96.5026 73.9558 103.631H74.9558ZM75.0002 104.655C74.9706 104.317 74.9558 103.976 74.9558 103.631H73.9558C73.9558 104.005 73.9719 104.375 74.004 104.742L75.0002 104.655ZM79.0816 112.617L74.948 104.472L74.0563 104.925L78.1899 113.069L79.0816 112.617ZM82.8538 114.796C81.4092 114.263 80.0933 113.467 78.9674 112.469L78.3041 113.217C79.5216 114.297 80.9447 115.158 82.5075 115.734L82.8538 114.796ZM91.4752 114.812L82.6834 114.765L82.678 115.765L91.4699 115.812L91.4752 114.812ZM99.3282 103.631C99.3282 108.764 95.9926 113.169 91.3045 114.842L91.6406 115.783C96.7035 113.977 100.328 109.211 100.328 103.631H99.3282ZM87.142 91.7027C93.8798 91.7027 99.3282 97.0732 99.3282 103.631H100.328C100.328 96.5026 94.4136 90.7027 87.142 90.7027V91.7027ZM73.4689 103.631C73.4689 96.2704 79.5844 90.2463 87.1419 90.2463V89.2463C79.0506 89.2463 72.4689 95.6997 72.4689 103.631H73.4689ZM87.1419 116.788C79.5633 116.788 73.4689 110.972 73.4689 103.631H72.4689C72.4689 111.563 79.0505 117.788 87.1419 117.788V116.788ZM100.816 103.631C100.816 110.972 94.7206 116.788 87.1419 116.788V117.788C95.2334 117.788 101.816 111.563 101.816 103.631H100.816ZM87.1419 90.2463C94.6996 90.2463 100.816 96.2704 100.816 103.631H101.816C101.816 95.6997 95.2332 89.2463 87.1419 89.2463V90.2463ZM87.1419 88.2463C78.5173 88.2463 71.4689 95.1287 71.4689 103.631H72.4689C72.4689 95.6997 79.0506 89.2463 87.1419 89.2463V88.2463ZM102.816 103.631C102.816 95.1286 95.7665 88.2463 87.1419 88.2463V89.2463C95.2332 89.2463 101.816 95.6997 101.816 103.631H102.816ZM87.1419 118.788C95.7452 118.788 102.816 112.154 102.816 103.631H101.816C101.816 111.563 95.2333 117.788 87.1419 117.788V118.788ZM71.4689 103.631C71.4689 112.154 78.5386 118.788 87.1419 118.788V117.788C79.0505 117.788 72.4689 111.563 72.4689 103.631H71.4689Z" fill="#DDE5E8"/>
<path fill-rule="evenodd" clip-rule="evenodd" d="M51.8093 103.635C51.8093 111.581 45.239 118.024 37.1321 118.024C29.0266 118.024 22.4556 111.581 22.4556 103.635C22.4556 95.6884 29.0266 89.2458 37.1321 89.2458C45.239 89.2458 51.8093 95.6884 51.8093 103.635Z" stroke="white" stroke-width="3" stroke-linecap="round" stroke-linejoin="round"/>
<path fill-rule="evenodd" clip-rule="evenodd" d="M52.9402 103.635C52.9402 112.193 45.8627 119.132 37.1322 119.132C28.4024 119.132 21.3256 112.193 21.3256 103.635C21.3256 95.0764 28.4024 88.1379 37.1322 88.1379C45.8627 88.1379 52.9402 95.0764 52.9402 103.635Z" stroke="#391572" stroke-linecap="round" stroke-linejoin="round"/>
<path fill-rule="evenodd" clip-rule="evenodd" d="M101.819 103.635C101.819 110.002 97.6006 115.403 91.7546 117.299L82.8533 117.399C76.8398 115.601 72.4651 110.119 72.4651 103.635C72.4651 95.6884 79.0361 89.2458 87.1416 89.2458C95.2477 89.2458 101.819 95.6884 101.819 103.635Z" stroke="white" stroke-width="3" stroke-linecap="round" stroke-linejoin="round"/>
<path d="M96.1219 116.99L96.3938 117.41L96.1219 116.99ZM96.2696 116.299L96.6892 116.027L96.2696 116.299ZM93.2211 118.483L93.4046 118.949L93.2211 118.483ZM92.5725 118.202L93.0376 118.018L92.5725 118.202ZM92.8541 117.553L93.0376 118.018L92.8541 117.553ZM95.578 116.151L95.3061 115.731L95.578 116.151ZM78.6995 116.147L78.9717 115.727L78.9717 115.727L78.6995 116.147ZM78.8466 116.838L79.266 117.111L79.266 117.111L78.8466 116.838ZM78.155 116.986L77.8828 117.405H77.8828L78.155 116.986ZM96.122 116.99L95.85 116.571L95.85 116.571L96.122 116.99ZM95.4305 116.843L95.85 116.571L95.85 116.571L95.4305 116.843ZM95.578 116.151L95.85 116.571L95.578 116.151ZM78.6987 116.147L78.4269 116.567L78.6987 116.147ZM78.0072 116.295L78.4269 116.567L78.0072 116.295ZM81.4038 117.543L81.2195 118.008H81.2195L81.4038 117.543ZM81.6843 118.192L81.2195 118.008L81.6843 118.192ZM81.0352 118.472L80.8509 118.937L81.0352 118.472ZM78.155 116.986L77.8832 117.406L78.155 116.986ZM96.3938 117.41C96.8572 117.11 96.9895 116.49 96.6892 116.027L95.85 116.571L96.3938 117.41ZM93.4046 118.949C94.4581 118.533 95.4589 118.016 96.3938 117.41L95.85 116.571C94.9704 117.141 94.0288 117.627 93.0376 118.018L93.4046 118.949ZM92.1074 118.385C92.3101 118.899 92.8909 119.151 93.4046 118.949L93.0376 118.018L92.1074 118.385ZM92.6706 117.088C92.1568 117.291 91.9047 117.872 92.1074 118.385L93.0376 118.018L92.6706 117.088ZM95.3061 115.731C94.4819 116.266 93.5995 116.722 92.6706 117.088L93.0376 118.018C94.0288 117.627 94.9704 117.141 95.85 116.571L95.3061 115.731ZM96.6892 116.027C96.3888 115.563 95.7696 115.431 95.3061 115.731L95.85 116.571L96.6892 116.027ZM72.3348 103.635C72.3348 95.6475 78.9459 89.1382 87.1421 89.1382V88.1382C78.4122 88.1382 71.3348 95.0768 71.3348 103.635H72.3348ZM78.9717 115.727C74.9654 113.127 72.3348 108.678 72.3348 103.635H71.3348C71.3348 109.036 74.1539 113.792 78.4273 116.566L78.9717 115.727ZM79.266 117.111C79.5667 116.647 79.435 116.028 78.9717 115.727L78.4273 116.566L78.4273 116.566L79.266 117.111ZM77.8828 117.405C78.3461 117.706 78.9654 117.574 79.266 117.111L78.4273 116.566H78.4273L77.8828 117.405ZM70.3348 103.635C70.3348 109.395 73.3425 114.458 77.8828 117.405L78.4273 116.566C74.1539 113.792 71.3348 109.036 71.3348 103.635H70.3348ZM87.1421 87.1382C77.8789 87.1382 70.3348 94.5057 70.3348 103.635H71.3348C71.3348 95.0768 78.4122 88.1382 87.1421 88.1382V87.1382ZM103.949 103.635C103.949 94.5057 96.4052 87.1382 87.1421 87.1382V88.1382C95.8719 88.1382 102.949 95.0768 102.949 103.635H103.949ZM96.394 117.41C100.939 114.464 103.949 109.398 103.949 103.635H102.949C102.949 109.039 100.127 113.798 95.85 116.571L96.394 117.41ZM95.011 117.115C95.3114 117.578 95.9306 117.71 96.394 117.41L95.85 116.571L95.85 116.571L95.011 117.115ZM95.3061 115.732C94.8426 116.032 94.7105 116.651 95.011 117.115L95.85 116.571L95.85 116.571L95.3061 115.732ZM101.949 103.635C101.949 108.68 99.3161 113.132 95.3061 115.732L95.85 116.571C100.127 113.798 102.949 109.039 102.949 103.635H101.949ZM87.1421 89.1382C95.3382 89.1382 101.949 95.6475 101.949 103.635H102.949C102.949 95.0768 95.8719 88.1382 87.1421 88.1382V89.1382ZM78.9705 115.727C78.507 115.427 77.8878 115.559 77.5875 116.023L78.4269 116.567L78.9705 115.727ZM81.588 117.078C80.667 116.713 79.7909 116.259 78.9705 115.727L78.4269 116.567C79.3017 117.133 80.2364 117.618 81.2195 118.008L81.588 117.078ZM82.1491 118.376C82.3526 117.863 82.1014 117.282 81.588 117.078L81.2195 118.008H81.2195L82.1491 118.376ZM80.8509 118.937C81.3643 119.141 81.9455 118.89 82.1491 118.376L81.2195 118.008L80.8509 118.937ZM77.8832 117.406C78.8125 118.008 79.8058 118.523 80.8509 118.937L81.2195 118.008C80.2364 117.618 79.3017 117.133 78.4269 116.567L77.8832 117.406ZM77.5875 116.023C77.2873 116.487 77.4197 117.106 77.8832 117.406L78.4269 116.567L77.5875 116.023Z" fill="#391572"/>
<path d="M79.5462 82.968L77.3193 76.9111" stroke="#D6D6D6" stroke-linecap="round" stroke-linejoin="round"/>
<path d="M87.1418 103.635L79.5463 82.9678" stroke="#ED0722" stroke-linecap="round" stroke-linejoin="round"/>
<path d="M50.782 83.6572L49.2489 79.4932" stroke="#D6D6D6" stroke-linecap="round" stroke-linejoin="round"/>
<path d="M51.2511 83.4836L51.7203 83.3109V83.3109L51.2511 83.4836ZM50.6092 83.1872L50.7819 83.6564L50.6092 83.1872ZM58.6064 103.462L58.1372 103.635L58.6064 103.462ZM58.3099 104.104L58.4827 104.573L58.3099 104.104ZM57.668 103.808L57.1988 103.98L57.668 103.808ZM50.3127 83.8291L50.7819 83.6564V83.6564L50.3127 83.8291ZM79.9069 85.3559C79.8765 85.6304 80.0743 85.8775 80.3488 85.9079C80.6233 85.9383 80.8704 85.7405 80.9008 85.466L79.9069 85.3559ZM80.4585 84.914L80.4036 85.4109L80.4041 85.411L80.4585 84.914ZM80.4589 84.914L80.514 84.417C80.3822 84.4024 80.25 84.4408 80.1465 84.5237C80.0429 84.6065 79.9766 84.7271 79.962 84.8589L80.4589 84.914ZM80.9016 85.4586L81.3993 85.5063V85.5063L80.9016 85.4586ZM80.364 85.9094L80.4039 85.4109L80.3991 85.4106L80.364 85.9094ZM80.364 85.9094L80.3245 86.4078L80.3289 86.4081L80.364 85.9094ZM80.3636 85.9093L80.4034 85.4108L80.3935 85.4102L80.3636 85.9093ZM80.3636 85.9093L80.3262 86.408L80.3337 86.4084L80.3636 85.9093ZM80.36 85.9091L80.3974 85.4105L80.3946 85.4103L80.36 85.9091ZM80.3421 85.9078L80.3768 85.409L80.3751 85.4089L80.3421 85.9078ZM80.2656 85.9034L80.2402 86.4028L80.2402 86.4028L80.2656 85.9034ZM79.9595 85.8934L79.9682 85.3935L79.9595 85.8934ZM78.82 85.9213L78.7889 85.4223L78.82 85.9213ZM75.1117 86.584L74.9661 86.1057L75.1117 86.584ZM67.2915 93.5749L67.7524 93.769L67.7542 93.7646L67.2915 93.5749ZM67.2915 93.575L66.8307 93.3809L66.8289 93.3853L67.2915 93.575ZM62.6525 101.752L63.0065 102.105L62.6525 101.752ZM58.7716 103.973L58.9391 104.444H58.9391L58.7716 103.973ZM58.399 104.106L58.5688 104.576L58.5688 104.576L58.399 104.106ZM36.6682 103.449L36.8546 102.985C36.7316 102.936 36.5939 102.937 36.472 102.989C36.35 103.041 36.2537 103.14 36.2043 103.263L36.6682 103.449ZM36.9457 104.099C37.2019 104.202 37.4931 104.078 37.5961 103.822C37.699 103.566 37.5748 103.275 37.3186 103.172L36.9457 104.099ZM36.6684 103.449L37.132 103.636L37.1321 103.636L36.6684 103.449ZM36.6686 103.448L36.2051 103.261L36.2049 103.261L36.6686 103.448ZM36.6693 103.446L36.2062 103.258L36.2058 103.259L36.6693 103.446ZM36.6717 103.44L36.2095 103.25L36.2086 103.252L36.6717 103.44ZM36.6803 103.42L36.2185 103.228L36.218 103.229L36.6803 103.42ZM36.7125 103.343L36.2531 103.146L36.2531 103.146L36.7125 103.343ZM36.8399 103.057L37.2943 103.266L37.2943 103.266L36.8399 103.057ZM37.3602 102.007L37.8025 102.24H37.8025L37.3602 102.007ZM39.5796 98.4208L39.1718 98.1314L39.5796 98.4208ZM49.6699 88.7792L49.9412 89.1992L49.9412 89.1992L49.6699 88.7792ZM58.5989 85.5368L58.5034 85.046L58.5989 85.5368ZM68.708 84.5122L68.6938 84.0124L68.708 84.5122ZM77.0041 84.6438L76.9752 85.143L77.0041 84.6438ZM79.5266 84.8248L79.57 84.3267L79.5266 84.8248ZM80.2153 84.8888L80.2649 84.3913H80.2649L80.2153 84.8888ZM80.3957 84.9072L80.4487 84.41L80.4481 84.41L80.3957 84.9072ZM80.4424 84.9122L80.4964 84.4151L80.4954 84.415L80.4424 84.9122ZM80.4545 84.9135L80.509 84.4165L80.5085 84.4164L80.4545 84.9135ZM80.4577 84.9139L80.5126 84.4169L80.5122 84.4168L80.4577 84.9139ZM49.5212 89.4705C49.6711 89.7025 49.9806 89.7691 50.2125 89.6192C50.4445 89.4694 50.511 89.1599 50.3612 88.9279L49.5212 89.4705ZM50.3464 88.905C50.1966 88.6731 49.8871 88.6065 49.6551 88.7563C49.4232 88.9062 49.3566 89.2157 49.5064 89.4476L50.3464 88.905ZM58.1419 103.135V103.635C58.1995 103.635 58.2567 103.626 58.311 103.606L58.1419 103.135ZM37.909 103.135L37.4592 102.917C37.384 103.072 37.3938 103.255 37.4852 103.401C37.5766 103.547 37.7368 103.635 37.909 103.635V103.135ZM58.4217 103.035L58.5897 103.506L58.5897 103.506L58.4217 103.035ZM61.9445 101.046L61.5905 100.693L61.9445 101.046ZM66.3663 93.1956L66.8289 93.3853C66.9035 93.2032 66.8645 92.9943 66.7291 92.8516C66.5937 92.7088 66.3872 92.6587 66.2014 92.7236L66.3663 93.1956ZM68.7364 85.5118L68.7506 86.0116L68.7364 85.5118ZM75.0768 85.5517L75.2906 86.0036C75.4988 85.9052 75.6128 85.6772 75.5667 85.4516C75.5206 85.226 75.3264 85.061 75.0963 85.052L75.0768 85.5517ZM58.7898 86.5184L58.6944 86.0276L58.7898 86.5184ZM50.2125 89.6192L50.4776 90.0433L50.4838 90.0392L50.2125 89.6192ZM50.2125 89.6192L49.9475 89.1952L49.9412 89.1992L50.2125 89.6192ZM40.395 98.9996L40.8028 99.289L40.395 98.9996ZM38.2449 102.473L38.6873 102.706H38.6873L38.2449 102.473ZM51.7203 83.3109C51.5295 82.7926 50.9547 82.5272 50.4364 82.718L50.7819 83.6564L51.7203 83.3109ZM59.0756 103.289L51.7203 83.3109L50.7819 83.6564L58.1372 103.635L59.0756 103.289ZM58.4827 104.573C59.0009 104.383 59.2664 103.808 59.0756 103.289L58.1372 103.635L58.4827 104.573ZM57.1988 103.98C57.3896 104.499 57.9644 104.764 58.4827 104.573L58.1372 103.635L57.1988 103.98ZM49.8435 84.0019L57.1988 103.98L58.1372 103.635L50.7819 83.6564L49.8435 84.0019ZM50.4364 82.718C49.9181 82.9088 49.6527 83.4836 49.8435 84.0019L50.7819 83.6564V83.6564L50.4364 82.718ZM80.9008 85.466C80.9284 85.2176 80.9421 85.0931 80.949 85.0306C80.9524 84.9998 80.9542 84.9829 80.9551 84.9737C80.9555 84.9706 80.9562 84.9632 80.9568 84.9558C80.957 84.9535 80.9574 84.949 80.9577 84.9435C80.9579 84.9398 80.9587 84.9264 80.9585 84.9094C80.9585 84.901 80.9581 84.884 80.9559 84.8628C80.9542 84.8461 80.9489 84.7997 80.9287 84.7439C80.9072 84.6844 80.8541 84.5745 80.7304 84.4944C80.6717 84.4563 80.6156 84.4374 80.5742 84.4275C80.5545 84.4228 80.5383 84.4203 80.5284 84.4189C80.5245 84.4183 80.5187 84.4176 80.5168 84.4174C80.5149 84.4171 80.5129 84.4169 80.5129 84.4169L80.4041 85.411C80.4041 85.411 80.4022 85.4108 80.4003 85.4106C80.3983 85.4103 80.3925 85.4096 80.3887 85.4091C80.3788 85.4077 80.3626 85.4051 80.3429 85.4004C80.3015 85.3906 80.2454 85.3716 80.1866 85.3336C80.063 85.2534 80.0099 85.1436 79.9884 85.0841C79.9682 85.0283 79.9629 84.9819 79.9612 84.9652C79.959 84.944 79.9587 84.9271 79.9586 84.9187C79.9584 84.9018 79.9592 84.8887 79.9594 84.8853C79.9597 84.88 79.96 84.8759 79.9602 84.8741C79.9606 84.8686 79.961 84.8651 79.9605 84.8698C79.9599 84.8761 79.9584 84.8903 79.9549 84.9216C79.9482 84.9834 79.9345 85.1074 79.9069 85.3559L80.9008 85.466ZM79.962 84.8589L79.9069 85.3559L80.9008 85.466L80.9559 84.9691L79.962 84.8589ZM81.3993 85.5063C81.4514 84.9623 81.0572 84.4772 80.514 84.417L80.4039 85.411V85.411L81.3993 85.5063ZM80.3241 86.4078C80.8685 86.4513 81.3473 86.05 81.3993 85.5063L80.4039 85.411L80.4039 85.411L80.3241 86.4078ZM80.3289 86.4081L80.3289 86.4081L80.3991 85.4106L80.399 85.4106L80.3289 86.4081ZM80.3239 86.4078L80.3245 86.4078L80.4034 85.4109L80.4034 85.4109L80.3239 86.4078ZM80.3337 86.4084L80.3337 86.4084L80.3935 85.4102L80.3935 85.4102L80.3337 86.4084ZM80.3225 86.4077L80.3262 86.4079L80.401 85.4107L80.3974 85.4105L80.3225 86.4077ZM80.3075 86.4066L80.3253 86.4079L80.3946 85.4103L80.3768 85.409L80.3075 86.4066ZM80.2402 86.4028C80.272 86.4044 80.2951 86.4058 80.3091 86.4067L80.3751 85.4089C80.3562 85.4077 80.3279 85.4059 80.291 85.4041L80.2402 86.4028ZM79.9508 86.3933C80.0789 86.3956 80.1767 86.3995 80.2402 86.4028L80.291 85.4041C80.217 85.4003 80.1081 85.3959 79.9682 85.3935L79.9508 86.3933ZM78.851 86.4204C79.3172 86.3914 79.6942 86.3889 79.9508 86.3933L79.9682 85.3935C79.6884 85.3886 79.2847 85.3914 78.7889 85.4223L78.851 86.4204ZM75.2573 87.0623C76.6368 86.6424 77.9161 86.4785 78.851 86.4204L78.7889 85.4223C77.7975 85.4839 76.4381 85.6576 74.9661 86.1057L75.2573 87.0623ZM67.7542 93.7646C69.4079 89.7307 72.5089 87.899 75.2573 87.0623L74.9661 86.1057C72.0222 87.0018 68.6285 88.9954 66.8289 93.3853L67.7542 93.7646ZM67.7524 93.769L67.7524 93.769L66.8307 93.3809L66.8307 93.3809L67.7524 93.769ZM63.0065 102.105C64.4783 100.629 65.9424 98.1835 67.7542 93.7646L66.8289 93.3853C65.0289 97.7755 63.6253 100.069 62.2985 101.399L63.0065 102.105ZM58.9391 104.444C60.2758 103.968 61.622 103.493 63.0065 102.105L62.2985 101.399C61.0858 102.615 59.9306 103.03 58.604 103.501L58.9391 104.444ZM58.5688 104.576C58.6924 104.531 58.8155 104.488 58.9391 104.444L58.604 103.501C58.4807 103.545 58.3554 103.59 58.2292 103.635L58.5688 104.576ZM58.2292 104.635C58.345 104.635 58.4599 104.615 58.5688 104.576L58.2292 103.635L58.2292 103.635V104.635ZM37.1321 104.635H58.2292V103.635H37.1321V104.635ZM36.3036 104.195C36.4896 104.471 36.8 104.635 37.1321 104.635V103.635H37.1321L36.3036 104.195ZM36.2043 103.263C36.0804 103.571 36.1177 103.92 36.3036 104.195L37.1321 103.635L36.2043 103.263ZM37.3186 103.172L36.8546 102.985L36.4818 103.913L36.9457 104.099L37.3186 103.172ZM36.2048 103.261C36.2048 103.261 36.204 103.263 36.2033 103.265C36.2026 103.267 36.2005 103.272 36.1991 103.276C36.1957 103.285 36.1903 103.301 36.1851 103.32C36.1742 103.361 36.1644 103.42 36.17 103.489C36.1819 103.635 36.2528 103.734 36.2949 103.781C36.3344 103.825 36.3727 103.852 36.3868 103.862C36.4045 103.874 36.4193 103.882 36.4268 103.886C36.4419 103.895 36.4541 103.9 36.4576 103.902C36.4627 103.904 36.4669 103.906 36.469 103.907C36.476 103.91 36.483 103.913 36.4859 103.914C36.4946 103.918 36.5104 103.924 36.5392 103.936C36.5975 103.959 36.7138 104.006 36.9457 104.099L37.3186 103.172C37.0865 103.078 36.9709 103.032 36.9133 103.009C36.8841 102.997 36.8709 102.991 36.8652 102.989C36.8609 102.987 36.8643 102.989 36.8695 102.991C36.8712 102.992 36.875 102.993 36.8799 102.996C36.8831 102.997 36.8951 103.003 36.9101 103.011C36.9175 103.015 36.9323 103.023 36.95 103.036C36.964 103.045 37.0024 103.072 37.0418 103.116C37.084 103.164 37.1549 103.262 37.1667 103.408C37.1724 103.478 37.1625 103.536 37.1516 103.577C37.1464 103.596 37.1411 103.612 37.1376 103.621C37.1362 103.625 37.1341 103.63 37.1334 103.632C37.1327 103.634 37.132 103.636 37.132 103.636L36.2048 103.261ZM36.2049 103.261L36.2047 103.262L37.1321 103.636L37.1323 103.635L36.2049 103.261ZM36.2058 103.259L36.2051 103.261L37.1322 103.635L37.1329 103.634L36.2058 103.259ZM36.2086 103.252L36.2062 103.258L37.1325 103.635L37.1349 103.629L36.2086 103.252ZM36.218 103.229L36.2095 103.25L37.134 103.631L37.1425 103.61L36.218 103.229ZM36.2531 103.146C36.2381 103.181 36.2266 103.208 36.2185 103.228L37.142 103.611C37.1486 103.595 37.1586 103.572 37.172 103.541L36.2531 103.146ZM36.3855 102.849C36.327 102.976 36.2831 103.076 36.2531 103.146L37.172 103.541C37.1988 103.478 37.2394 103.386 37.2943 103.266L36.3855 102.849ZM36.9178 101.774C36.6781 102.228 36.5025 102.594 36.3855 102.849L37.2943 103.266C37.4042 103.026 37.5718 102.678 37.8025 102.24L36.9178 101.774ZM39.1718 98.1314C38.1336 99.5942 37.3971 100.864 36.9178 101.774L37.8025 102.24C38.2639 101.364 38.9777 100.133 39.9873 98.7102L39.1718 98.1314ZM49.3986 88.3592C44.5373 91.4996 41.2475 95.2069 39.1718 98.1314L39.9873 98.7102C42.0064 95.8654 45.2087 92.2563 49.9412 89.1992L49.3986 88.3592ZM58.5034 85.046C55.144 85.6994 51.9166 86.7326 49.3986 88.3593L49.9412 89.1992C52.3077 87.6705 55.3948 86.6694 58.6944 86.0276L58.5034 85.046ZM68.6938 84.0124C65.4444 84.1047 61.8742 84.3904 58.5034 85.046L58.6944 86.0276C61.9939 85.3858 65.506 85.1034 68.7222 85.012L68.6938 84.0124ZM77.033 84.1446C74.8964 84.0209 71.9461 83.92 68.6938 84.0124L68.7222 85.012C71.9384 84.9207 74.8588 85.0204 76.9752 85.143L77.033 84.1446ZM79.57 84.3267C78.9689 84.2743 78.102 84.2066 77.033 84.1446L76.9752 85.143C78.0334 85.2043 78.8906 85.2713 79.4832 85.3229L79.57 84.3267ZM80.2649 84.3913C80.1049 84.3753 79.8707 84.3529 79.57 84.3267L79.4832 85.3229C79.7795 85.3488 80.0097 85.3708 80.1658 85.3863L80.2649 84.3913ZM80.4481 84.41C80.4063 84.4056 80.3449 84.3992 80.2649 84.3913L80.1658 85.3863C80.2438 85.3941 80.3033 85.4003 80.3434 85.4045L80.4481 84.41ZM80.4954 84.415L80.4487 84.41L80.3427 85.4044L80.3894 85.4094L80.4954 84.415ZM80.5085 84.4164L80.4964 84.4151L80.3883 85.4093L80.4004 85.4106L80.5085 84.4164ZM80.5122 84.4168L80.509 84.4165L80.3999 85.4105L80.4031 85.4109L80.5122 84.4168ZM80.5135 84.417L80.5126 84.4169L80.4027 85.4108L80.4036 85.4109L80.5135 84.417ZM50.3612 88.9279L50.3464 88.905L49.5064 89.4476L49.5212 89.4705L50.3612 88.9279ZM49.5064 89.4476L49.5212 89.4705L50.3612 88.9279L50.3464 88.905L49.5064 89.4476ZM58.1419 102.635H37.909V103.635H58.1419V102.635ZM58.2536 102.564C58.1618 102.597 58.068 102.631 57.9727 102.665L58.311 103.606C58.4051 103.572 58.4978 103.539 58.5897 103.506L58.2536 102.564ZM61.5905 100.693C60.543 101.743 59.5871 102.089 58.2536 102.564L58.5897 103.506C59.9286 103.028 61.078 102.623 62.2985 101.399L61.5905 100.693ZM65.9037 93.0059C64.1153 97.3677 62.7722 99.5079 61.5905 100.693L62.2985 101.399C63.6253 100.069 65.0289 97.7755 66.8289 93.3853L65.9037 93.0059ZM66.2014 92.7236L37.7441 102.663L38.0739 103.608L66.5312 93.6677L66.2014 92.7236ZM68.7506 86.0116C71.0724 85.9457 73.2401 85.9804 75.0573 86.0513L75.0963 85.052C73.2616 84.9805 71.0709 84.9453 68.7222 85.012L68.7506 86.0116ZM58.8853 87.0092C62.1137 86.3813 65.5676 86.102 68.7506 86.0116L68.7222 85.012C65.506 85.1034 61.9939 85.3858 58.6944 86.0276L58.8853 87.0092ZM50.4838 90.0392C52.6987 88.6084 55.6456 87.6393 58.8853 87.0092L58.6944 86.0276C55.3948 86.6694 52.3077 87.6705 49.9412 89.1992L50.4838 90.0392ZM50.4775 90.0432L50.4775 90.0432L49.9475 89.1952L49.9475 89.1952L50.4775 90.0432ZM40.8028 99.289C42.7653 96.5239 45.8801 93.0131 50.4838 90.0392L49.9412 89.1992C45.2087 92.2563 42.0064 95.8654 39.9873 98.7102L40.8028 99.289ZM38.6873 102.706C39.1308 101.864 39.8219 100.671 40.8028 99.289L39.9873 98.7102C38.9777 100.133 38.2639 101.364 37.8025 102.24L38.6873 102.706ZM38.3588 103.354C38.4474 103.171 38.5566 102.954 38.6873 102.706L37.8025 102.24C37.6665 102.498 37.5524 102.725 37.4592 102.917L38.3588 103.354ZM38.1228 103.587L75.2906 86.0036L74.863 85.0997L37.6952 102.684L38.1228 103.587Z" fill="#ED0722"/>
<path d="M47.9771 76.4353H55.7769C55.7769 76.4353 56.5224 78.7833 54.0266 78.7833C51.5315 78.7833 50.3701 80.2596 46.9369 80.2596C43.5043 80.2596 42.9658 76.4353 42.9658 76.4353H45.273" fill="#AA81F7"/>
<path d="M47.9771 76.4353H55.7769C55.7769 76.4353 56.5224 78.7833 54.0266 78.7833C51.5315 78.7833 50.3701 80.2596 46.9369 80.2596C43.5043 80.2596 42.9658 76.4353 42.9658 76.4353H45.273" stroke="#391572" stroke-linecap="round" stroke-linejoin="round"/>
<path d="M60.2739 103.391C60.2739 104.597 59.2772 105.574 58.047 105.574C56.8182 105.574 55.8215 104.597 55.8215 103.391C55.8215 102.186 56.8182 101.209 58.047 101.209C59.2772 101.209 60.2739 102.186 60.2739 103.391Z" fill="white"/>
<path fill-rule="evenodd" clip-rule="evenodd" d="M60.2739 103.391C60.2739 104.597 59.2772 105.574 58.047 105.574C56.8182 105.574 55.8215 104.597 55.8215 103.391C55.8215 102.186 56.8182 101.209 58.047 101.209C59.2772 101.209 60.2739 102.186 60.2739 103.391Z" stroke="#ED0722" stroke-linecap="round" stroke-linejoin="round"/>
<path d="M38.6483 103.392C38.6483 104.212 37.9695 104.877 37.1321 104.877C36.2961 104.877 35.6174 104.212 35.6174 103.392C35.6174 102.571 36.2961 101.906 37.1321 101.906C37.9695 101.906 38.6483 102.571 38.6483 103.392Z" fill="white"/>
<path fill-rule="evenodd" clip-rule="evenodd" d="M38.6483 103.392C38.6483 104.212 37.9695 104.877 37.1321 104.877C36.2961 104.877 35.6174 104.212 35.6174 103.392C35.6174 102.571 36.2961 101.906 37.1321 101.906C37.9695 101.906 38.6483 102.571 38.6483 103.392Z" stroke="#ED0722" stroke-linecap="round" stroke-linejoin="round"/>
<path d="M88.657 103.392C88.657 104.212 87.9789 104.877 87.1415 104.877C86.3048 104.877 85.6268 104.212 85.6268 103.392C85.6268 102.571 86.3048 101.906 87.1415 101.906C87.9789 101.906 88.657 102.571 88.657 103.392Z" fill="white"/>
<path d="M91.0144 88.053L91.307 88.4584C91.4656 88.3439 91.5429 88.1475 91.5048 87.9556C91.4668 87.7638 91.3203 87.6117 91.13 87.5665L91.0144 88.053ZM70.8092 102.635L70.3102 102.603C70.2981 102.796 70.3983 102.979 70.5677 103.072C70.737 103.166 70.945 103.153 71.1018 103.04L70.8092 102.635ZM92.303 87.3666L92.4489 86.8884V86.8884L92.303 87.3666ZM92.6504 87.763L92.1571 87.8449V87.8449L92.6504 87.763ZM92.4497 88.2503L92.7423 88.6558V88.6558L92.4497 88.2503ZM70.5705 104.04L70.2779 103.635V103.635L70.5705 104.04ZM70.0502 104.08L69.8225 104.525L69.8225 104.525L70.0502 104.08ZM53.4868 103.083L53.4383 103.58C53.5817 103.594 53.7241 103.546 53.8291 103.447C53.9341 103.349 53.9915 103.209 53.9865 103.065L53.4868 103.083ZM21.2051 99.9394L20.719 99.8224C20.6851 99.9631 20.7139 100.112 20.7978 100.229C20.8817 100.347 21.0126 100.423 21.1567 100.437L21.2051 99.9394ZM20.1047 100.283L19.6148 100.183L20.1047 100.283ZM53.9478 104.132L53.8994 104.63L53.9478 104.132ZM20.5462 100.88L20.4978 101.378H20.4978L20.5462 100.88ZM20.1926 100.68L20.5947 100.382L20.5947 100.382L20.1926 100.68ZM86.627 103.391C86.627 103.14 86.8405 102.906 87.1417 102.906V101.906C86.3036 101.906 85.627 102.573 85.627 103.391H86.627ZM87.1417 103.877C86.8405 103.877 86.627 103.643 86.627 103.391H85.627C85.627 104.21 86.3036 104.877 87.1417 104.877V103.877ZM87.6572 103.391C87.6572 103.642 87.4439 103.877 87.1417 103.877V104.877C87.9805 104.877 88.6572 104.21 88.6572 103.391H87.6572ZM87.1417 102.906C87.4439 102.906 87.6572 103.14 87.6572 103.391H88.6572C88.6572 102.573 87.9805 101.906 87.1417 101.906V102.906ZM87.1417 100.906C85.7716 100.906 84.627 102 84.627 103.391H85.627C85.627 102.572 86.3043 101.906 87.1417 101.906V100.906ZM89.6572 103.391C89.6572 102 88.5122 100.906 87.1417 100.906V101.906C87.9798 101.906 88.6572 102.572 88.6572 103.391H89.6572ZM87.1417 105.877C88.5122 105.877 89.6572 104.783 89.6572 103.391H88.6572C88.6572 104.211 87.9798 104.877 87.1417 104.877V105.877ZM84.627 103.391C84.627 104.783 85.7716 105.877 87.1417 105.877V104.877C86.3043 104.877 85.627 104.211 85.627 103.391H84.627ZM90.7218 87.6475L70.5166 102.229L71.1018 103.04L91.307 88.4584L90.7218 87.6475ZM87.1418 88.1021C88.4377 88.1021 89.6957 88.2535 90.8988 88.5394L91.13 87.5665C89.8514 87.2627 88.5159 87.1021 87.1418 87.1021V88.1021ZM71.3082 102.666C71.8181 94.5553 78.6959 88.1021 87.1418 88.1021V87.1021C78.1816 87.1021 70.854 93.9522 70.3102 102.603L71.3082 102.666ZM87.1418 86.1021C77.2952 86.1021 69.2779 93.9327 69.2779 103.635H70.2779C70.2779 94.5038 77.8285 87.1021 87.1418 87.1021V86.1021ZM92.4489 86.8884C90.7708 86.3765 88.9882 86.1021 87.1418 86.1021V87.1021C88.8887 87.1021 90.5729 87.3617 92.1571 87.8449L92.4489 86.8884ZM93.1436 87.6811C93.0814 87.3063 92.8122 86.9992 92.4489 86.8884L92.1571 87.8449V87.8449L93.1436 87.6811ZM92.7423 88.6558C93.0504 88.4335 93.2058 88.0558 93.1436 87.6811L92.1571 87.8449V87.8449L92.7423 88.6558ZM70.8631 104.446L92.7423 88.6558L92.1571 87.8449L70.2779 103.635L70.8631 104.446ZM69.8225 104.525C70.1567 104.696 70.5586 104.665 70.8631 104.446L70.2779 103.635L69.8225 104.525ZM69.2779 103.635C69.2779 104.01 69.4882 104.354 69.8225 104.525L70.2779 103.635L70.2779 103.635H69.2779ZM53.5352 102.585L21.2536 99.4418L21.1567 100.437L53.4383 103.58L53.5352 102.585ZM37.1324 88.1021C45.7298 88.1021 52.6998 94.7864 52.9871 103.1L53.9865 103.065C53.6801 94.1978 46.2528 87.1021 37.1324 87.1021V88.1021ZM21.6912 100.056C23.3386 93.2145 29.6167 88.1021 37.1324 88.1021V87.1021C29.1567 87.1021 22.4751 92.529 20.719 99.8224L21.6912 100.056ZM37.1324 86.1021C28.4829 86.1021 21.2517 92.1391 19.6148 100.183L20.5947 100.382C22.136 92.8085 28.9541 87.1021 37.1324 87.1021V86.1021ZM54.9963 103.635C54.9963 93.9328 46.9804 86.1021 37.1324 86.1021V87.1021C46.4471 87.1021 53.9963 94.5038 53.9963 103.635H54.9963ZM54.6683 104.375C54.8772 104.186 54.9963 103.917 54.9963 103.635H53.9963V103.635L54.6683 104.375ZM53.8994 104.63C54.1801 104.657 54.4594 104.565 54.6683 104.375L53.9963 103.635L53.9963 103.635L53.8994 104.63ZM20.4978 101.378L53.8994 104.63L53.9963 103.635L20.5947 100.382L20.4978 101.378ZM19.7905 100.977C19.9588 101.204 20.2159 101.35 20.4978 101.378L20.5947 100.382H20.5947L19.7905 100.977ZM19.6148 100.183C19.5583 100.46 19.6221 100.749 19.7905 100.977L20.5947 100.382L20.5947 100.382L19.6148 100.183Z" fill="#ED0722"/>
<path d="M77.0457 76.4353H83.2457C83.6705 76.4353 84.0184 76.8658 84.0184 77.3917V77.8162C84.0184 78.3421 83.6705 78.7726 83.2457 78.7726H71.8492C71.4244 78.7726 71.0759 78.3421 71.0759 77.8162V77.3917C71.0759 76.8658 71.4244 76.4353 71.8492 76.4353H73.9413" fill="#AA81F7"/>
<path d="M77.0457 76.4353H83.2457C83.6705 76.4353 84.0184 76.8658 84.0184 77.3917V77.8162C84.0184 78.3421 83.6705 78.7726 83.2457 78.7726H71.8492C71.4244 78.7726 71.0759 78.3421 71.0759 77.8162V77.3917C71.0759 76.8658 71.4244 76.4353 71.8492 76.4353H73.9413" stroke="#391572" stroke-linecap="round" stroke-linejoin="round"/>
<path d="M58.5937 103.43L59.0502 103.226L58.5937 103.43ZM57.9333 103.177L58.1372 103.634V103.634L57.9333 103.177ZM60.7307 108.213L60.2742 108.417L60.7307 108.213ZM60.4782 108.874L60.2742 108.417L60.2742 108.417L60.4782 108.874ZM59.8177 108.621L60.2742 108.417V108.417L59.8177 108.621ZM57.6807 103.838L58.1372 103.634L58.1372 103.634L57.6807 103.838ZM59.0502 103.226C58.825 102.722 58.2336 102.495 57.7293 102.721L58.1372 103.634V103.634L59.0502 103.226ZM61.1872 108.009L59.0502 103.226L58.1372 103.634L60.2742 108.417L61.1872 108.009ZM60.6821 109.33C61.1864 109.105 61.4125 108.513 61.1872 108.009L60.2742 108.417L60.2742 108.417L60.6821 109.33ZM59.3612 108.825C59.5865 109.329 60.1779 109.555 60.6821 109.33L60.2742 108.417H60.2742L59.3612 108.825ZM57.2242 104.042L59.3612 108.825L60.2742 108.417L58.1372 103.634L57.2242 104.042ZM57.7293 102.721C57.2251 102.946 56.9989 103.537 57.2242 104.042L58.1372 103.634L58.1372 103.634L57.7293 102.721ZM58.7681 107.707C58.2158 107.707 57.7681 108.155 57.7681 108.707H58.7681V107.707ZM61.9113 107.707H58.7681V108.707H61.9113V107.707ZM62.9113 108.707C62.9113 108.155 62.4636 107.707 61.9113 107.707V108.707H62.9113ZM61.9113 109.707C62.4636 109.707 62.9113 109.259 62.9113 108.707H61.9113V109.707ZM58.7681 109.707H61.9113V108.707H58.7681V109.707ZM57.7681 108.707C57.7681 109.259 58.2158 109.707 58.7681 109.707V108.707H57.7681Z" fill="#D6D6D6"/>
<path d="M113.712 95.3683H105.785C105.511 95.3683 105.287 95.1487 105.287 94.8804V93.9881C105.287 93.7191 105.511 93.4995 105.785 93.4995H113.712C113.986 93.4995 114.21 93.7191 114.21 93.9881V94.8804C114.21 95.1487 113.986 95.3683 113.712 95.3683Z" fill="white"/>
<path d="M105.787 94.001V93.501C105.511 93.501 105.287 93.7248 105.287 94.001H105.787ZM113.71 94.001H114.21C114.21 93.7248 113.986 93.501 113.71 93.501V94.001ZM113.71 94.8697V95.3697C113.986 95.3697 114.21 95.1459 114.21 94.8697H113.71ZM105.787 94.8697H105.287C105.287 95.1459 105.511 95.3697 105.787 95.3697V94.8697ZM105.787 94.501H113.71V93.501H105.787V94.501ZM113.21 94.001V94.8697H114.21V94.001H113.21ZM113.71 94.3697H105.787V95.3697H113.71V94.3697ZM106.287 94.8697V94.001H105.287V94.8697H106.287ZM105.785 92.501C104.978 92.501 104.287 93.1492 104.287 93.9895H105.287C105.287 93.7219 105.51 93.501 105.785 93.501V92.501ZM113.712 92.501H105.785V93.501H113.712V92.501ZM115.21 93.9895C115.21 93.1492 114.519 92.501 113.712 92.501V93.501C113.987 93.501 114.21 93.7219 114.21 93.9895H115.21ZM115.21 94.8819V93.9895H114.21V94.8819H115.21ZM113.712 96.3697C114.518 96.3697 115.21 95.7225 115.21 94.8819H114.21C114.21 95.1488 113.987 95.3697 113.712 95.3697V96.3697ZM105.785 96.3697H113.712V95.3697H105.785V96.3697ZM104.287 94.8819C104.287 95.7225 104.979 96.3697 105.785 96.3697V95.3697C105.51 95.3697 105.287 95.1488 105.287 94.8819H104.287ZM104.287 93.9895V94.8819H105.287V93.9895H104.287ZM110.748 95.369C110.748 94.8167 110.3 94.369 109.748 94.369V95.369H110.748ZM110.748 97.7003V95.369H109.748V97.7003H110.748ZM109.748 98.7003C110.3 98.7003 110.748 98.2525 110.748 97.7003H109.748V98.7003ZM108.748 97.7003C108.748 98.2525 109.196 98.7003 109.748 98.7003V97.7003H108.748ZM108.748 95.369V97.7003H109.748V95.369H108.748ZM109.748 94.369C109.196 94.369 108.748 94.8167 108.748 95.369H109.748V94.369Z" fill="#391572"/>
<path d="M77.0544 118.018H96.958" stroke="#391572" stroke-width="1.5" stroke-linecap="round" stroke-linejoin="round"/>
<path d="M108.107 100.513V97.9436H111.39V117.99H108.107V102.355" fill="white"/>
<path d="M108.107 100.513V97.9436H111.39V117.99H108.107V102.355" stroke="#83291B" stroke-linecap="round" stroke-linejoin="round"/>
<path d="M97.0756 113.855L96.8323 114.292L96.8325 114.292L97.0756 113.855ZM93.6695 112.808L93.653 112.308L93.6529 112.308L93.6695 112.808ZM99.9886 115.774L99.683 116.17L99.6831 116.17L99.9886 115.774ZM99.9889 115.775L100.295 115.379L100.294 115.379L99.9889 115.775ZM101.374 116.712L101.153 117.161L101.374 116.712ZM102.651 116.918L102.779 117.402L102.78 117.401L102.651 116.918ZM102.651 116.918L102.523 116.435L102.523 116.435L102.651 116.918ZM103.788 116.027L103.398 115.714L103.398 115.714L103.788 116.027ZM104.042 115.7L104.439 116.003V116.003L104.042 115.7ZM105.067 114.545L105.387 114.929L105.387 114.929L105.067 114.545ZM105.067 114.545L104.746 114.161L104.746 114.161L105.067 114.545ZM107.93 113.798L108.021 113.307V113.307L107.93 113.798ZM108.331 114.381L107.84 114.29V114.29L108.331 114.381ZM107.749 114.782L107.84 114.29L107.749 114.782ZM105.708 115.313L105.387 114.929L105.387 114.929L105.708 115.313ZM104.893 116.236L105.29 116.539L105.29 116.539L104.893 116.236ZM104.567 116.654L104.178 116.341V116.341L104.567 116.654ZM102.907 117.885L102.666 118.323C102.779 118.385 102.911 118.401 103.035 118.368L102.907 117.885ZM92.8417 114.023L93.106 114.447L93.106 114.447L92.8417 114.023ZM93.7026 113.807L93.7193 114.307C93.9952 114.298 94.2114 114.067 94.2023 113.791L93.7026 113.807ZM92.3974 114.662L91.9152 114.53V114.53L92.3974 114.662ZM91.7831 115.012L91.651 115.494L91.7831 115.012ZM91.4329 114.398L90.9507 114.265L91.4329 114.398ZM92.3131 113.174L92.5774 113.598V113.598L92.3131 113.174ZM93.6692 112.808L93.6526 112.308L93.6524 112.308L93.6692 112.808ZM93.7026 113.807L93.6862 113.308C93.4532 113.315 93.2564 113.483 93.2118 113.712C93.1673 113.941 93.2869 114.17 93.5001 114.265L93.7026 113.807ZM96.5891 114.729L96.3457 115.166L96.3459 115.166L96.5891 114.729ZM96.5894 114.729L96.3462 115.166L96.3463 115.166L96.5894 114.729ZM99.3774 116.566L99.6833 116.17L99.683 116.17L99.3774 116.566ZM99.3914 116.577L99.6973 116.181L99.6973 116.181L99.3914 116.577ZM100.931 117.609L101.153 117.161L100.931 117.609ZM102.907 117.885L103.035 118.368C103.24 118.314 103.389 118.136 103.406 117.924C103.422 117.713 103.304 117.514 103.11 117.428L102.907 117.885ZM105.52 117.088C104.968 117.088 104.52 117.536 104.52 118.088H105.52V117.088ZM113.978 117.088H105.52V118.088H113.978V117.088ZM114.978 118.088C114.978 117.536 114.53 117.088 113.978 117.088V118.088H114.978ZM113.978 119.088C114.53 119.088 114.978 118.641 114.978 118.088H113.978V119.088ZM105.52 119.088H113.978V118.088H105.52V119.088ZM104.52 118.088C104.52 118.641 104.968 119.088 105.52 119.088V118.088H104.52ZM97.319 113.418C96.3281 112.866 95.0601 112.262 93.653 112.308L93.6859 113.308C94.8011 113.271 95.8624 113.752 96.8323 114.292L97.319 113.418ZM100.294 115.379C99.3539 114.653 98.359 113.997 97.3188 113.418L96.8325 114.292C97.8292 114.847 98.7823 115.475 99.683 116.17L100.294 115.379ZM100.294 115.379L100.294 115.379L99.6831 116.17L99.6834 116.171L100.294 115.379ZM101.595 116.264C101.181 116.059 100.766 115.743 100.295 115.379L99.683 116.17C100.137 116.522 100.632 116.904 101.153 117.161L101.595 116.264ZM102.523 116.435C102.285 116.498 101.996 116.462 101.595 116.264L101.153 117.161C101.674 117.418 102.22 117.55 102.779 117.402L102.523 116.435ZM102.523 116.435L102.523 116.435L102.78 117.401L102.78 117.401L102.523 116.435ZM103.398 115.714C103.034 116.167 102.788 116.365 102.523 116.435L102.779 117.402C103.373 117.244 103.791 116.821 104.178 116.341L103.398 115.714ZM103.644 115.397C103.555 115.514 103.474 115.62 103.398 115.714L104.178 116.341C104.263 116.235 104.351 116.118 104.439 116.003L103.644 115.397ZM104.746 114.162C104.298 114.536 103.929 115.024 103.644 115.397L104.439 116.003C104.737 115.614 105.041 115.219 105.387 114.929L104.746 114.162ZM104.746 114.161L104.746 114.162L105.387 114.929L105.388 114.929L104.746 114.161ZM108.021 113.307C106.871 113.094 105.643 113.413 104.746 114.161L105.387 114.929C106.053 114.373 106.98 114.131 107.84 114.29L108.021 113.307ZM108.823 114.472C108.923 113.929 108.564 113.407 108.021 113.307L107.84 114.29L107.84 114.29L108.823 114.472ZM107.658 115.273C108.201 115.374 108.723 115.015 108.823 114.472L107.84 114.29V114.29L107.658 115.273ZM106.028 115.696C106.464 115.333 107.088 115.168 107.658 115.273L107.84 114.29C106.98 114.131 106.053 114.373 105.387 114.929L106.028 115.696ZM105.29 116.539C105.57 116.173 105.775 115.908 106.029 115.696L105.387 114.929C105.033 115.225 104.762 115.584 104.496 115.932L105.29 116.539ZM104.957 116.967C105.078 116.816 105.189 116.672 105.29 116.539L104.496 115.932C104.393 116.066 104.29 116.201 104.178 116.341L104.957 116.967ZM103.035 118.368C103.958 118.124 104.548 117.477 104.957 116.967L104.178 116.341C103.791 116.821 103.373 117.244 102.779 117.402L103.035 118.368ZM103.148 117.447L93.9103 112.37L93.4286 113.246L102.666 118.323L103.148 117.447ZM93.106 114.447C93.2134 114.38 93.4037 114.318 93.7193 114.307L93.6858 113.308C93.2674 113.322 92.8852 113.407 92.5774 113.598L93.106 114.447ZM92.8796 114.794C92.9382 114.58 93.025 114.498 93.106 114.447L92.5774 113.598C92.2697 113.79 92.0361 114.088 91.9152 114.53L92.8796 114.794ZM91.651 115.494C92.1836 115.64 92.7337 115.327 92.8796 114.794L91.9152 114.53L91.651 115.494ZM90.9507 114.265C90.8048 114.798 91.1183 115.348 91.651 115.494L91.9152 114.53L90.9507 114.265ZM92.0488 112.749C91.5138 113.083 91.1337 113.597 90.9507 114.265L91.9152 114.53C92.036 114.088 92.2696 113.79 92.5774 113.598L92.0488 112.749ZM93.6524 112.308C93.1315 112.326 92.5573 112.433 92.0488 112.749L92.5774 113.598C92.8853 113.407 93.2675 113.322 93.6859 113.308L93.6524 112.308ZM93.6529 112.308L93.6526 112.308L93.6857 113.308L93.686 113.308L93.6529 112.308ZM93.1697 112.824L93.2028 113.824L94.2023 113.791L94.1692 112.791L93.1697 112.824ZM93.719 114.307C94.5418 114.28 95.396 114.636 96.3457 115.166L96.8325 114.292C95.8628 113.752 94.8014 113.271 93.6862 113.308L93.719 114.307ZM96.3459 115.166L96.3462 115.166L96.8326 114.292L96.8323 114.292L96.3459 115.166ZM96.3463 115.166C97.2994 115.696 98.2107 116.297 99.0718 116.962L99.683 116.17C98.7823 115.475 97.8292 114.847 96.8325 114.292L96.3463 115.166ZM99.0715 116.961L99.0855 116.972L99.6973 116.181L99.6833 116.17L99.0715 116.961ZM99.0855 116.972C99.5226 117.31 100.09 117.752 100.71 118.058L101.153 117.161C100.638 116.907 100.148 116.53 99.6973 116.181L99.0855 116.972ZM100.71 118.058C101.349 118.373 102.155 118.602 103.035 118.368L102.779 117.402C102.22 117.55 101.674 117.418 101.153 117.161L100.71 118.058ZM103.11 117.428L93.9052 113.35L93.5001 114.265L102.705 118.342L103.11 117.428Z" fill="#83291B"/>
<path d="M92.9155 114.53C92.9155 113.978 92.4678 113.53 91.9155 113.53V114.53H92.9155ZM92.9155 115.748V114.53H91.9155V115.748H92.9155ZM91.9155 116.748C92.4678 116.748 92.9155 116.3 92.9155 115.748H91.9155V116.748ZM90.9155 115.748C90.9155 116.3 91.3632 116.748 91.9155 116.748V115.748H90.9155ZM90.9155 114.53V115.748H91.9155V114.53H90.9155ZM91.9155 113.53C91.3632 113.53 90.9155 113.978 90.9155 114.53H91.9155V113.53ZM91.3829 113.53C90.8306 113.53 90.3829 113.978 90.3829 114.53H91.3829V113.53ZM92.6254 113.53H91.3829V114.53H92.6254V113.53ZM93.6254 114.53C93.6254 113.978 93.1777 113.53 92.6254 113.53V114.53H93.6254ZM92.6254 115.53C93.1777 115.53 93.6254 115.082 93.6254 114.53H92.6254V115.53ZM91.3829 115.53H92.6254V114.53H91.3829V115.53ZM90.3829 114.53C90.3829 115.082 90.8306 115.53 91.3829 115.53V114.53H90.3829Z" fill="#ED0722"/>
<path d="M80.945 41.9862L80.814 41.5037L80.7804 41.5128L80.7483 41.5265L80.945 41.9862ZM81.3016 41.3949L81.7896 41.286V41.286L81.3016 41.3949ZM80.7047 41.0158L80.5959 40.5278L80.1078 40.6366L80.2167 41.1246L80.7047 41.0158ZM80.704 41.0159L80.5947 40.528L80.5941 40.5282L80.704 41.0159ZM80.7033 41.0161L80.5934 40.5283L80.5923 40.5286L80.7033 41.0161ZM80.7018 41.0164L80.5909 40.5289L80.5887 40.5294L80.7018 41.0164ZM80.6987 41.0171L80.5856 40.5301L80.5813 40.5311L80.6987 41.0171ZM80.6917 41.0188L80.5743 40.5327L80.5653 40.5351L80.6917 41.0188ZM80.675 41.0232L80.5486 40.5394L80.5428 40.541L80.675 41.0232ZM80.6314 41.0364L80.7892 41.5109L80.6314 41.0364ZM80.509 41.0861L80.2933 40.635V40.635L80.509 41.0861ZM80.1778 41.3204L79.8263 40.9648L80.1778 41.3204ZM80.699 43.7855L80.897 43.3264V43.3264L80.699 43.7855ZM81.243 43.9547L81.3451 43.4653L81.3451 43.4653L81.243 43.9547ZM81.4211 43.9864L81.3493 44.4812L81.3493 44.4812L81.4211 43.9864ZM81.4748 43.9935L81.4155 44.49L81.4181 44.4903L81.4748 43.9935ZM81.4914 43.9954L81.4347 44.4922L81.439 44.4926L81.4914 43.9954ZM81.4969 43.996L81.4445 44.4932L81.4465 44.4934L81.4969 43.996ZM81.4989 43.9962L81.4485 44.4936L81.4495 44.4937L81.4989 43.9962ZM81.4997 43.9963L81.4503 44.4938L81.4507 44.4939L81.4997 43.9963ZM81.5001 43.9963L81.4511 44.4939L81.4515 44.4939L81.5001 43.9963ZM81.5004 43.9963L81.0028 43.9479L80.9544 44.4456L81.452 44.494L81.5004 43.9963ZM81.5246 43.9987L81.4762 44.4963L81.5003 44.4987H81.5246V43.9987ZM81.5787 42.9987L81.512 43.4942L81.5452 43.4987H81.5787V42.9987ZM81.5646 42.9967L81.6363 42.5019L81.6363 42.5019L81.5646 42.9967ZM81.4472 42.9758L81.5493 42.4863V42.4863L81.4472 42.9758ZM81.095 42.8673L80.897 43.3264L81.095 42.8673ZM80.8809 42.0315L81.2324 42.3871V42.3871L80.8809 42.0315ZM80.9405 41.9883L81.1562 42.4393V42.4393L80.9405 41.9883ZM81.5988 43.0012L81.5497 43.4988L81.6479 42.5036L81.5988 43.0012ZM81.5975 43.0011L81.6465 42.5035L81.5484 43.4986L81.5975 43.0011ZM81.5983 43.0011L81.549 43.4987L81.5492 43.4987L81.5983 43.0011ZM81.5978 43.0011L81.6472 42.5035L81.6468 42.5035L81.5978 43.0011ZM29.4224 63.8341L29.2913 63.3516L29.2576 63.3608L29.2256 63.3745L29.4224 63.8341ZM29.7789 63.2429L30.2669 63.134L29.7789 63.2429ZM29.1821 62.8637L29.0732 62.3757L28.5852 62.4846L28.6941 62.9726L29.1821 62.8637ZM29.1814 62.8639L29.072 62.376L29.0715 62.3761L29.1814 62.8639ZM29.1807 62.864L29.0707 62.3763L29.0697 62.3765L29.1807 62.864ZM29.1792 62.8644L29.0682 62.3768L29.0661 62.3773L29.1792 62.8644ZM29.176 62.8651L29.0629 62.378L29.0586 62.3791L29.176 62.8651ZM29.169 62.8668L29.0516 62.3807L29.0426 62.383L29.169 62.8668ZM29.1524 62.8712L29.0259 62.3874L29.0202 62.389L29.1524 62.8712ZM29.1087 62.8844L29.2665 63.3589H29.2665L29.1087 62.8844ZM28.9863 62.9341L29.2021 63.3852L28.9863 62.9341ZM28.6551 63.1685L29.0067 63.524H29.0067L28.6551 63.1685ZM29.176 65.6336L28.978 66.0927H28.978L29.176 65.6336ZM29.7198 65.8027L29.8219 65.3132H29.8219L29.7198 65.8027ZM29.8978 65.8343L29.826 66.3291L29.826 66.3291L29.8978 65.8343ZM29.9515 65.8415L29.8921 66.3379L29.8948 66.3382L29.9515 65.8415ZM29.968 65.8434L29.9113 66.3401L29.9156 66.3406L29.968 65.8434ZM29.9735 65.8439L29.9211 66.3412L29.9231 66.3414L29.9735 65.8439ZM29.9755 65.8441L29.9251 66.3416L29.9261 66.3417L29.9755 65.8441ZM29.9764 65.8442L29.927 66.3418L29.9277 66.3418L29.9764 65.8442ZM29.9767 65.8443L29.928 66.3419L29.9282 66.3419L29.9767 65.8443ZM29.9771 65.8443L29.4794 65.7959L29.431 66.2935L29.9286 66.3419L29.9771 65.8443ZM30.0012 65.8466L29.9528 66.3443L29.977 66.3466H30.0012V65.8466ZM30.0554 64.8466L29.9886 65.3422L30.0219 65.3466H30.0554V64.8466ZM30.0413 64.8447L29.9695 65.3395H29.9695L30.0413 64.8447ZM29.924 64.8238L30.0261 64.3343H30.0261L29.924 64.8238ZM29.572 64.7153L29.374 65.1744L29.572 64.7153ZM29.3583 63.8795L29.0067 63.524H29.0067L29.3583 63.8795ZM29.4179 63.8362L29.2021 63.3852H29.2021L29.4179 63.8362ZM30.0755 64.8491L30.1292 64.352L30.1247 64.3516L30.0755 64.8491ZM30.0742 64.849L30.1232 64.3514L30.0251 65.3466L30.0742 64.849ZM30.075 64.8491L30.0255 65.3466L30.026 65.3467L30.075 64.8491ZM30.0745 64.8491L30.124 64.3515L30.1235 64.3514L30.0745 64.8491ZM30.0756 64.8492L30.019 65.346L30.0246 65.3465L30.0756 64.8492ZM30.0758 64.8492L30.0248 65.3466L30.1277 64.3519L30.0758 64.8492ZM83.3204 44.5893C82.7681 44.5893 82.3204 45.037 82.3204 45.5893H83.3204V44.5893ZM89.6096 44.5893H83.3204V45.5893H89.6096V44.5893ZM90.6096 45.5893C90.6096 45.037 90.1618 44.5893 89.6096 44.5893V45.5893H90.6096ZM89.6096 46.5893C90.1618 46.5893 90.6096 46.1416 90.6096 45.5893H89.6096V46.5893ZM83.3204 46.5893H89.6096V45.5893H83.3204V46.5893ZM82.3204 45.5893C82.3204 46.1416 82.7681 46.5893 83.3204 46.5893V45.5893H82.3204ZM81.076 42.4687C81.5891 42.3294 81.9065 41.81 81.7896 41.286L80.8136 41.5038L80.814 41.5037L81.076 42.4687ZM81.7896 41.286C81.6693 40.747 81.1349 40.4075 80.5959 40.5278L80.8136 41.5038V41.5038L81.7896 41.286ZM80.2167 41.1246L80.3244 41.6073L81.3004 41.3896L81.1927 40.9069L80.2167 41.1246ZM81.3004 41.3896C81.2466 41.1483 81.2194 41.0271 81.2057 40.9662C81.199 40.9363 81.1951 40.9192 81.1927 40.9092C81.1921 40.9066 81.1898 40.8964 81.1869 40.8858C81.186 40.8825 81.1842 40.876 81.1817 40.8679C81.18 40.8624 81.174 40.8434 81.1641 40.82C81.1639 40.8195 81.1268 40.7202 81.0305 40.6372C80.9638 40.5798 80.8705 40.5305 80.7557 40.5186C80.7052 40.5133 80.6633 40.5168 80.6359 40.5206C80.6224 40.5224 80.6115 40.5245 80.6049 40.5258C80.6024 40.5264 80.5985 40.5272 80.5972 40.5275C80.5959 40.5277 80.5947 40.528 80.5947 40.528L80.8134 41.5038C80.8245 41.5013 80.7461 41.523 80.6523 41.5132C80.5376 41.5013 80.4442 41.4521 80.3776 41.3947C80.321 41.3458 80.2888 41.2958 80.2748 41.2724C80.2591 41.2461 80.2491 41.2238 80.2441 41.212C80.2342 41.1888 80.2284 41.1699 80.2267 41.1647C80.2243 41.1569 80.2226 41.1507 80.2218 41.1479C80.2195 41.1391 80.218 41.1327 80.2192 41.1376C80.2204 41.1427 80.2233 41.1556 80.2302 41.1861C80.2436 41.2458 80.2705 41.3659 80.3244 41.6073L81.3004 41.3896ZM80.5941 40.5282L80.5934 40.5283L80.8132 41.5039L80.8139 41.5037L80.5941 40.5282ZM80.5923 40.5286L80.5909 40.5289L80.8128 41.504L80.8143 41.5036L80.5923 40.5286ZM80.5887 40.5294L80.5856 40.5301L80.8118 41.5042L80.8149 41.5035L80.5887 40.5294ZM80.5813 40.5311L80.5743 40.5328L80.8091 41.5049L80.8161 41.5032L80.5813 40.5311ZM80.5653 40.5351L80.5486 40.5394L80.8014 41.507L80.8181 41.5026L80.5653 40.5351ZM80.5428 40.541C80.5224 40.5466 80.4992 40.5535 80.4737 40.562L80.7892 41.5109C80.7969 41.5083 80.803 41.5065 80.8072 41.5054L80.5428 40.541ZM80.4737 40.562C80.4228 40.5789 80.3614 40.6025 80.2933 40.635L80.7248 41.5372C80.7514 41.5244 80.7736 41.5161 80.7892 41.5109L80.4737 40.562ZM80.2933 40.635C80.1574 40.7 79.9896 40.8034 79.8263 40.9648L80.5293 41.676C80.6004 41.6057 80.6714 41.5627 80.7248 41.5372L80.2933 40.635ZM79.8263 40.9648C79.4762 41.311 79.2451 41.825 79.2451 42.5009H80.2451C80.2451 42.0655 80.3874 41.8163 80.5293 41.676L79.8263 40.9648ZM79.2451 42.5009C79.2451 43.5575 80.0684 44.0581 80.5009 44.2446L80.897 43.3264C80.5663 43.1838 80.2451 42.9333 80.2451 42.5009H79.2451ZM80.5009 44.2446C80.7449 44.3499 80.9772 44.41 81.1409 44.4442L81.3451 43.4653C81.2229 43.4398 81.06 43.3967 80.897 43.3264L80.5009 44.2446ZM81.1409 44.4442C81.2249 44.4617 81.2963 44.4735 81.3493 44.4812L81.4928 43.4915C81.4572 43.4864 81.4062 43.478 81.3451 43.4653L81.1409 44.4442ZM81.3493 44.4812C81.3759 44.485 81.3982 44.4879 81.4155 44.49L81.5342 43.497C81.5246 43.4959 81.5106 43.4941 81.4928 43.4915L81.3493 44.4812ZM81.4181 44.4903L81.4347 44.4922L81.5481 43.4986L81.5315 43.4967L81.4181 44.4903ZM81.439 44.4926L81.4445 44.4932L81.5493 43.4987L81.5438 43.4982L81.439 44.4926ZM81.4465 44.4934L81.4485 44.4936L81.5493 43.4987L81.5473 43.4985L81.4465 44.4934ZM81.4495 44.4937L81.4503 44.4938L81.5491 43.4987L81.5483 43.4986L81.4495 44.4937ZM81.4507 44.4939L81.4511 44.4939L81.5491 43.4987L81.5487 43.4987L81.4507 44.4939ZM81.4515 44.4939C81.4515 44.4939 81.4543 44.4942 81.4571 44.4944C81.4598 44.4947 81.4681 44.4953 81.4737 44.4956C81.488 44.4964 81.511 44.497 81.5393 44.4948C81.6014 44.4899 81.6753 44.4723 81.7489 44.43C81.884 44.3525 81.9392 44.238 81.9536 44.2068C81.9726 44.1659 81.9816 44.1316 81.9844 44.1206C81.9882 44.1057 81.9906 44.0937 81.9917 44.0877C81.9939 44.0757 81.9952 44.0662 81.9956 44.0634C81.9961 44.0594 81.9965 44.0562 81.9967 44.0544C81.9974 44.0488 81.998 44.0428 81.9984 44.0395C81.9993 44.0305 82.0009 44.014 82.004 43.983C82.0101 43.9205 82.0223 43.7959 82.0465 43.5471L81.0512 43.4503C81.027 43.6991 81.0149 43.8233 81.0088 43.8852C81.0057 43.9164 81.0042 43.931 81.0036 43.9376C81.0031 43.942 81.0033 43.94 81.0037 43.9362C81.0039 43.935 81.0042 43.9321 81.0048 43.9283C81.0051 43.9259 81.0064 43.9166 81.0086 43.9047C81.0097 43.8987 81.012 43.8868 81.0158 43.8719C81.0187 43.8609 81.0276 43.8267 81.0466 43.7858C81.0611 43.7546 81.1162 43.6401 81.2513 43.5626C81.4051 43.4743 81.5572 43.4995 81.5486 43.4987L81.4515 44.4939ZM81.0512 43.4503L81.0028 43.9479L81.9981 44.0447L82.0465 43.5471L81.0512 43.4503ZM81.452 44.494L81.4762 44.4963L81.573 43.501L81.5488 43.4987L81.452 44.494ZM81.5246 44.4987H81.5488V43.4987H81.5246V44.4987ZM81.5488 44.4987H87.838V43.4987H81.5488V44.4987ZM87.838 44.4987C88.3903 44.4987 88.838 44.051 88.838 43.4987H87.838V44.4987ZM88.838 43.4987C88.838 42.9464 88.3903 42.4987 87.838 42.4987V43.4987H88.838ZM87.838 42.4987H81.5787V43.4987H87.838V42.4987ZM81.6454 42.5032C81.6429 42.5028 81.6398 42.5024 81.6363 42.5019L81.4928 43.4915C81.4998 43.4925 81.5062 43.4934 81.512 43.4942L81.6454 42.5032ZM81.6363 42.5019C81.618 42.4992 81.5875 42.4943 81.5493 42.4863L81.3451 43.4653C81.4062 43.478 81.4572 43.4864 81.4928 43.4915L81.6363 42.5019ZM81.5493 42.4863C81.4686 42.4695 81.375 42.4435 81.293 42.4082L80.897 43.3264C81.06 43.3967 81.2229 43.4398 81.3451 43.4653L81.5493 42.4863ZM81.293 42.4082C81.2459 42.3879 81.2172 42.3715 81.2012 42.361C81.1854 42.3506 81.1863 42.3486 81.1946 42.3581C81.204 42.3688 81.2186 42.3893 81.23 42.4196C81.2414 42.45 81.2451 42.4787 81.2451 42.5009H80.2451C80.2451 42.6845 80.3085 42.8644 80.4428 43.0175C80.5643 43.1561 80.7261 43.2527 80.897 43.3264L81.293 42.4082ZM81.2451 42.5009C81.2451 42.3952 81.2614 42.3518 81.2632 42.3472C81.2642 42.3449 81.2625 42.3497 81.256 42.3591C81.2492 42.3691 81.2407 42.3789 81.2324 42.3871L80.5293 41.676C80.3877 41.816 80.2451 42.0651 80.2451 42.5009H81.2451ZM81.2324 42.3871C81.2113 42.4079 81.1857 42.4252 81.1562 42.4393L80.7248 41.5372C80.6713 41.5627 80.6003 41.6058 80.5293 41.676L81.2324 42.3871ZM81.1562 42.4393C81.1515 42.4416 81.1466 42.4438 81.1416 42.4459L80.7483 41.5265C80.741 41.5296 80.7331 41.5332 80.7248 41.5372L81.1562 42.4393ZM81.6479 42.5036L81.6467 42.5035L81.5484 43.4986L81.5497 43.4988L81.6479 42.5036ZM81.5492 43.4987L81.5497 43.4988L81.6479 42.5036L81.6474 42.5036L81.5492 43.4987ZM81.5485 43.4987L81.549 43.4987L81.6476 42.5036L81.6472 42.5035L81.5485 43.4987ZM81.5486 43.4987L81.5489 43.4987L81.6468 42.5035L81.6465 42.5035L81.5486 43.4987ZM31.797 66.4383C31.2447 66.4383 30.797 66.886 30.797 67.4383H31.797V66.4383ZM38.0861 66.4383H31.797V67.4383H38.0861V66.4383ZM39.0861 67.4383C39.0861 66.886 38.6384 66.4383 38.0861 66.4383V67.4383H39.0861ZM38.0861 68.4383C38.6384 68.4383 39.0861 67.9906 39.0861 67.4383H38.0861V68.4383ZM31.797 68.4383H38.0861V67.4383H31.797V68.4383ZM30.797 67.4383C30.797 67.9906 31.2447 68.4383 31.797 68.4383V67.4383H30.797ZM29.5535 64.3167C30.0665 64.1773 30.3838 63.658 30.2669 63.134L29.2909 63.3517L29.2913 63.3516L29.5535 64.3167ZM30.2669 63.134C30.1467 62.595 29.6122 62.2555 29.0732 62.3757L29.2909 63.3517H29.2909L30.2669 63.134ZM28.6941 62.9726L28.8017 63.4553L29.7777 63.2375L29.6701 62.7549L28.6941 62.9726ZM29.7777 63.2375C29.7239 62.9963 29.6968 62.8751 29.6831 62.8142C29.6763 62.7843 29.6724 62.7672 29.6701 62.7572C29.6695 62.7545 29.6671 62.7444 29.6642 62.7337C29.6633 62.7304 29.6615 62.7239 29.659 62.7159C29.6573 62.7103 29.6514 62.6913 29.6414 62.6679C29.6412 62.6674 29.6041 62.568 29.5077 62.485C29.441 62.4276 29.3476 62.3784 29.233 62.3665C29.1824 62.3613 29.1406 62.3648 29.1132 62.3686C29.0997 62.3704 29.0889 62.3725 29.0823 62.3738C29.0797 62.3743 29.0759 62.3751 29.0746 62.3754C29.0733 62.3757 29.072 62.376 29.072 62.376L29.2907 63.3518C29.3018 63.3493 29.2235 63.3709 29.1298 63.3612C29.0151 63.3493 28.9218 63.3002 28.8551 63.2427C28.7984 63.1939 28.7662 63.1438 28.7522 63.1204C28.7365 63.0941 28.7265 63.0718 28.7215 63.06C28.7116 63.0368 28.7057 63.0179 28.7041 63.0126C28.7017 63.0049 28.7 62.9987 28.6992 62.9959C28.6968 62.9871 28.6954 62.9807 28.6965 62.9855C28.6977 62.9906 28.7007 63.0036 28.7075 63.034C28.721 63.0937 28.7479 63.2139 28.8017 63.4553L29.7777 63.2375ZM29.0715 62.3761L29.0707 62.3763L29.2906 63.3518L29.2913 63.3516L29.0715 62.3761ZM29.0697 62.3765L29.0682 62.3768L29.2901 63.3519L29.2916 63.3516L29.0697 62.3765ZM29.0661 62.3773L29.0629 62.3781L29.2891 63.3522L29.2923 63.3514L29.0661 62.3773ZM29.0586 62.3791L29.0516 62.3808L29.2865 63.3528L29.2935 63.3511L29.0586 62.3791ZM29.0426 62.383L29.026 62.3874L29.2788 63.3549L29.2954 63.3506L29.0426 62.383ZM29.0202 62.389C28.9997 62.3946 28.9765 62.4015 28.951 62.41L29.2665 63.3589C29.2743 63.3563 29.2804 63.3545 29.2845 63.3534L29.0202 62.389ZM28.951 62.41C28.9 62.4269 28.8386 62.4505 28.7705 62.4831L29.2021 63.3852C29.2288 63.3724 29.251 63.364 29.2665 63.3589L28.951 62.41ZM28.7705 62.4831C28.6345 62.5481 28.4668 62.6515 28.3035 62.8131L29.0067 63.524C29.0777 63.4537 29.1488 63.4107 29.2021 63.3852L28.7705 62.4831ZM28.3035 62.8131C27.9533 63.1594 27.7225 63.6735 27.7225 64.3495H28.7225C28.7225 63.9138 28.8648 63.6644 29.0067 63.524L28.3035 62.8131ZM27.7225 64.3495C27.7225 65.4059 28.5458 65.9063 28.978 66.0927L29.374 65.1744C29.0435 65.0319 28.7225 64.7815 28.7225 64.3495H27.7225ZM28.978 66.0927C29.2218 66.1979 29.454 66.258 29.6177 66.2922L29.8219 65.3132C29.6998 65.2877 29.5369 65.2447 29.374 65.1744L28.978 66.0927ZM29.6177 66.2922C29.7016 66.3097 29.773 66.3215 29.826 66.3291L29.9695 65.3395C29.9339 65.3343 29.883 65.326 29.8219 65.3132L29.6177 66.2922ZM29.826 66.3291C29.8526 66.333 29.8749 66.3359 29.8921 66.3379L30.0109 65.345C30.0013 65.3439 29.9873 65.3421 29.9695 65.3395L29.826 66.3291ZM29.8948 66.3382L29.9113 66.3401L30.0248 65.3466L30.0082 65.3447L29.8948 66.3382ZM29.9156 66.3406L29.9211 66.3412L30.026 65.3467L30.0205 65.3461L29.9156 66.3406ZM29.9231 66.3414L29.9251 66.3416L30.026 65.3467L30.024 65.3465L29.9231 66.3414ZM29.9261 66.3417L29.927 66.3418L30.0258 65.3467L30.025 65.3466L29.9261 66.3417ZM29.9277 66.3418L29.928 66.3419L30.0254 65.3466L30.0251 65.3466L29.9277 66.3418ZM29.9282 66.3419C29.9282 66.3419 29.931 66.3422 29.9337 66.3424C29.9365 66.3426 29.9448 66.3432 29.9503 66.3436C29.9646 66.3443 29.9877 66.3449 30.016 66.3427C30.0781 66.3378 30.1519 66.3202 30.2256 66.2779C30.3607 66.2004 30.4158 66.086 30.4303 66.0548C30.4493 66.0138 30.4582 65.9796 30.461 65.9686C30.4649 65.9537 30.4672 65.9417 30.4683 65.9357C30.4706 65.9237 30.4719 65.9142 30.4722 65.9114C30.4728 65.9074 30.4732 65.9042 30.4734 65.9024C30.4741 65.8967 30.4747 65.8908 30.475 65.8875C30.4759 65.8785 30.4776 65.862 30.4806 65.831C30.4868 65.7685 30.4989 65.6439 30.5232 65.3951L29.5279 65.2982C29.5036 65.5471 29.4915 65.6712 29.4854 65.7331C29.4824 65.7644 29.4809 65.7789 29.4802 65.7855C29.4798 65.7899 29.48 65.7879 29.4804 65.7842C29.4806 65.7829 29.4809 65.78 29.4814 65.7763C29.4817 65.7738 29.483 65.7645 29.4852 65.7526C29.4863 65.7467 29.4887 65.7347 29.4925 65.7198C29.4953 65.7088 29.5042 65.6746 29.5232 65.6337C29.5377 65.6025 29.5928 65.4881 29.7279 65.4106C29.8818 65.3223 30.0338 65.3475 30.0253 65.3466L29.9282 66.3419ZM29.5279 65.2982L29.4794 65.7959L30.4747 65.8927L30.5232 65.3951L29.5279 65.2982ZM29.9286 66.3419L29.9528 66.3443L30.0497 65.349L30.0255 65.3466L29.9286 66.3419ZM30.0012 66.3466H30.0255V65.3466H30.0012V66.3466ZM30.0255 66.3466H36.3146V65.3466H30.0255V66.3466ZM36.3146 66.3466C36.8669 66.3466 37.3146 65.8989 37.3146 65.3466H36.3146V66.3466ZM37.3146 65.3466C37.3146 64.7944 36.8669 64.3466 36.3146 64.3466V65.3466H37.3146ZM36.3146 64.3466H30.0554V65.3466H36.3146V64.3466ZM30.1221 64.3511C30.1196 64.3508 30.1166 64.3504 30.113 64.3498L29.9695 65.3395C29.9765 65.3405 29.9829 65.3414 29.9886 65.3422L30.1221 64.3511ZM30.113 64.3498C30.0947 64.3472 30.0643 64.3423 30.0261 64.3343L29.8219 65.3132C29.883 65.326 29.9339 65.3343 29.9695 65.3395L30.113 64.3498ZM30.0261 64.3343C29.9454 64.3175 29.8519 64.2915 29.77 64.2562L29.374 65.1744C29.5369 65.2447 29.6998 65.2878 29.8219 65.3132L30.0261 64.3343ZM29.77 64.2562C29.7229 64.2359 29.6942 64.2196 29.6783 64.2091C29.6625 64.1987 29.6634 64.1968 29.6718 64.2063C29.6812 64.217 29.6959 64.2376 29.7073 64.268C29.7187 64.2984 29.7225 64.3272 29.7225 64.3495H28.7225C28.7225 64.5329 28.7858 64.7127 28.92 64.8657C29.0415 65.0042 29.2032 65.1008 29.374 65.1744L29.77 64.2562ZM29.7225 64.3495C29.7225 64.2436 29.7388 64.1999 29.7407 64.1953C29.7416 64.1929 29.74 64.1976 29.7336 64.207C29.7268 64.2169 29.7183 64.2267 29.7099 64.235L29.0067 63.524C28.865 63.6641 28.7225 63.9133 28.7225 64.3495H29.7225ZM29.7099 64.235C29.6889 64.2558 29.6633 64.2731 29.6337 64.2872L29.2021 63.3852C29.1487 63.4107 29.0777 63.4538 29.0067 63.524L29.7099 64.235ZM29.6337 64.2872C29.629 64.2895 29.6242 64.2917 29.6192 64.2938L29.2256 63.3745C29.2183 63.3776 29.2104 63.3812 29.2021 63.3852L29.6337 64.2872ZM30.1247 64.3516L30.1234 64.3514L30.0251 65.3466L30.0263 65.3467L30.1247 64.3516ZM30.026 65.3467L30.0265 65.3467L30.1245 64.3516L30.124 64.3515L30.026 65.3467ZM30.0251 65.3466L30.0255 65.3466L30.1245 64.3516L30.124 64.3515L30.0251 65.3466ZM30.0253 65.3466L30.0256 65.3467L30.1235 64.3514L30.1232 64.3514L30.0253 65.3466ZM30.0189 65.3459L30.019 65.3459L30.1322 64.3524L30.1321 64.3524L30.0189 65.3459ZM30.0246 65.3465L30.0248 65.3466L30.1268 64.3518L30.1266 64.3518L30.0246 65.3465ZM30.1277 64.3519C30.1284 64.352 30.1289 64.352 30.1292 64.352L30.0218 65.3463C30.0225 65.3463 30.0231 65.3464 30.0238 65.3465L30.1277 64.3519Z" fill="#DDE5E8"/>
<path d="M139.93 52.3021C136.682 39.2654 128.552 30.1412 120.382 31.185C114.373 31.9539 109.825 38.038 107.946 46.541C102.72 49.4629 99.5337 55.2741 100.36 61.4845C100.964 66.0242 103.588 69.8158 107.225 72.1204C108.859 83.239 119.299 91.0424 130.697 89.5848C142.188 88.1151 150.289 77.7902 148.791 66.5248C147.993 60.5307 144.625 55.497 139.93 52.3021Z" fill="white"/>
<path d="M121.592 52.9307C131.376 68.906 129.424 116.454 129.424 116.454" stroke="#E2E8EE" stroke-linecap="round"/>
<path d="M117.891 58.5327C121.573 58.5327 125.345 63.182 125.345 63.182" stroke="#DDE5E8" stroke-linecap="round"/>
<path d="M128.098 76.8674C128.098 76.8674 133.443 72.002 134.108 67.1365" stroke="#E2E8EE" stroke-linecap="round"/>
<path d="M130.298 34.1288L130.619 33.7461V33.7461L130.298 34.1288ZM120.319 30.6892L120.255 30.1932L120.254 30.1933L120.319 30.6892ZM129.654 34.8943L129.976 34.5115V34.5115L129.654 34.8943ZM120.446 31.6811L120.382 31.1851L120.382 31.1851L120.446 31.6811ZM108.434 46.6483L107.946 46.5404L108.434 46.6483ZM108.386 46.8674L108.63 47.3038L108.826 47.1943L108.874 46.9752L108.386 46.8674ZM108.19 46.9768L107.946 46.5404L108.19 46.9768ZM100.856 61.418L101.351 61.3524L101.351 61.352L100.856 61.418ZM100.856 61.418L100.36 61.4836L100.36 61.4839L100.856 61.418ZM107.493 71.6982L107.225 72.1206L107.225 72.1206L107.493 71.6982ZM107.687 71.821L108.181 71.7483L108.148 71.5214L107.954 71.3987L107.687 71.821ZM107.72 72.0479L107.225 72.1206H107.225L107.72 72.0479ZM112.451 82.2632L112.075 82.593L112.075 82.593L112.451 82.2632ZM112.405 82.9688L112.075 82.593L112.075 82.593L112.405 82.9688ZM111.699 82.9228L112.075 82.593L111.699 82.9228ZM106.765 72.4189L107.259 72.3408L107.224 72.1218L107.039 72.0004L106.765 72.4189ZM99.8645 61.5499L100.36 61.484L100.36 61.4839L99.8645 61.5499ZM107.507 46.2151L107.757 46.648L107.946 46.5388L107.994 46.326L107.507 46.2151ZM120.319 30.6892L120.382 31.1851L120.383 31.185L120.319 30.6892ZM130.298 34.1287L130.62 33.746L130.298 34.1287ZM129.593 34.1895L129.976 34.5113L129.593 34.1895ZM133.216 37.0982L133.602 36.7798L133.216 37.0982ZM133.149 37.8021L132.831 37.4166L133.149 37.8021ZM132.445 37.735L132.06 38.0534L132.445 37.735ZM129.654 34.894L129.332 35.2766L129.654 34.894ZM140.212 51.8884L140.493 51.475L140.212 51.8884ZM139.517 52.0205L139.104 51.7392L139.517 52.0205ZM149.286 66.4578L149.782 66.3948L149.782 66.3918L149.286 66.4578ZM149.286 66.4579L148.79 66.5209L148.791 66.5238L149.286 66.4579ZM130.76 90.0804L130.697 89.5845L130.686 89.5858L130.676 89.5876L130.76 90.0804ZM130.76 90.0804L130.823 90.5764L130.834 90.575L130.845 90.5732L130.76 90.0804ZM117.103 87.3524L117.353 86.9195L117.353 86.9194L117.103 87.3524ZM116.92 86.6693L116.487 86.4192L116.487 86.4192L116.92 86.6693ZM117.603 86.4865L117.853 86.0536L117.853 86.0536L117.603 86.4865ZM130.633 89.0885L130.697 89.5845L130.697 89.5844L130.633 89.0885ZM148.295 66.5897L148.791 66.5238L148.791 66.5238L148.295 66.5897ZM139.649 52.7152L139.368 53.1285V53.1285L139.649 52.7152ZM130.619 33.7461C127.494 31.1187 123.919 29.7252 120.255 30.1932L120.382 31.1851C123.694 30.762 126.999 32.0093 129.976 34.5115L130.619 33.7461ZM130.741 35.155C131.097 34.7323 131.042 34.1015 130.619 33.7461L129.976 34.5115V34.5115L130.741 35.155ZM129.332 35.277C129.755 35.6324 130.386 35.5778 130.741 35.155L129.976 34.5115L129.976 34.5115L129.332 35.277ZM120.509 32.1771C123.47 31.7988 126.505 32.9002 129.332 35.277L129.976 34.5115C126.999 32.0093 123.694 30.762 120.382 31.1851L120.509 32.1771ZM108.923 46.7561C110.772 38.3823 115.147 32.8625 120.509 32.1771L120.382 31.1851C114.373 31.9533 109.825 38.0369 107.946 46.5404L108.923 46.7561ZM108.874 46.9752L108.923 46.7561L107.946 46.5404L107.898 46.7595L108.874 46.9752ZM108.434 47.4133L108.63 47.3038L108.142 46.4309L107.946 46.5404L108.434 47.4133ZM101.351 61.352C100.582 55.5708 103.545 50.1466 108.434 47.4133L107.946 46.5404C102.72 49.4624 99.5336 55.2736 100.36 61.4839L101.351 61.352ZM101.351 61.3524L101.351 61.3524L100.36 61.4836L100.36 61.4836L101.351 61.3524ZM107.761 71.2759C104.357 69.119 101.914 65.5803 101.351 61.3521L100.36 61.4839C100.964 66.0237 103.588 69.8153 107.225 72.1206L107.761 71.2759ZM107.954 71.3987L107.761 71.2759L107.225 72.1206L107.419 72.2433L107.954 71.3987ZM108.215 71.9752L108.181 71.7483L107.192 71.8937L107.225 72.1206L108.215 71.9752ZM112.827 81.9335C110.429 79.2015 108.776 75.7938 108.215 71.9752L107.225 72.1206C107.815 76.1371 109.556 79.7218 112.075 82.593L112.827 81.9335ZM112.735 83.3447C113.15 82.9804 113.191 82.3486 112.827 81.9334L112.075 82.593V82.593L112.735 83.3447ZM111.324 83.2526C111.688 83.6677 112.32 83.7089 112.735 83.3447L112.075 82.593H112.075L111.324 83.2526ZM106.271 72.4969C106.922 76.618 108.73 80.2972 111.324 83.2526L112.075 82.593C109.602 79.7743 107.879 76.2681 107.259 72.3408L106.271 72.4969ZM99.3688 61.6158C100.003 66.3837 102.723 70.3724 106.491 72.8373L107.039 72.0004C103.498 69.6847 100.954 65.9457 100.36 61.484L99.3688 61.6158ZM107.256 45.7822C101.812 48.9286 98.496 55.0569 99.3688 61.6158L100.36 61.4839C99.5437 55.349 102.643 49.6036 107.757 46.648L107.256 45.7822ZM120.255 30.1932C113.654 31.037 108.956 37.5824 107.019 46.1043L107.994 46.326C109.902 37.9333 114.424 31.9468 120.382 31.1851L120.255 30.1932ZM120.254 30.1933L120.254 30.1933L120.383 31.185L120.383 31.185L120.254 30.1933ZM130.62 33.746C130.197 33.3905 129.566 33.445 129.211 33.8676L129.976 34.5113L130.62 33.746ZM133.602 36.7798C132.66 35.6399 131.662 34.6229 130.62 33.746L129.976 34.5113C130.968 35.3456 131.924 36.3187 132.831 37.4166L133.602 36.7798ZM133.467 38.1876C133.893 37.8359 133.953 37.2056 133.602 36.7798L132.831 37.4166L133.467 38.1876ZM132.06 38.0534C132.411 38.4792 133.042 38.5393 133.467 38.1876L132.831 37.4166L132.06 38.0534ZM129.332 35.2766C130.274 36.0683 131.187 36.9975 132.06 38.0534L132.831 37.4166C131.924 36.3187 130.968 35.3456 129.976 34.5113L129.332 35.2766ZM129.211 33.8676C128.855 34.2903 128.91 34.9211 129.332 35.2766L129.976 34.5113L129.211 33.8676ZM140.493 51.475C140.036 51.1643 139.414 51.2826 139.104 51.7392L139.93 52.3018L140.493 51.475ZM149.782 66.3918C148.944 60.0979 145.408 54.8192 140.493 51.475L139.93 52.3018C144.626 55.4967 147.993 60.5304 148.791 66.5238L149.782 66.3918ZM149.782 66.3949L149.782 66.3948L148.79 66.5208L148.79 66.5209L149.782 66.3949ZM130.824 90.5764C142.846 89.0387 151.356 78.2254 149.782 66.392L148.791 66.5238C150.289 77.7898 142.188 88.1148 130.697 89.5845L130.824 90.5764ZM130.845 90.5732L130.845 90.5732L130.676 89.5876L130.676 89.5876L130.845 90.5732ZM116.853 87.7853C120.919 90.1341 125.783 91.2203 130.823 90.5764L130.697 89.5845C125.88 90.1998 121.235 89.162 117.353 86.9195L116.853 87.7853ZM116.487 86.4192C116.211 86.8974 116.375 87.5091 116.853 87.7854L117.353 86.9194H117.353L116.487 86.4192ZM117.853 86.0536C117.375 85.7773 116.764 85.941 116.487 86.4192L117.353 86.9195H117.353L117.853 86.0536ZM130.57 88.5925C125.977 89.1793 121.551 88.1898 117.853 86.0536L117.353 86.9194C121.235 89.162 125.88 90.1998 130.697 89.5845L130.57 88.5925ZM147.8 66.6557C149.223 77.3544 141.529 87.1909 130.57 88.5925L130.697 89.5844C142.188 88.1148 150.289 77.7898 148.791 66.5238L147.8 66.6557ZM139.368 53.1285C143.844 56.1742 147.042 60.9628 147.8 66.6557L148.791 66.5238C147.993 60.5304 144.626 55.4967 139.93 52.3018L139.368 53.1285ZM139.104 51.7392C138.793 52.1958 138.911 52.8179 139.368 53.1285L139.93 52.3018L139.104 51.7392Z" fill="#DDE5E8"/>
</svg>
