<svg width="154" height="120" viewBox="0 0 154 120" fill="none" xmlns="http://www.w3.org/2000/svg">
<path d="M113.339 116.88H39.9975L0.387972 77.3846C-0.129324 76.8688 -0.129324 76.0249 0.387972 75.5091L75.7277 0.386415C76.2457 -0.128724 77.0914 -0.128724 77.6087 0.386415L152.949 75.5091C153.466 76.0249 153.466 76.8688 152.949 77.3846L113.339 116.88Z" fill="#F3F4F6"/>
<path d="M117.474 116.086C117.06 116.086 116.724 116.422 116.724 116.836H117.474V116.086ZM134.109 116.086H117.474V116.836H134.109V116.086ZM134.859 116.836C134.859 116.422 134.523 116.086 134.109 116.086V116.836H134.859ZM134.109 117.586C134.523 117.586 134.859 117.25 134.859 116.836H134.109V117.586ZM117.474 117.586H134.109V116.836H117.474V117.586ZM116.724 116.836C116.724 117.25 117.06 117.586 117.474 117.586V116.836H116.724ZM34.749 116.086C34.3348 116.086 33.999 116.422 33.999 116.836H34.749V116.086ZM79.6873 116.086H34.749V116.836H79.6873V116.086ZM80.4373 116.836C80.4373 116.422 80.1015 116.086 79.6873 116.086V116.836H80.4373ZM79.6873 117.586C80.1015 117.586 80.4373 117.25 80.4373 116.836H79.6873V117.586ZM34.749 117.586H79.6873V116.836H34.749V117.586ZM33.999 116.836C33.999 117.25 34.3348 117.586 34.749 117.586V116.836H33.999ZM22.7119 116.086C22.2977 116.086 21.9619 116.422 21.9619 116.836H22.7119V116.086ZM29.0591 116.086H22.7119V116.836H29.0591V116.086ZM29.8091 116.836C29.8091 116.422 29.4733 116.086 29.0591 116.086V116.836H29.8091ZM29.0591 117.586C29.4733 117.586 29.8091 117.25 29.8091 116.836H29.0591V117.586ZM22.7119 117.586H29.0591V116.836H22.7119V117.586ZM21.9619 116.836C21.9619 117.25 22.2977 117.586 22.7119 117.586V116.836H21.9619Z" fill="#EB1D26"/>
<path d="M116.178 72.633C116.178 72.2188 115.842 71.883 115.428 71.883V72.633H116.178ZM116.178 74.1585V72.633H115.428V74.1585H116.178ZM115.428 74.9085C115.842 74.9085 116.178 74.5727 116.178 74.1585H115.428V74.9085ZM114.678 74.1585C114.678 74.5727 115.014 74.9085 115.428 74.9085V74.1585H114.678ZM114.678 72.633V74.1585H115.428V72.633H114.678ZM115.428 71.883C115.014 71.883 114.678 72.2188 114.678 72.633H115.428V71.883ZM116.178 77.2098C116.178 76.7956 115.842 76.4598 115.428 76.4598V77.2098H116.178ZM116.178 78.7353V77.2098H115.428V78.7353H116.178ZM115.428 79.4853C115.842 79.4853 116.178 79.1495 116.178 78.7353H115.428V79.4853ZM114.678 78.7353C114.678 79.1495 115.014 79.4853 115.428 79.4853V78.7353H114.678ZM114.678 77.2098V78.7353H115.428V77.2098H114.678ZM115.428 76.4598C115.014 76.4598 114.678 76.7956 114.678 77.2098H115.428V76.4598ZM116.958 74.9338C116.544 74.9338 116.208 75.2696 116.208 75.6838H116.958V74.9338ZM118.488 74.9338H116.958V75.6838H118.488V74.9338ZM119.238 75.6838C119.238 75.2696 118.902 74.9338 118.488 74.9338V75.6838H119.238ZM118.488 76.4338C118.902 76.4338 119.238 76.098 119.238 75.6838H118.488V76.4338ZM116.958 76.4338H118.488V75.6838H116.958V76.4338ZM116.208 75.6838C116.208 76.098 116.544 76.4338 116.958 76.4338V75.6838H116.208ZM112.368 74.9338C111.954 74.9338 111.618 75.2696 111.618 75.6838H112.368V74.9338ZM113.898 74.9338H112.368V75.6838H113.898V74.9338ZM114.648 75.6838C114.648 75.2696 114.312 74.9338 113.898 74.9338V75.6838H114.648ZM113.898 76.4338C114.312 76.4338 114.648 76.098 114.648 75.6838H113.898V76.4338ZM112.368 76.4338H113.898V75.6838H112.368V76.4338ZM111.618 75.6838C111.618 76.098 111.954 76.4338 112.368 76.4338V75.6838H111.618Z" fill="#AA81F7"/>
<path d="M111.103 117.184C111.103 118.409 105.631 119.402 98.8791 119.402C92.1284 119.402 86.6555 118.409 86.6555 117.184C86.6555 115.959 92.1284 114.965 98.8791 114.965C105.631 114.965 111.103 115.959 111.103 117.184Z" fill="#D0D7DA"/>
<path d="M124.31 93.2949C124.31 93.9347 123.79 94.4531 123.149 94.4531C122.508 94.4531 121.988 93.9347 121.988 93.2949C121.988 92.6558 122.508 92.1373 123.149 92.1373C123.79 92.1373 124.31 92.6558 124.31 93.2949Z" fill="#F5C400"/>
<path d="M100.049 73.3957C100.049 74.0355 99.5296 74.5533 98.888 74.5533C98.2463 74.5533 97.7271 74.0355 97.7271 73.3957C97.7271 72.7566 98.2463 72.2382 98.888 72.2382C99.5296 72.2382 100.049 72.7566 100.049 73.3957Z" fill="#0B9CE5"/>
<path d="M91.7243 87.7624L86.7289 56.3582L64.3695 60.771L69.9055 53.4351L42.6523 59.0075L49.6724 103.272L70.4447 99.0769L71.3895 105.036L89.6153 102.135" fill="white"/>
<path d="M91.7243 87.7624L86.7289 56.3582L64.3695 60.771L69.9055 53.4351L42.6523 59.0075L49.6724 103.272L70.4447 99.0769L71.3895 105.036L89.6153 102.135" stroke="#DDE5E8" stroke-width="0.75" stroke-linecap="round" stroke-linejoin="round"/>
<path d="M114.663 101.226C114.663 109.792 107.7 116.735 99.1096 116.735C90.5197 116.735 83.5562 109.792 83.5562 101.226C83.5562 92.661 90.5197 85.7176 99.1096 85.7176C107.7 85.7176 114.663 92.661 114.663 101.226Z" fill="white"/>
<path fill-rule="evenodd" clip-rule="evenodd" d="M100.988 101.703C100.802 100.998 100.119 100.698 99.4718 101.037L98.7477 101.416C98.1001 101.755 97.9598 102.485 98.4365 103.039L101.756 106.894C102.233 107.447 102.47 107.323 102.284 106.617L100.988 101.703Z" stroke="#DDE5E8" stroke-width="0.75"/>
<path d="M97.2319 100.75C97.4175 101.455 98.1003 101.755 98.7473 101.416L99.4713 101.037C100.12 100.698 100.259 99.9679 99.7832 99.4144L96.4626 95.5591C95.9866 95.0055 95.7492 95.1295 95.9347 95.8356L97.2319 100.75Z" fill="#FE5E48"/>
<path fill-rule="evenodd" clip-rule="evenodd" d="M97.2319 100.75C97.4175 101.455 98.1003 101.755 98.7473 101.416L99.4713 101.037C100.12 100.698 100.259 99.9679 99.7832 99.4144L96.4626 95.5591C95.9866 95.0055 95.7492 95.1295 95.9347 95.8356L97.2319 100.75Z" stroke="#A01603" stroke-width="0.75"/>
<path fill-rule="evenodd" clip-rule="evenodd" d="M112.131 101.226C112.131 108.396 106.301 114.209 99.1099 114.209C91.919 114.209 86.0891 108.396 86.0891 101.226C86.0891 94.056 91.919 88.2429 99.1099 88.2429C106.301 88.2429 112.131 94.056 112.131 101.226Z" stroke="#DDE5E8" stroke-width="0.75" stroke-linecap="round" stroke-linejoin="round"/>
<path d="M110.706 90.8903C113.167 93.6337 114.663 97.2563 114.663 101.226C114.663 109.792 107.7 116.735 99.1103 116.735C90.5204 116.735 83.5562 109.792 83.5562 101.226C83.5562 92.6611 90.5204 85.7177 99.1103 85.7177C101.577 85.7177 103.91 86.2912 105.982 87.3102" stroke="#7350A0" stroke-width="0.75" stroke-linecap="round" stroke-linejoin="round"/>
<path d="M100.309 100.599C100.656 101.259 100.402 102.076 99.7392 102.423C99.0763 102.769 98.2578 102.515 97.9101 101.854C97.5623 101.193 97.8177 100.377 98.4799 100.031C99.1422 99.6838 99.9613 99.9377 100.309 100.599Z" fill="white"/>
<path fill-rule="evenodd" clip-rule="evenodd" d="M100.309 100.599C100.656 101.259 100.402 102.076 99.7392 102.423C99.0763 102.769 98.2578 102.515 97.9101 101.854C97.5623 101.193 97.8177 100.377 98.4799 100.031C99.1422 99.6838 99.9613 99.9377 100.309 100.599Z" stroke="#A01603" stroke-width="0.75" stroke-linecap="round" stroke-linejoin="round"/>
<path d="M88.0201 94.4099L88.2072 94.0848H88.2072L88.0201 94.4099ZM87.5081 94.5478L87.1831 94.3607H87.1831L87.5081 94.5478ZM89.7236 95.3904L89.5366 95.7154L89.7236 95.3904ZM89.8616 95.9025L89.5366 95.7154L89.5366 95.7154L89.8616 95.9025ZM89.3495 96.0404L89.5366 95.7154L89.3495 96.0404ZM87.646 95.0599L87.4589 95.3849H87.4589L87.646 95.0599ZM89.7243 107.062L89.9115 107.387L89.7243 107.062ZM89.8622 106.55L89.5372 106.737H89.5372L89.8622 106.55ZM88.0202 108.043L88.2073 108.368H88.2073L88.0202 108.043ZM87.5081 107.905L87.8331 107.718L87.8331 107.718L87.5081 107.905ZM87.646 107.393L87.4588 107.068H87.4588L87.646 107.393ZM89.3501 106.412L89.163 106.087L89.3501 106.412ZM108.87 106.413L109.057 106.087L108.87 106.413ZM108.357 106.55L108.032 106.363L108.357 106.55ZM110.573 107.393L110.386 107.718L110.573 107.393ZM110.711 107.905L110.386 107.718L110.711 107.905ZM110.199 108.043L110.386 107.718L110.199 108.043ZM108.495 107.063L108.308 107.388L108.495 107.063ZM110.573 95.0599L110.386 94.7349L110.573 95.0599ZM110.711 94.5478L111.036 94.3608L110.711 94.5478ZM108.869 96.0404L109.056 96.3655L108.869 96.0404ZM108.357 95.9024L108.032 96.0894L108.357 95.9024ZM108.495 95.3904L108.308 95.0653L108.495 95.3904ZM110.199 94.4098L110.012 94.0848L110.199 94.4098ZM99.8598 88.2429C99.8598 87.8287 99.524 87.4929 99.1098 87.4929V88.2429H99.8598ZM99.8598 90.204V88.2429H99.1098V90.204H99.8598ZM99.1098 90.954C99.524 90.954 99.8598 90.6182 99.8598 90.204H99.1098V90.954ZM98.3598 90.204C98.3598 90.6182 98.6956 90.954 99.1098 90.954V90.204H98.3598ZM98.3598 88.2429V90.204H99.1098V88.2429H98.3598ZM99.1098 87.4929C98.6956 87.4929 98.3598 87.8287 98.3598 88.2429H99.1098V87.4929ZM88.2072 94.0848C87.8482 93.8782 87.3897 94.0017 87.1831 94.3607L87.8331 94.7349H87.8331L88.2072 94.0848ZM89.9107 95.0654L88.2072 94.0848L87.8331 94.7349L89.5366 95.7154L89.9107 95.0654ZM90.1866 96.0896C90.3932 95.7306 90.2697 95.272 89.9107 95.0654L89.5366 95.7154L89.5366 95.7154L90.1866 96.0896ZM89.1624 96.3654C89.5214 96.5721 89.9799 96.4485 90.1866 96.0896L89.5366 95.7154H89.5366L89.1624 96.3654ZM87.4589 95.3849L89.1624 96.3654L89.5366 95.7154L87.8331 94.7349L87.4589 95.3849ZM87.1831 94.3607C86.9764 94.7197 87.0999 95.1782 87.4589 95.3849L87.8331 94.7349H87.8331L87.1831 94.3607ZM89.9115 107.387C90.2704 107.18 90.3939 106.722 90.1872 106.363L89.5372 106.737H89.5372L89.9115 107.387ZM88.2073 108.368L89.9115 107.387L89.5372 106.737L87.8331 107.718L88.2073 108.368ZM87.1831 108.092C87.3898 108.451 87.8483 108.575 88.2073 108.368L87.8331 107.718V107.718L87.1831 108.092ZM87.4588 107.068C87.0999 107.275 86.9764 107.733 87.1831 108.092L87.8331 107.718H87.8331L87.4588 107.068ZM89.163 106.087L87.4588 107.068L87.8331 107.718L89.5372 106.737L89.163 106.087ZM90.1872 106.363C89.9805 106.004 89.522 105.88 89.163 106.087L89.5372 106.737H89.5372L90.1872 106.363ZM99.8598 112.248C99.8598 111.834 99.524 111.498 99.1098 111.498V112.248H99.8598ZM99.8598 114.209V112.248H99.1098V114.209H99.8598ZM99.1098 114.959C99.524 114.959 99.8598 114.624 99.8598 114.209H99.1098V114.959ZM98.3598 114.209C98.3598 114.624 98.6956 114.959 99.1098 114.959V114.209H98.3598ZM98.3598 112.248V114.209H99.1098V112.248H98.3598ZM99.1098 111.498C98.6956 111.498 98.3598 111.834 98.3598 112.248H99.1098V111.498ZM109.057 106.087C108.698 105.881 108.239 106.004 108.032 106.363L108.682 106.738L109.057 106.087ZM110.76 107.068L109.057 106.087L108.682 106.738L110.386 107.718L110.76 107.068ZM111.036 108.092C111.243 107.733 111.119 107.275 110.76 107.068L110.386 107.718L111.036 108.092ZM110.012 108.368C110.371 108.575 110.829 108.451 111.036 108.092L110.386 107.718L110.012 108.368ZM108.308 107.388L110.012 108.368L110.386 107.718L108.682 106.738L108.308 107.388ZM108.032 106.363C107.826 106.722 107.949 107.181 108.308 107.388L108.682 106.738L108.032 106.363ZM110.76 95.3849C111.119 95.1783 111.243 94.7198 111.036 94.3608L110.386 94.7349L110.76 95.3849ZM109.056 96.3655L110.76 95.3849L110.386 94.7349L108.682 95.7154L109.056 96.3655ZM108.032 96.0894C108.238 96.4485 108.697 96.5721 109.056 96.3655L108.682 95.7154L108.032 96.0894ZM108.308 95.0653C107.949 95.2719 107.825 95.7304 108.032 96.0894L108.682 95.7154L108.308 95.0653ZM110.012 94.0848L108.308 95.0653L108.682 95.7154L110.386 94.7349L110.012 94.0848ZM111.036 94.3608C110.829 94.0018 110.371 93.8782 110.012 94.0848L110.386 94.7349L111.036 94.3608Z" fill="#DDE5E8"/>
<path d="M99.1099 85.7179V84.1738" stroke="#7350A0" stroke-width="0.75" stroke-linecap="round" stroke-linejoin="round"/>
<path d="M97.5701 84.1737H100.649V83.1441H97.5701V84.1737Z" fill="white"/>
<path fill-rule="evenodd" clip-rule="evenodd" d="M97.5701 84.1737H100.649V83.1441H97.5701V84.1737Z" stroke="#7350A0" stroke-width="0.75" stroke-linecap="round" stroke-linejoin="round"/>
<path d="M96.158 83.1978H102.07V82.1682H96.158V83.1978Z" fill="white"/>
<path fill-rule="evenodd" clip-rule="evenodd" d="M96.158 83.1978H102.07V82.1682H96.158V83.1978Z" stroke="#7350A0" stroke-width="0.75" stroke-linecap="round" stroke-linejoin="round"/>
<path d="M91.3097 50.583C91.3097 50.583 76.9996 47.0214 75.3174 62.7268" stroke="#D62793" stroke-width="0.75" stroke-linecap="round" stroke-linejoin="round" stroke-dasharray="1.5"/>
<path d="M75.3089 67.9306C75.3089 68.8588 74.5536 69.6119 73.6227 69.6119C72.6912 69.6119 71.9365 68.8588 71.9365 67.9306C71.9365 67.0024 72.6912 66.2493 73.6227 66.2493C74.5536 66.2493 75.3089 67.0024 75.3089 67.9306Z" fill="white"/>
<path fill-rule="evenodd" clip-rule="evenodd" d="M75.3089 67.9306C75.3089 68.8588 74.5536 69.6119 73.6227 69.6119C72.6912 69.6119 71.9365 68.8588 71.9365 67.9306C71.9365 67.0024 72.6912 66.2493 73.6227 66.2493C74.5536 66.2493 75.3089 67.0024 75.3089 67.9306Z" stroke="#F5C400" stroke-width="0.75"/>
<path d="M36.1797 76.8718C36.1797 78.455 34.8924 79.7379 33.3053 79.7379C31.7175 79.7379 30.4309 78.455 30.4309 76.8718C30.4309 75.2893 31.7175 74.0064 33.3053 74.0064C34.8924 74.0064 36.1797 75.2893 36.1797 76.8718Z" fill="white"/>
<path fill-rule="evenodd" clip-rule="evenodd" d="M36.1797 76.8718C36.1797 78.455 34.8924 79.7379 33.3053 79.7379C31.7175 79.7379 30.4309 78.455 30.4309 76.8718C30.4309 75.2893 31.7175 74.0064 33.3053 74.0064C34.8924 74.0064 36.1797 75.2893 36.1797 76.8718Z" stroke="#F5C400" stroke-width="0.75"/>
<path d="M92.7329 47.9634V39.216" stroke="#D62793" stroke-width="0.75" stroke-linecap="round" stroke-linejoin="round"/>
<path d="M92.7329 39.2155L98.9245 41.8031L92.7329 44.3914V39.2155Z" fill="white"/>
<path fill-rule="evenodd" clip-rule="evenodd" d="M92.7329 39.2155L98.9245 41.8031L92.7329 44.3914V39.2155Z" stroke="#D62793" stroke-width="0.75" stroke-linecap="round" stroke-linejoin="round"/>
<path d="M42.6531 59.0075L49.5807 51.9832L50.3793 57.4608" stroke="#DDE5E8" stroke-width="0.75" stroke-linecap="round" stroke-linejoin="round"/>
<path d="M64.3699 60.7712L71.3899 105.036" stroke="#DDE5E8" stroke-width="0.75"/>
<path d="M69.9373 53.435L70.8063 59.5006" stroke="#DDE5E8" stroke-width="0.75" stroke-linecap="round" stroke-linejoin="round"/>
<path d="M65.3421 76.2814C65.3421 76.2814 55.3977 88.4186 49.0386 80.907C42.6808 73.3954 38.2073 76.3331 38.2073 76.3331" stroke="#D62793" stroke-width="0.75" stroke-linecap="round" stroke-linejoin="round" stroke-dasharray="1.5"/>
<path d="M65.3328 98.8293C65.3328 98.8293 64.2157 92.1962 70.2006 89.8936" stroke="#DDE5E8" stroke-width="0.75" stroke-linecap="round" stroke-linejoin="round" stroke-dasharray="1.5"/>
</svg>
