<svg width="168" height="24" viewBox="0 0 168 24" fill="none" xmlns="http://www.w3.org/2000/svg">
<path fill-rule="evenodd" clip-rule="evenodd" d="M40.6058 19.1666C38.5966 19.1666 36.9617 17.5308 36.9617 15.5191C36.9617 13.5077 38.5966 11.8716 40.6058 11.8716C42.615 11.8716 44.2493 13.5077 44.2493 15.5191C44.2493 17.5308 42.615 19.1666 40.6058 19.1666ZM40.6058 7.24561C36.0488 7.24561 32.3408 10.957 32.3408 15.5191C32.3408 20.0815 36.0488 23.7934 40.6058 23.7934C45.1629 23.7934 48.8701 20.0815 48.8701 15.5191C48.8701 10.957 45.1629 7.24561 40.6058 7.24561Z" fill="#EC111A"/>
<path fill-rule="evenodd" clip-rule="evenodd" d="M59.3987 7.63913H57.1428V2.75537H52.2024V7.63913H49.9463V12.1156H52.2024V23.3999H57.1428V12.1156H59.3987V7.63913Z" fill="#EC111A"/>
<path fill-rule="evenodd" clip-rule="evenodd" d="M61.665 23.3995H66.6045V7.63867H61.665V23.3995Z" fill="#EC111A"/>
<path fill-rule="evenodd" clip-rule="evenodd" d="M64.6054 0C63.0881 0 61.8535 1.236 61.8535 2.75496C61.8535 4.27392 63.0881 5.50992 64.6054 5.50992C66.1234 5.50992 67.358 4.27392 67.358 2.75496C67.358 1.236 66.1234 0 64.6054 0Z" fill="#EC111A"/>
<path fill-rule="evenodd" clip-rule="evenodd" d="M134.983 11.8845C136.606 11.8845 137.927 13.2065 137.927 14.8315V23.3997H142.866V14.1537C142.866 9.95639 140.447 7.24463 136.63 7.24463C135.06 7.24463 133.404 7.93295 132.04 10.1366V7.63823H127.1V23.3997H132.04V14.8315C132.04 13.2065 133.36 11.8845 134.983 11.8845Z" fill="#EC111A"/>
<path fill-rule="evenodd" clip-rule="evenodd" d="M160.872 23.3995L154.802 15.5248L160.446 7.63795H154.673L150.137 14.0145V0.393555H145.196V23.3995H150.137V16.9034L155.117 23.3995H160.872Z" fill="#EC111A"/>
<path fill-rule="evenodd" clip-rule="evenodd" d="M15.3328 19.1578C15.6879 18.3002 15.8401 17.4314 15.8401 16.2538C15.8401 14.6635 15.3419 13.2415 14.4372 12.2506C13.3824 11.0938 11.5796 10.1335 9.07843 9.39528C8.53016 9.234 8.07108 9.06144 7.67408 8.86728C7.23249 8.65224 6.90741 8.39064 6.62765 8.08752C6.3076 7.7412 6.17767 7.32984 6.17767 6.81024C6.17767 6.07824 6.56963 5.58216 7.20588 5.18112C8.00467 4.6776 9.54088 4.62768 11.1114 5.21064C11.658 5.41368 12.1475 5.63784 12.7049 5.96544L14.8047 1.78296C14.0248 1.3164 12.9149 0.70872 11.7939 0.42384C10.6573 0.13464 9.59122 0 8.43883 0C7.28356 0 6.22873 0.17448 5.3036 0.51888C4.48108 0.8232 3.62931 1.37928 2.90436 2.08272C2.24725 2.72088 1.65152 3.63048 1.30894 4.47432C0.957971 5.33688 0.78009 6.3168 0.78009 7.38792C0.78009 8.50632 1.3087 10.3154 2.64137 11.5656C4.07977 12.9163 5.71139 13.3954 6.36826 13.6495C7.01841 13.901 7.7472 14.1175 8.20892 14.3018C8.69654 14.4974 9.24673 14.7552 9.56149 14.9911C9.89976 15.2448 10.1285 15.4742 10.2819 15.7934C10.4312 16.1071 10.4694 16.3903 10.4356 16.7983C10.3926 17.3177 10.1563 17.759 9.7329 18.1577C9.30954 18.5563 8.54527 18.7846 7.46192 18.7846C6.55285 18.7846 5.62868 18.5292 4.70691 18.1207C3.89565 17.7617 3.3354 17.4451 2.46901 16.9332L0 21.2398C1.7232 22.7714 4.51656 23.7931 7.00451 23.7931C8.27557 23.7931 9.59697 23.5817 10.7264 23.1982C11.7917 22.8365 12.8465 22.2463 13.5468 21.6197C14.2984 20.9472 14.9828 20.0035 15.3328 19.1578Z" fill="#EC111A"/>
<path fill-rule="evenodd" clip-rule="evenodd" d="M164.351 22.8447C163.138 22.8447 162.154 21.8597 162.154 20.6449C162.154 19.43 163.138 18.445 164.351 18.445C165.565 18.445 166.549 19.43 166.549 20.6449C166.549 21.8597 165.565 22.8447 164.351 22.8447ZM164.351 17.8901C162.832 17.8901 161.6 19.1235 161.6 20.6449C161.6 22.1662 162.832 23.3998 164.351 23.3998C165.871 23.3998 167.103 22.1662 167.103 20.6449C167.103 19.1235 165.871 17.8901 164.351 17.8901Z" fill="#EC111A"/>
<path fill-rule="evenodd" clip-rule="evenodd" d="M163.906 20.6003H164.537C164.768 20.6003 164.959 20.3956 164.959 20.1376C164.959 19.8796 164.768 19.6792 164.537 19.6792H163.906V20.6003ZM164.346 21.1045H163.906V22.1485H163.363V19.1406H164.515C165.069 19.1406 165.515 19.5875 165.515 20.1376C165.515 20.5156 165.279 20.8552 164.936 21.0143L165.569 22.1485H164.919L164.346 21.1045Z" fill="#EC111A"/>
<path fill-rule="evenodd" clip-rule="evenodd" d="M28.8614 17.8039C28.193 18.6338 27.1698 19.1662 26.0244 19.1662C24.0152 19.1662 22.3802 17.5303 22.3802 15.5189C22.3802 13.5072 24.0152 11.8711 26.0244 11.8711C27.1698 11.8711 28.193 12.4034 28.8614 13.2336L32.1357 9.95472C30.6229 8.29104 28.4435 7.24512 26.0244 7.24512C21.4673 7.24512 17.499 10.4918 17.499 15.5189C17.499 20.5457 21.4673 23.7931 26.0244 23.7931C28.4435 23.7931 30.6232 22.747 32.1359 21.0828L28.8614 17.8039Z" fill="#EC111A"/>
<path fill-rule="evenodd" clip-rule="evenodd" d="M77.2868 19.2413C75.2361 19.2413 73.5685 17.5716 73.5685 15.5189C73.5685 13.4659 75.2361 11.7955 77.2868 11.7955C79.3375 11.7955 81.0058 13.4659 81.0058 15.5189C81.0058 17.5716 79.3375 19.2413 77.2868 19.2413ZM85.9291 23.3995V7.63799H81.1134V9.29543L80.6673 8.89607C79.4595 7.81559 78.1096 7.24463 76.5192 7.24463C72.2694 7.24463 68.6787 11.0333 68.6787 15.5189C68.6787 20.0042 72.2694 23.7931 76.5192 23.7931C78.1096 23.7931 79.4595 23.2221 80.6673 22.1414L81.1134 21.7423V23.3995H85.9291Z" fill="#EC111A"/>
<path fill-rule="evenodd" clip-rule="evenodd" d="M116.092 19.2413C114.042 19.2413 112.374 17.5716 112.374 15.5189C112.374 13.4659 114.042 11.7955 116.092 11.7955C118.143 11.7955 119.812 13.4659 119.812 15.5189C119.812 17.5716 118.143 19.2413 116.092 19.2413ZM124.735 23.3995V7.63799H119.919V9.29543L119.473 8.89607C118.265 7.81559 116.915 7.24463 115.325 7.24463C111.075 7.24463 107.484 11.0333 107.484 15.5189C107.484 20.0042 111.075 23.7931 115.325 23.7931C116.915 23.7931 118.265 23.2221 119.473 22.1414L119.919 21.7423V23.3995H124.735Z" fill="#EC111A"/>
<path fill-rule="evenodd" clip-rule="evenodd" d="M93.4087 15.5188C93.4087 13.4659 95.0773 11.7955 97.128 11.7955C99.1784 11.7955 100.846 13.4659 100.846 15.5188C100.846 17.5718 99.1784 19.2412 97.128 19.2412C95.0773 19.2412 93.4087 17.5718 93.4087 15.5188ZM93.3011 23.3995V21.7423L93.7475 22.1416C94.955 23.2221 96.3052 23.7931 97.8956 23.7931C102.145 23.7931 105.736 20.0042 105.736 15.5188C105.736 11.0335 102.145 7.24459 97.8956 7.24459C96.3052 7.24459 94.955 7.81555 93.7475 8.89603L93.3011 9.29539V0.393555H88.4854V23.3995H93.3011Z" fill="#EC111A"/>
</svg>
