<?xml version="1.0" encoding="UTF-8"?>
<svg xmlns="http://www.w3.org/2000/svg" xmlns:xlink="http://www.w3.org/1999/xlink" width="300px" height="21px" viewBox="0 0 300 21" version="1.1">
<g id="surface1">
<path style=" stroke:none;fill-rule:nonzero;fill:rgb(91.764706%,11.372549%,14.509804%);fill-opacity:1;" d="M 0 16.355469 L 6.121094 1.25 L 7.371094 1.25 L 13.492188 16.355469 L 11.769531 16.355469 L 10.367188 12.792969 L 3.082031 12.792969 L 1.703125 16.355469 Z M 3.644531 11.351562 L 9.8125 11.351562 L 6.730469 3.453125 Z M 3.644531 11.351562 "/>
<path style=" stroke:none;fill-rule:nonzero;fill:rgb(91.764706%,11.372549%,14.509804%);fill-opacity:1;" d="M 16.820312 16.355469 L 12.375 5.566406 L 14.078125 5.566406 L 17.484375 14.257812 L 20.871094 5.566406 L 22.511719 5.566406 L 18.066406 16.355469 Z M 16.820312 16.355469 "/>
<path style=" stroke:none;fill-rule:nonzero;fill:rgb(91.764706%,11.372549%,14.509804%);fill-opacity:1;" d="M 26.4375 16.59375 C 25.371094 16.59375 24.519531 16.296875 23.871094 15.707031 C 23.226562 15.117188 22.902344 14.320312 22.902344 13.3125 C 22.902344 12.25 23.304688 11.402344 24.109375 10.785156 C 24.914062 10.164062 26.035156 9.859375 27.476562 9.859375 C 27.890625 9.859375 28.320312 9.882812 28.769531 9.933594 C 29.210938 9.984375 29.652344 10.0625 30.085938 10.183594 L 30.085938 9.902344 C 30.085938 8.808594 29.847656 8.011719 29.375 7.519531 C 28.90625 7.023438 28.144531 6.773438 27.113281 6.773438 C 26.578125 6.773438 26.050781 6.859375 25.527344 7.023438 C 25.007812 7.1875 24.511719 7.417969 24.054688 7.707031 L 23.40625 6.566406 C 23.996094 6.148438 24.632812 5.835938 25.3125 5.640625 C 25.992188 5.441406 26.667969 5.335938 27.328125 5.335938 C 30.175781 5.335938 31.59375 6.882812 31.59375 9.976562 L 31.59375 16.367188 L 30.191406 16.367188 L 30.148438 14.488281 C 29.789062 15.164062 29.289062 15.683594 28.648438 16.054688 C 28.007812 16.410156 27.269531 16.59375 26.4375 16.59375 Z M 24.472656 13.226562 C 24.472656 13.816406 24.675781 14.28125 25.085938 14.628906 C 25.496094 14.976562 26.050781 15.144531 26.753906 15.144531 C 27.746094 15.144531 28.535156 14.816406 29.125 14.164062 C 29.714844 13.511719 30.035156 12.613281 30.074219 11.476562 C 29.640625 11.390625 29.222656 11.328125 28.824219 11.296875 C 28.421875 11.261719 28.023438 11.242188 27.640625 11.242188 C 25.527344 11.242188 24.472656 11.902344 24.472656 13.226562 Z M 24.472656 13.226562 "/>
<path style=" stroke:none;fill-rule:nonzero;fill:rgb(91.764706%,11.372549%,14.509804%);fill-opacity:1;" d="M 34.308594 16.355469 L 34.308594 5.566406 L 35.707031 5.566406 L 35.753906 7.570312 C 36.082031 6.894531 36.578125 6.347656 37.230469 5.941406 C 37.882812 5.53125 38.621094 5.328125 39.441406 5.328125 C 42.132812 5.328125 43.476562 6.921875 43.476562 10.121094 L 43.476562 16.355469 L 41.921875 16.355469 L 41.921875 10.164062 C 41.921875 9.039062 41.699219 8.199219 41.261719 7.625 C 40.828125 7.058594 40.140625 6.773438 39.203125 6.773438 C 38.199219 6.773438 37.386719 7.121094 36.78125 7.808594 C 36.167969 8.5 35.863281 9.402344 35.863281 10.527344 L 35.863281 16.355469 Z M 34.308594 16.355469 "/>
<path style=" stroke:none;fill-rule:nonzero;fill:rgb(91.764706%,11.372549%,14.509804%);fill-opacity:1;" d="M 49.222656 16.484375 C 47.3125 16.484375 46.359375 15.351562 46.359375 13.078125 L 46.359375 6.945312 L 44.894531 6.945312 L 44.894531 5.566406 L 46.359375 5.566406 L 46.359375 2.351562 L 47.914062 2.351562 L 47.914062 5.566406 L 50.976562 5.566406 L 50.976562 6.945312 L 47.914062 6.945312 L 47.914062 13.074219 C 47.914062 13.777344 48.042969 14.28125 48.3125 14.582031 C 48.578125 14.882812 48.964844 15.039062 49.460938 15.039062 C 49.90625 15.039062 50.382812 14.894531 50.886719 14.605469 L 51.511719 15.707031 C 51.222656 15.941406 50.882812 16.128906 50.484375 16.269531 C 50.085938 16.410156 49.671875 16.484375 49.222656 16.484375 Z M 49.222656 16.484375 "/>
<path style=" stroke:none;fill-rule:nonzero;fill:rgb(91.764706%,11.372549%,14.509804%);fill-opacity:1;" d="M 55.847656 16.59375 C 54.78125 16.59375 53.929688 16.296875 53.28125 15.707031 C 52.632812 15.117188 52.3125 14.320312 52.3125 13.3125 C 52.3125 12.25 52.714844 11.402344 53.519531 10.785156 C 54.324219 10.164062 55.445312 9.859375 56.886719 9.859375 C 57.300781 9.859375 57.730469 9.882812 58.179688 9.933594 C 58.621094 9.984375 59.0625 10.0625 59.496094 10.183594 L 59.496094 9.902344 C 59.496094 8.808594 59.257812 8.011719 58.785156 7.519531 C 58.316406 7.023438 57.554688 6.773438 56.523438 6.773438 C 55.988281 6.773438 55.460938 6.859375 54.9375 7.023438 C 54.417969 7.1875 53.921875 7.417969 53.464844 7.707031 L 52.816406 6.566406 C 53.40625 6.148438 54.042969 5.835938 54.722656 5.640625 C 55.402344 5.441406 56.078125 5.335938 56.738281 5.335938 C 59.585938 5.335938 61.003906 6.882812 61.003906 9.976562 L 61.003906 16.367188 L 59.601562 16.367188 L 59.558594 14.488281 C 59.199219 15.164062 58.699219 15.683594 58.058594 16.054688 C 57.417969 16.410156 56.679688 16.59375 55.847656 16.59375 Z M 53.882812 13.226562 C 53.882812 13.816406 54.085938 14.28125 54.496094 14.628906 C 54.90625 14.976562 55.460938 15.144531 56.164062 15.144531 C 57.15625 15.144531 57.945312 14.816406 58.535156 14.164062 C 59.125 13.511719 59.445312 12.613281 59.484375 11.476562 C 59.050781 11.390625 58.632812 11.328125 58.234375 11.296875 C 57.832031 11.261719 57.433594 11.242188 57.050781 11.242188 C 54.9375 11.242188 53.882812 11.902344 53.882812 13.226562 Z M 53.882812 13.226562 "/>
<path style=" stroke:none;fill-rule:nonzero;fill:rgb(91.764706%,11.372549%,14.509804%);fill-opacity:1;" d="M 67.320312 12.96875 C 66.628906 12.96875 66.003906 12.855469 65.441406 12.625 C 65.328125 12.855469 65.269531 13.089844 65.269531 13.332031 C 65.269531 13.691406 65.375 13.957031 65.582031 14.132812 C 65.792969 14.308594 66.117188 14.414062 66.566406 14.457031 L 69.023438 14.695312 C 70.128906 14.800781 70.972656 15.082031 71.558594 15.546875 C 72.144531 16.015625 72.433594 16.671875 72.433594 17.523438 C 72.433594 18.605469 71.988281 19.4375 71.105469 20.027344 C 70.21875 20.621094 69.011719 20.914062 67.472656 20.914062 C 65.90625 20.914062 64.675781 20.609375 63.785156 19.988281 C 62.894531 19.371094 62.445312 18.511719 62.445312 17.421875 C 62.445312 16.859375 62.59375 16.359375 62.886719 15.910156 C 63.183594 15.464844 63.582031 15.121094 64.085938 14.878906 C 63.871094 14.558594 63.761719 14.175781 63.761719 13.714844 C 63.761719 13.125 63.972656 12.5625 64.386719 12.035156 C 63.972656 11.6875 63.648438 11.273438 63.414062 10.785156 C 63.183594 10.296875 63.070312 9.757812 63.070312 9.164062 C 63.070312 8.414062 63.246094 7.757812 63.597656 7.1875 C 63.949219 6.621094 64.441406 6.171875 65.085938 5.835938 C 65.726562 5.507812 66.46875 5.34375 67.3125 5.34375 C 68.148438 5.34375 68.886719 5.507812 69.53125 5.835938 L 72.660156 5.835938 L 72.660156 6.9375 L 70.957031 7.09375 C 71.359375 7.695312 71.558594 8.386719 71.558594 9.164062 C 71.558594 9.898438 71.382812 10.550781 71.03125 11.128906 C 70.679688 11.703125 70.179688 12.160156 69.542969 12.488281 C 68.910156 12.804688 68.164062 12.96875 67.320312 12.96875 Z M 63.953125 17.21875 C 63.953125 17.96875 64.273438 18.546875 64.902344 18.96875 C 65.53125 19.382812 66.429688 19.59375 67.574219 19.59375 C 68.640625 19.59375 69.453125 19.410156 70.007812 19.050781 C 70.570312 18.695312 70.847656 18.210938 70.847656 17.605469 C 70.847656 17.144531 70.683594 16.804688 70.355469 16.585938 C 70.027344 16.371094 69.460938 16.230469 68.652344 16.15625 L 66.28125 15.917969 C 65.765625 15.859375 65.324219 15.753906 64.964844 15.59375 C 64.289062 15.945312 63.953125 16.484375 63.953125 17.21875 Z M 67.320312 11.605469 C 68.171875 11.605469 68.828125 11.386719 69.304688 10.9375 C 69.78125 10.496094 70.015625 9.890625 70.015625 9.148438 C 70.015625 8.398438 69.777344 7.800781 69.304688 7.359375 C 68.828125 6.917969 68.171875 6.691406 67.320312 6.691406 C 66.484375 6.691406 65.828125 6.910156 65.34375 7.359375 C 64.863281 7.808594 64.625 8.40625 64.625 9.148438 C 64.625 9.898438 64.863281 10.496094 65.34375 10.9375 C 65.828125 11.386719 66.484375 11.605469 67.320312 11.605469 Z M 67.320312 11.605469 "/>
<path style=" stroke:none;fill-rule:nonzero;fill:rgb(91.764706%,11.372549%,14.509804%);fill-opacity:1;" d="M 78.789062 16.59375 C 77.710938 16.59375 76.773438 16.359375 75.984375 15.890625 C 75.195312 15.421875 74.578125 14.765625 74.140625 13.925781 C 73.703125 13.082031 73.480469 12.101562 73.480469 10.976562 C 73.480469 9.871094 73.691406 8.894531 74.105469 8.042969 C 74.519531 7.195312 75.097656 6.523438 75.832031 6.042969 C 76.5625 5.558594 77.402344 5.320312 78.355469 5.320312 C 79.753906 5.320312 80.851562 5.792969 81.664062 6.734375 C 82.476562 7.675781 82.882812 8.9375 82.882812 10.523438 C 82.882812 10.683594 82.878906 10.867188 82.863281 11.085938 C 82.84375 11.300781 82.828125 11.484375 82.800781 11.625 L 75.097656 11.625 C 75.210938 12.71875 75.59375 13.578125 76.238281 14.203125 C 76.886719 14.828125 77.761719 15.140625 78.871094 15.140625 C 79.960938 15.140625 80.925781 14.863281 81.761719 14.300781 L 82.429688 15.464844 C 81.972656 15.820312 81.425781 16.097656 80.800781 16.292969 C 80.179688 16.496094 79.507812 16.59375 78.789062 16.59375 Z M 78.355469 6.773438 C 77.449219 6.773438 76.710938 7.09375 76.136719 7.734375 C 75.566406 8.375 75.222656 9.226562 75.121094 10.289062 L 81.351562 10.289062 C 81.308594 9.164062 81.035156 8.300781 80.523438 7.6875 C 80.011719 7.082031 79.292969 6.773438 78.355469 6.773438 Z M 78.355469 6.773438 "/>
<path style=" stroke:none;fill-rule:nonzero;fill:rgb(91.764706%,11.372549%,14.509804%);fill-opacity:1;" d="M 95.519531 16.640625 C 94.140625 16.640625 92.929688 16.308594 91.890625 15.65625 C 90.84375 15.003906 90.039062 14.089844 89.464844 12.914062 C 88.894531 11.742188 88.605469 10.378906 88.605469 8.824219 C 88.605469 7.242188 88.894531 5.867188 89.476562 4.691406 C 90.0625 3.519531 90.886719 2.605469 91.945312 1.949219 C 93.011719 1.292969 94.246094 0.964844 95.65625 0.964844 C 96.472656 0.964844 97.269531 1.078125 98.039062 1.3125 C 98.8125 1.542969 99.5 1.886719 100.101562 2.34375 L 99.390625 3.617188 C 98.210938 2.894531 96.996094 2.539062 95.75 2.539062 C 94.050781 2.539062 92.71875 3.09375 91.746094 4.207031 C 90.777344 5.320312 90.289062 6.847656 90.289062 8.796875 C 90.289062 10.0625 90.511719 11.164062 90.957031 12.105469 C 91.40625 13.050781 92.035156 13.777344 92.855469 14.289062 C 93.671875 14.800781 94.652344 15.054688 95.789062 15.054688 C 97.195312 15.054688 98.546875 14.667969 99.839844 13.890625 L 100.53125 15.140625 C 99.902344 15.617188 99.152344 15.980469 98.289062 16.242188 C 97.417969 16.507812 96.496094 16.640625 95.519531 16.640625 Z M 95.519531 16.640625 "/>
<path style=" stroke:none;fill-rule:nonzero;fill:rgb(91.764706%,11.372549%,14.509804%);fill-opacity:1;" d="M 106.625 16.59375 C 105.59375 16.59375 104.683594 16.355469 103.90625 15.882812 C 103.128906 15.414062 102.527344 14.746094 102.109375 13.894531 C 101.683594 13.042969 101.472656 12.066406 101.472656 10.960938 C 101.472656 9.835938 101.683594 8.851562 102.109375 8.011719 C 102.535156 7.171875 103.128906 6.511719 103.90625 6.035156 C 104.683594 5.558594 105.585938 5.328125 106.625 5.328125 C 107.675781 5.328125 108.582031 5.566406 109.355469 6.035156 C 110.125 6.507812 110.722656 7.171875 111.140625 8.011719 C 111.566406 8.851562 111.777344 9.835938 111.777344 10.960938 C 111.777344 12.066406 111.566406 13.042969 111.140625 13.894531 C 110.71875 14.746094 110.121094 15.40625 109.355469 15.882812 C 108.589844 16.359375 107.675781 16.59375 106.625 16.59375 Z M 106.625 15.144531 C 107.714844 15.144531 108.578125 14.757812 109.214844 13.980469 C 109.84375 13.203125 110.160156 12.199219 110.160156 10.960938 C 110.160156 9.722656 109.84375 8.71875 109.214844 7.9375 C 108.578125 7.160156 107.722656 6.773438 106.625 6.773438 C 105.53125 6.773438 104.667969 7.160156 104.039062 7.9375 C 103.402344 8.71875 103.089844 9.722656 103.089844 10.960938 C 103.089844 12.199219 103.410156 13.203125 104.039062 13.980469 C 104.667969 14.757812 105.53125 15.144531 106.625 15.144531 Z M 106.625 15.144531 "/>
<path style=" stroke:none;fill-rule:nonzero;fill:rgb(91.764706%,11.372549%,14.509804%);fill-opacity:1;" d="M 113.894531 16.355469 L 113.894531 5.566406 L 115.296875 5.566406 L 115.339844 7.570312 C 115.671875 6.894531 116.164062 6.347656 116.816406 5.941406 C 117.46875 5.53125 118.207031 5.328125 119.023438 5.328125 C 121.714844 5.328125 123.058594 6.921875 123.058594 10.121094 L 123.058594 16.355469 L 121.503906 16.355469 L 121.503906 10.164062 C 121.503906 9.039062 121.28125 8.199219 120.84375 7.625 C 120.410156 7.058594 119.722656 6.773438 118.785156 6.773438 C 117.78125 6.773438 116.96875 7.121094 116.355469 7.808594 C 115.746094 8.5 115.445312 9.402344 115.445312 10.527344 L 115.445312 16.355469 Z M 113.894531 16.355469 "/>
<path style=" stroke:none;fill-rule:nonzero;fill:rgb(91.764706%,11.372549%,14.509804%);fill-opacity:1;" d="M 130.257812 16.59375 C 129.179688 16.59375 128.257812 16.359375 127.488281 15.890625 C 126.722656 15.417969 126.128906 14.765625 125.714844 13.925781 C 125.300781 13.082031 125.089844 12.105469 125.089844 11 C 125.089844 9.863281 125.300781 8.871094 125.726562 8.023438 C 126.152344 7.179688 126.746094 6.511719 127.523438 6.035156 C 128.300781 5.558594 129.203125 5.328125 130.242188 5.328125 C 131.507812 5.328125 132.597656 5.671875 133.523438 6.359375 L 132.828125 7.570312 C 132.445312 7.308594 132.039062 7.121094 131.621094 7.007812 C 131.199219 6.894531 130.769531 6.835938 130.328125 6.835938 C 129.148438 6.835938 128.257812 7.21875 127.644531 7.980469 C 127.03125 8.738281 126.722656 9.734375 126.722656 10.953125 C 126.722656 12.222656 127.046875 13.226562 127.695312 13.964844 C 128.339844 14.703125 129.253906 15.078125 130.433594 15.078125 C 130.910156 15.078125 131.367188 15.015625 131.800781 14.882812 C 132.238281 14.753906 132.683594 14.558594 133.128906 14.300781 L 133.800781 15.464844 C 133.351562 15.820312 132.824219 16.097656 132.207031 16.292969 C 131.582031 16.496094 130.933594 16.59375 130.257812 16.59375 Z M 130.257812 16.59375 "/>
<path style=" stroke:none;fill-rule:nonzero;fill:rgb(91.764706%,11.372549%,14.509804%);fill-opacity:1;" d="M 139.808594 16.59375 C 138.730469 16.59375 137.792969 16.359375 137.007812 15.890625 C 136.21875 15.421875 135.597656 14.765625 135.160156 13.925781 C 134.726562 13.082031 134.503906 12.101562 134.503906 10.976562 C 134.503906 9.871094 134.714844 8.894531 135.128906 8.042969 C 135.542969 7.195312 136.121094 6.523438 136.851562 6.042969 C 137.585938 5.558594 138.425781 5.320312 139.378906 5.320312 C 140.773438 5.320312 141.875 5.792969 142.6875 6.734375 C 143.496094 7.675781 143.90625 8.9375 143.90625 10.523438 C 143.90625 10.683594 143.898438 10.867188 143.882812 11.085938 C 143.867188 11.300781 143.847656 11.484375 143.820312 11.625 L 136.121094 11.625 C 136.234375 12.71875 136.613281 13.578125 137.261719 14.203125 C 137.90625 14.828125 138.78125 15.140625 139.894531 15.140625 C 140.984375 15.140625 141.949219 14.863281 142.78125 14.300781 L 143.453125 15.464844 C 142.992188 15.820312 142.449219 16.097656 141.824219 16.292969 C 141.199219 16.496094 140.53125 16.59375 139.808594 16.59375 Z M 139.378906 6.773438 C 138.46875 6.773438 137.730469 7.09375 137.160156 7.734375 C 136.585938 8.375 136.246094 9.226562 136.144531 10.289062 L 142.375 10.289062 C 142.328125 9.164062 142.054688 8.300781 141.546875 7.6875 C 141.035156 7.082031 140.3125 6.773438 139.378906 6.773438 Z M 139.378906 6.773438 "/>
<path style=" stroke:none;fill-rule:nonzero;fill:rgb(91.764706%,11.372549%,14.509804%);fill-opacity:1;" d="M 149.082031 16.59375 C 148.292969 16.59375 147.554688 16.484375 146.878906 16.269531 C 146.203125 16.054688 145.621094 15.765625 145.132812 15.40625 L 145.800781 14.242188 C 146.261719 14.515625 146.769531 14.742188 147.332031 14.925781 C 147.894531 15.105469 148.484375 15.195312 149.101562 15.195312 C 149.863281 15.195312 150.449219 15.054688 150.851562 14.765625 C 151.253906 14.476562 151.453125 14.066406 151.453125 13.53125 C 151.453125 13.101562 151.292969 12.742188 150.96875 12.464844 C 150.648438 12.1875 150.113281 11.960938 149.363281 11.785156 L 148.394531 11.542969 C 146.367188 11.066406 145.351562 10.023438 145.351562 8.394531 C 145.351562 7.457031 145.699219 6.710938 146.398438 6.160156 C 147.09375 5.605469 148.019531 5.332031 149.164062 5.332031 C 150.535156 5.332031 151.730469 5.691406 152.769531 6.410156 L 152.121094 7.550781 C 151.15625 7.007812 150.179688 6.734375 149.1875 6.734375 C 148.46875 6.734375 147.917969 6.875 147.527344 7.15625 C 147.140625 7.433594 146.941406 7.824219 146.941406 8.332031 C 146.941406 8.777344 147.105469 9.144531 147.425781 9.421875 C 147.746094 9.699219 148.304688 9.945312 149.097656 10.140625 L 150.003906 10.378906 C 151.039062 10.640625 151.804688 11.003906 152.304688 11.484375 C 152.804688 11.960938 153.046875 12.59375 153.046875 13.402344 C 153.046875 14.394531 152.691406 15.171875 151.980469 15.742188 C 151.269531 16.308594 150.300781 16.59375 149.082031 16.59375 Z M 149.082031 16.59375 "/>
<path style=" stroke:none;fill-rule:nonzero;fill:rgb(91.764706%,11.372549%,14.509804%);fill-opacity:1;" d="M 158.136719 16.59375 C 157.347656 16.59375 156.609375 16.484375 155.933594 16.269531 C 155.261719 16.054688 154.675781 15.765625 154.1875 15.40625 L 154.855469 14.242188 C 155.316406 14.515625 155.828125 14.742188 156.390625 14.925781 C 156.949219 15.105469 157.542969 15.195312 158.160156 15.195312 C 158.921875 15.195312 159.503906 15.054688 159.90625 14.765625 C 160.308594 14.476562 160.507812 14.066406 160.507812 13.53125 C 160.507812 13.101562 160.351562 12.742188 160.027344 12.464844 C 159.703125 12.1875 159.167969 11.960938 158.421875 11.785156 L 157.449219 11.542969 C 155.425781 11.066406 154.410156 10.023438 154.410156 8.394531 C 154.410156 7.457031 154.753906 6.710938 155.453125 6.160156 C 156.152344 5.605469 157.074219 5.332031 158.222656 5.332031 C 159.589844 5.332031 160.785156 5.691406 161.824219 6.410156 L 161.179688 7.550781 C 160.214844 7.007812 159.238281 6.734375 158.246094 6.734375 C 157.523438 6.734375 156.972656 6.875 156.582031 7.15625 C 156.195312 7.433594 155.996094 7.824219 155.996094 8.332031 C 155.996094 8.777344 156.164062 9.144531 156.480469 9.421875 C 156.804688 9.699219 157.359375 9.945312 158.152344 10.140625 L 159.0625 10.378906 C 160.09375 10.640625 160.859375 11.003906 161.359375 11.484375 C 161.859375 11.960938 162.101562 12.59375 162.101562 13.402344 C 162.101562 14.394531 161.746094 15.171875 161.035156 15.742188 C 160.328125 16.308594 159.355469 16.59375 158.136719 16.59375 Z M 158.136719 16.59375 "/>
<path style=" stroke:none;fill-rule:nonzero;fill:rgb(91.764706%,11.372549%,14.509804%);fill-opacity:1;" d="M 164.796875 3.214844 C 164.480469 3.214844 164.226562 3.125 164.03125 2.941406 C 163.839844 2.757812 163.742188 2.503906 163.742188 2.175781 C 163.742188 1.84375 163.839844 1.589844 164.03125 1.40625 C 164.226562 1.226562 164.480469 1.136719 164.796875 1.136719 C 165.117188 1.136719 165.371094 1.226562 165.566406 1.40625 C 165.757812 1.589844 165.855469 1.84375 165.855469 2.175781 C 165.855469 2.503906 165.757812 2.757812 165.566406 2.941406 C 165.371094 3.125 165.117188 3.214844 164.796875 3.214844 Z M 164.019531 16.355469 L 164.019531 5.566406 L 165.574219 5.566406 L 165.574219 16.355469 Z M 164.019531 16.355469 "/>
<path style=" stroke:none;fill-rule:nonzero;fill:rgb(91.764706%,11.372549%,14.509804%);fill-opacity:1;" d="M 172.84375 16.59375 C 171.8125 16.59375 170.902344 16.355469 170.125 15.882812 C 169.347656 15.414062 168.746094 14.746094 168.328125 13.894531 C 167.902344 13.042969 167.691406 12.066406 167.691406 10.960938 C 167.691406 9.835938 167.902344 8.851562 168.328125 8.011719 C 168.753906 7.171875 169.347656 6.511719 170.125 6.035156 C 170.902344 5.558594 171.804688 5.328125 172.84375 5.328125 C 173.894531 5.328125 174.800781 5.566406 175.574219 6.035156 C 176.347656 6.507812 176.941406 7.171875 177.363281 8.011719 C 177.785156 8.851562 177.996094 9.835938 177.996094 10.960938 C 177.996094 12.066406 177.785156 13.042969 177.363281 13.894531 C 176.9375 14.746094 176.339844 15.40625 175.574219 15.882812 C 174.808594 16.359375 173.890625 16.59375 172.84375 16.59375 Z M 172.84375 15.144531 C 173.933594 15.144531 174.796875 14.757812 175.433594 13.980469 C 176.0625 13.203125 176.378906 12.199219 176.378906 10.960938 C 176.378906 9.722656 176.0625 8.71875 175.433594 7.9375 C 174.796875 7.160156 173.941406 6.773438 172.84375 6.773438 C 171.75 6.773438 170.886719 7.160156 170.257812 7.9375 C 169.621094 8.71875 169.308594 9.722656 169.308594 10.960938 C 169.308594 12.199219 169.628906 13.203125 170.257812 13.980469 C 170.886719 14.757812 171.75 15.144531 172.84375 15.144531 Z M 172.84375 15.144531 "/>
<path style=" stroke:none;fill-rule:nonzero;fill:rgb(91.764706%,11.372549%,14.509804%);fill-opacity:1;" d="M 180.109375 16.355469 L 180.109375 5.566406 L 181.507812 5.566406 L 181.554688 7.570312 C 181.882812 6.894531 182.378906 6.347656 183.03125 5.941406 C 183.683594 5.53125 184.421875 5.328125 185.238281 5.328125 C 187.925781 5.328125 189.273438 6.921875 189.273438 10.121094 L 189.273438 16.355469 L 187.71875 16.355469 L 187.71875 10.164062 C 187.71875 9.039062 187.496094 8.199219 187.058594 7.625 C 186.621094 7.058594 185.933594 6.773438 185 6.773438 C 183.996094 6.773438 183.183594 7.121094 182.570312 7.808594 C 181.957031 8.5 181.65625 9.402344 181.65625 10.527344 L 181.65625 16.355469 Z M 180.109375 16.355469 "/>
<path style=" stroke:none;fill-rule:nonzero;fill:rgb(91.764706%,11.372549%,14.509804%);fill-opacity:1;" d="M 191.988281 16.355469 L 191.988281 5.566406 L 193.390625 5.566406 L 193.4375 7.570312 C 193.765625 6.894531 194.257812 6.347656 194.910156 5.941406 C 195.566406 5.53125 196.300781 5.328125 197.121094 5.328125 C 199.808594 5.328125 201.152344 6.921875 201.152344 10.121094 L 201.152344 16.355469 L 199.597656 16.355469 L 199.597656 10.164062 C 199.597656 9.039062 199.378906 8.199219 198.941406 7.625 C 198.503906 7.058594 197.816406 6.773438 196.882812 6.773438 C 195.875 6.773438 195.066406 7.121094 194.453125 7.808594 C 193.839844 8.5 193.539062 9.402344 193.539062 10.527344 L 193.539062 16.355469 Z M 191.988281 16.355469 "/>
<path style=" stroke:none;fill-rule:nonzero;fill:rgb(91.764706%,11.372549%,14.509804%);fill-opacity:1;" d="M 206.824219 16.59375 C 205.753906 16.59375 204.90625 16.296875 204.257812 15.707031 C 203.609375 15.117188 203.289062 14.320312 203.289062 13.3125 C 203.289062 12.25 203.691406 11.402344 204.496094 10.785156 C 205.300781 10.164062 206.417969 9.859375 207.859375 9.859375 C 208.273438 9.859375 208.707031 9.882812 209.15625 9.933594 C 209.601562 9.984375 210.039062 10.0625 210.472656 10.183594 L 210.472656 9.902344 C 210.472656 8.808594 210.234375 8.011719 209.761719 7.519531 C 209.289062 7.023438 208.53125 6.773438 207.496094 6.773438 C 206.964844 6.773438 206.4375 6.859375 205.914062 7.023438 C 205.390625 7.1875 204.898438 7.417969 204.4375 7.707031 L 203.792969 6.566406 C 204.382812 6.148438 205.019531 5.835938 205.699219 5.640625 C 206.378906 5.441406 207.054688 5.335938 207.714844 5.335938 C 210.5625 5.335938 211.980469 6.882812 211.980469 9.976562 L 211.980469 16.367188 L 210.578125 16.367188 L 210.535156 14.488281 C 210.175781 15.164062 209.675781 15.683594 209.035156 16.054688 C 208.394531 16.410156 207.65625 16.59375 206.824219 16.59375 Z M 204.863281 13.226562 C 204.863281 13.816406 205.070312 14.28125 205.476562 14.628906 C 205.886719 14.976562 206.441406 15.144531 207.152344 15.144531 C 208.144531 15.144531 208.933594 14.816406 209.523438 14.164062 C 210.113281 13.511719 210.429688 12.613281 210.472656 11.476562 C 210.039062 11.390625 209.621094 11.328125 209.222656 11.296875 C 208.820312 11.261719 208.421875 11.242188 208.035156 11.242188 C 205.921875 11.242188 204.863281 11.902344 204.863281 13.226562 Z M 204.863281 13.226562 "/>
<path style=" stroke:none;fill-rule:nonzero;fill:rgb(91.764706%,11.372549%,14.509804%);fill-opacity:1;" d="M 215.46875 3.214844 C 215.152344 3.214844 214.898438 3.125 214.703125 2.941406 C 214.511719 2.757812 214.414062 2.503906 214.414062 2.175781 C 214.414062 1.84375 214.511719 1.589844 214.703125 1.40625 C 214.898438 1.226562 215.152344 1.136719 215.46875 1.136719 C 215.789062 1.136719 216.042969 1.226562 216.234375 1.40625 C 216.429688 1.589844 216.527344 1.84375 216.527344 2.175781 C 216.527344 2.503906 216.429688 2.757812 216.234375 2.941406 C 216.042969 3.125 215.789062 3.214844 215.46875 3.214844 Z M 214.691406 16.355469 L 214.691406 5.566406 L 216.246094 5.566406 L 216.246094 16.355469 Z M 214.691406 16.355469 "/>
<path style=" stroke:none;fill-rule:nonzero;fill:rgb(91.764706%,11.372549%,14.509804%);fill-opacity:1;" d="M 219.050781 16.355469 L 219.050781 5.566406 L 220.453125 5.566406 L 220.496094 7.613281 C 220.785156 6.894531 221.171875 6.34375 221.660156 5.960938 C 222.148438 5.582031 222.726562 5.390625 223.386719 5.390625 C 224.0625 5.390625 224.644531 5.578125 225.132812 5.953125 L 224.402344 7.199219 C 224.070312 7.011719 223.679688 6.921875 223.238281 6.921875 C 222.421875 6.921875 221.773438 7.308594 221.308594 8.085938 C 220.84375 8.863281 220.609375 9.9375 220.609375 11.300781 L 220.609375 16.347656 L 219.050781 16.347656 Z M 219.050781 16.355469 "/>
<path style=" stroke:none;fill-rule:nonzero;fill:rgb(91.764706%,11.372549%,14.509804%);fill-opacity:1;" d="M 230.5 16.59375 C 229.421875 16.59375 228.488281 16.359375 227.699219 15.890625 C 226.910156 15.421875 226.289062 14.765625 225.855469 13.925781 C 225.417969 13.082031 225.195312 12.101562 225.195312 10.976562 C 225.195312 9.871094 225.40625 8.894531 225.820312 8.042969 C 226.234375 7.195312 226.8125 6.523438 227.542969 6.042969 C 228.277344 5.558594 229.117188 5.320312 230.070312 5.320312 C 231.464844 5.320312 232.566406 5.792969 233.378906 6.734375 C 234.191406 7.675781 234.597656 8.9375 234.597656 10.523438 C 234.597656 10.683594 234.59375 10.867188 234.574219 11.085938 C 234.558594 11.300781 234.542969 11.484375 234.511719 11.625 L 226.8125 11.625 C 226.925781 12.71875 227.304688 13.578125 227.953125 14.203125 C 228.601562 14.828125 229.472656 15.140625 230.585938 15.140625 C 231.675781 15.140625 232.640625 14.863281 233.472656 14.300781 L 234.144531 15.464844 C 233.683594 15.820312 233.140625 16.097656 232.515625 16.292969 C 231.890625 16.496094 231.214844 16.59375 230.5 16.59375 Z M 230.070312 6.773438 C 229.160156 6.773438 228.425781 7.09375 227.851562 7.734375 C 227.277344 8.375 226.9375 9.226562 226.835938 10.289062 L 233.066406 10.289062 C 233.019531 9.164062 232.75 8.300781 232.238281 7.6875 C 231.726562 7.082031 231 6.773438 230.070312 6.773438 Z M 230.070312 6.773438 "/>
<path style=" stroke:none;fill-rule:nonzero;fill:rgb(91.764706%,11.372549%,14.509804%);fill-opacity:1;" d="M 268.496094 5.121094 C 265.328125 5.121094 262.753906 7.699219 262.753906 10.867188 C 262.753906 14.039062 265.328125 16.617188 268.496094 16.617188 C 271.664062 16.617188 274.238281 14.039062 274.238281 10.867188 C 274.238281 7.699219 271.667969 5.121094 268.496094 5.121094 Z M 268.496094 13.40625 C 267.101562 13.40625 265.964844 12.273438 265.964844 10.875 C 265.964844 9.476562 267.101562 8.34375 268.496094 8.34375 C 269.890625 8.34375 271.027344 9.476562 271.027344 10.875 C 271.03125 12.265625 269.890625 13.40625 268.496094 13.40625 Z M 268.496094 13.40625 "/>
<path style=" stroke:none;fill-rule:nonzero;fill:rgb(91.764706%,11.372549%,14.509804%);fill-opacity:1;" d="M 281.558594 5.394531 L 279.992188 5.394531 L 279.992188 2.003906 L 276.558594 2.003906 L 276.558594 5.394531 L 274.992188 5.394531 L 274.992188 8.507812 L 276.558594 8.507812 L 276.558594 16.347656 L 279.992188 16.347656 L 279.992188 8.507812 L 281.558594 8.507812 Z M 281.558594 5.394531 "/>
<path style=" stroke:none;fill-rule:nonzero;fill:rgb(91.764706%,11.372549%,14.509804%);fill-opacity:1;" d="M 283.136719 5.394531 L 286.570312 5.394531 L 286.570312 16.347656 L 283.136719 16.347656 Z M 283.136719 5.394531 "/>
<path style=" stroke:none;fill-rule:nonzero;fill:rgb(91.764706%,11.372549%,14.509804%);fill-opacity:1;" d="M 284.855469 0.0859375 C 283.800781 0.0859375 282.941406 0.941406 282.941406 2 C 282.941406 3.054688 283.800781 3.914062 284.855469 3.914062 C 285.910156 3.914062 286.765625 3.054688 286.765625 2 C 286.765625 0.949219 285.910156 0.0859375 284.855469 0.0859375 Z M 284.855469 0.0859375 "/>
<path style=" stroke:none;fill-rule:nonzero;fill:rgb(91.764706%,11.372549%,14.509804%);fill-opacity:1;" d="M 250.929688 13.402344 C 251.171875 12.804688 251.28125 12.203125 251.28125 11.386719 C 251.28125 10.277344 250.933594 9.289062 250.304688 8.601562 C 249.574219 7.796875 248.320312 7.132812 246.582031 6.621094 C 246.203125 6.507812 245.882812 6.386719 245.605469 6.253906 C 245.300781 6.105469 245.074219 5.921875 244.878906 5.710938 C 244.660156 5.472656 244.566406 5.183594 244.566406 4.828125 C 244.566406 4.316406 244.839844 3.976562 245.28125 3.695312 C 245.839844 3.34375 246.90625 3.308594 247.996094 3.71875 C 248.375 3.863281 248.714844 4.015625 249.101562 4.242188 L 250.558594 1.335938 C 250.015625 1.011719 249.242188 0.589844 248.464844 0.390625 C 247.675781 0.191406 246.933594 0.0976562 246.132812 0.0976562 C 245.328125 0.0976562 244.597656 0.214844 243.953125 0.453125 C 243.382812 0.664062 242.792969 1.050781 242.285156 1.539062 C 241.828125 1.980469 241.417969 2.613281 241.179688 3.203125 C 240.9375 3.804688 240.8125 4.480469 240.8125 5.230469 C 240.8125 6.007812 241.179688 7.261719 242.105469 8.132812 C 243.105469 9.070312 244.238281 9.402344 244.699219 9.578125 C 245.152344 9.757812 245.65625 9.902344 245.976562 10.035156 C 246.316406 10.171875 246.695312 10.347656 246.917969 10.511719 C 247.148438 10.6875 247.308594 10.847656 247.417969 11.066406 C 247.519531 11.285156 247.546875 11.484375 247.523438 11.765625 C 247.496094 12.128906 247.332031 12.4375 247.035156 12.710938 C 246.742188 12.988281 246.214844 13.144531 245.457031 13.144531 C 244.828125 13.144531 244.183594 12.96875 243.546875 12.6875 C 242.984375 12.4375 242.59375 12.214844 241.992188 11.863281 L 240.277344 14.855469 C 241.476562 15.917969 243.414062 16.628906 245.148438 16.628906 C 246.03125 16.628906 246.949219 16.480469 247.734375 16.214844 C 248.472656 15.964844 249.210938 15.554688 249.699219 15.117188 C 250.214844 14.644531 250.683594 13.988281 250.929688 13.402344 Z M 250.929688 13.402344 "/>
<path style=" stroke:none;fill-rule:nonzero;fill:rgb(91.764706%,11.372549%,14.509804%);fill-opacity:1;" d="M 260.335938 12.460938 C 259.871094 13.039062 259.160156 13.40625 258.363281 13.40625 C 256.964844 13.40625 255.832031 12.273438 255.832031 10.875 C 255.832031 9.476562 256.964844 8.34375 258.363281 8.34375 C 259.15625 8.34375 259.871094 8.710938 260.335938 9.289062 L 262.613281 7.011719 C 261.5625 5.855469 260.046875 5.128906 258.363281 5.128906 C 255.195312 5.128906 252.4375 7.382812 252.4375 10.875 C 252.4375 14.367188 255.195312 16.621094 258.363281 16.621094 C 260.042969 16.621094 261.558594 15.894531 262.613281 14.738281 Z M 260.335938 12.460938 "/>
<path style=" stroke:none;fill-rule:nonzero;fill:rgb(91.764706%,11.372549%,14.509804%);fill-opacity:1;" d="M 300 16.347656 L 300 5.394531 L 296.652344 5.394531 L 296.652344 6.546875 L 296.339844 6.269531 C 295.5 5.519531 294.5625 5.121094 293.457031 5.121094 C 290.5 5.121094 288.011719 7.757812 288.011719 10.867188 C 288.011719 13.980469 290.507812 16.617188 293.457031 16.617188 C 294.5625 16.617188 295.5 16.21875 296.339844 15.46875 L 296.652344 15.191406 L 296.652344 16.34375 L 300 16.34375 Z M 293.996094 13.457031 C 292.574219 13.457031 291.414062 12.300781 291.414062 10.875 C 291.414062 9.449219 292.574219 8.285156 293.996094 8.285156 C 295.421875 8.285156 296.585938 9.445312 296.585938 10.875 C 296.578125 12.300781 295.421875 13.457031 293.996094 13.457031 Z M 293.996094 13.457031 "/>
</g>
</svg>
