<?xml version="1.0" encoding="UTF-8"?>
<svg xmlns="http://www.w3.org/2000/svg" xmlns:xlink="http://www.w3.org/1999/xlink" width="300px" height="28px" viewBox="0 0 298 28" version="1.1">
<g id="surface1">
<path style=" stroke:none;fill-rule:nonzero;fill:rgb(91.764706%,11.372549%,14.509804%);fill-opacity:1;" d="M 37.539062 6.855469 C 33.328125 6.855469 29.894531 10.28125 29.894531 14.503906 C 29.894531 18.722656 33.320312 22.152344 37.539062 22.152344 C 41.757812 22.152344 45.183594 18.722656 45.183594 14.503906 C 45.183594 10.28125 41.75 6.855469 37.539062 6.855469 Z M 37.539062 17.871094 C 35.679688 17.871094 34.167969 16.355469 34.167969 14.496094 C 34.167969 12.632812 35.679688 11.121094 37.539062 11.121094 C 39.398438 11.121094 40.910156 12.632812 40.910156 14.496094 C 40.910156 16.355469 39.390625 17.871094 37.539062 17.871094 Z M 37.539062 17.871094 "/>
<path style=" stroke:none;fill-rule:nonzero;fill:rgb(91.764706%,11.372549%,14.509804%);fill-opacity:1;" d="M 54.914062 7.21875 L 52.824219 7.21875 L 52.824219 2.703125 L 48.257812 2.703125 L 48.257812 7.21875 L 46.171875 7.21875 L 46.171875 11.347656 L 48.257812 11.347656 L 48.257812 21.78125 L 52.824219 21.78125 L 52.824219 11.347656 L 54.914062 11.347656 Z M 54.914062 7.21875 "/>
<path style=" stroke:none;fill-rule:nonzero;fill:rgb(91.764706%,11.372549%,14.509804%);fill-opacity:1;" d="M 57.007812 7.21875 L 61.574219 7.21875 L 61.574219 21.78125 L 57.007812 21.78125 Z M 57.007812 7.21875 "/>
<path style=" stroke:none;fill-rule:nonzero;fill:rgb(91.764706%,11.372549%,14.509804%);fill-opacity:1;" d="M 59.289062 0.152344 C 57.882812 0.152344 56.742188 1.296875 56.742188 2.703125 C 56.742188 4.109375 57.882812 5.25 59.289062 5.25 C 60.695312 5.25 61.839844 4.109375 61.839844 2.703125 C 61.839844 1.296875 60.695312 0.152344 59.289062 0.152344 Z M 59.289062 0.152344 "/>
<path style=" stroke:none;fill-rule:nonzero;fill:rgb(91.764706%,11.372549%,14.509804%);fill-opacity:1;" d="M 14.167969 17.863281 C 14.492188 17.066406 14.636719 16.265625 14.636719 15.175781 C 14.636719 13.707031 14.175781 12.390625 13.335938 11.476562 C 12.363281 10.410156 10.699219 9.519531 8.382812 8.835938 C 7.878906 8.6875 7.453125 8.527344 7.085938 8.351562 C 6.675781 8.15625 6.375 7.914062 6.117188 7.632812 C 5.820312 7.316406 5.699219 6.929688 5.699219 6.453125 C 5.699219 5.78125 6.0625 5.320312 6.652344 4.949219 C 7.394531 4.480469 8.816406 4.433594 10.265625 4.980469 C 10.773438 5.167969 11.226562 5.371094 11.742188 5.675781 L 13.683594 1.808594 C 12.964844 1.378906 11.9375 0.820312 10.902344 0.554688 C 9.851562 0.289062 8.867188 0.160156 7.800781 0.160156 C 6.738281 0.160156 5.761719 0.320312 4.90625 0.636719 C 4.144531 0.917969 3.355469 1.429688 2.691406 2.082031 C 2.085938 2.671875 1.535156 3.511719 1.21875 4.289062 C 0.890625 5.085938 0.726562 5.992188 0.726562 6.984375 C 0.726562 8.019531 1.21875 9.691406 2.449219 10.839844 C 3.78125 12.089844 5.285156 12.535156 5.898438 12.769531 C 6.496094 13.003906 7.175781 13.203125 7.597656 13.375 C 8.050781 13.558594 8.558594 13.792969 8.847656 14.011719 C 9.15625 14.246094 9.367188 14.457031 9.511719 14.753906 C 9.648438 15.039062 9.683594 15.304688 9.65625 15.683594 C 9.617188 16.160156 9.398438 16.566406 9.003906 16.9375 C 8.613281 17.308594 7.910156 17.519531 6.902344 17.519531 C 6.0625 17.519531 5.210938 17.285156 4.355469 16.910156 C 3.605469 16.574219 3.085938 16.28125 2.285156 15.8125 L 0 19.789062 C 1.59375 21.207031 4.171875 22.152344 6.480469 22.152344 C 7.652344 22.152344 8.875 21.953125 9.917969 21.597656 C 10.902344 21.265625 11.878906 20.722656 12.527344 20.140625 C 13.207031 19.511719 13.84375 18.640625 14.167969 17.863281 Z M 14.167969 17.863281 "/>
<path style=" stroke:none;fill-rule:nonzero;fill:rgb(91.764706%,11.372549%,14.509804%);fill-opacity:1;" d="M 26.671875 16.605469 C 26.054688 17.371094 25.109375 17.863281 24.050781 17.863281 C 22.191406 17.863281 20.679688 16.347656 20.679688 14.488281 C 20.679688 12.628906 22.191406 11.113281 24.050781 11.113281 C 25.109375 11.113281 26.054688 11.605469 26.671875 12.371094 L 29.699219 9.335938 C 28.300781 7.800781 26.28125 6.832031 24.050781 6.832031 C 19.839844 6.832031 16.164062 9.835938 16.164062 14.480469 C 16.164062 19.125 19.832031 22.128906 24.050781 22.128906 C 26.289062 22.128906 28.300781 21.160156 29.699219 19.625 Z M 26.671875 16.605469 "/>
<path style=" stroke:none;fill-rule:nonzero;fill:rgb(91.764706%,11.372549%,14.509804%);fill-opacity:1;" d="M 79.4375 21.78125 L 79.4375 7.21875 L 74.984375 7.21875 L 74.984375 8.746094 L 74.570312 8.375 C 73.449219 7.378906 72.203125 6.847656 70.738281 6.847656 C 66.804688 6.847656 63.484375 10.351562 63.484375 14.496094 C 63.484375 18.640625 66.804688 22.144531 70.738281 22.144531 C 72.203125 22.144531 73.457031 21.613281 74.570312 20.617188 L 74.984375 20.246094 L 74.984375 21.773438 L 79.4375 21.773438 Z M 71.453125 17.9375 C 69.558594 17.9375 68.015625 16.394531 68.015625 14.496094 C 68.015625 12.597656 69.558594 11.054688 71.453125 11.054688 C 73.351562 11.054688 74.894531 12.597656 74.894531 14.496094 C 74.894531 16.394531 73.34375 17.9375 71.453125 17.9375 Z M 71.453125 17.9375 "/>
<path style=" stroke:none;fill-rule:nonzero;fill:rgb(91.764706%,11.372549%,14.509804%);fill-opacity:1;" d="M 88.585938 21.78125 L 88.585938 1.660156 L 93.441406 1.660156 C 96.964844 1.660156 99.679688 2.527344 101.582031 4.277344 C 103.488281 6.023438 104.441406 8.503906 104.441406 11.71875 C 104.441406 14.941406 103.488281 17.421875 101.582031 19.164062 C 99.679688 20.910156 96.964844 21.78125 93.441406 21.78125 Z M 93.441406 3.671875 L 90.773438 3.671875 L 90.773438 19.769531 L 93.441406 19.769531 C 96.3125 19.769531 98.492188 19.085938 99.972656 17.726562 C 101.457031 16.363281 102.203125 14.359375 102.203125 11.71875 C 102.203125 9.070312 101.464844 7.074219 99.972656 5.710938 C 98.5 4.351562 96.3125 3.671875 93.441406 3.671875 Z M 93.441406 3.671875 "/>
<path style=" stroke:none;fill-rule:nonzero;fill:rgb(91.764706%,11.372549%,14.509804%);fill-opacity:1;" d="M 113.644531 22.097656 C 112.207031 22.097656 110.957031 21.789062 109.90625 21.167969 C 108.855469 20.546875 108.03125 19.667969 107.449219 18.550781 C 106.867188 17.429688 106.574219 16.121094 106.574219 14.625 C 106.574219 13.148438 106.855469 11.847656 107.40625 10.714844 C 107.957031 9.585938 108.730469 8.695312 109.703125 8.050781 C 110.679688 7.40625 111.796875 7.089844 113.070312 7.089844 C 114.929688 7.089844 116.394531 7.71875 117.476562 8.972656 C 118.558594 10.230469 119.101562 11.910156 119.101562 14.019531 C 119.101562 14.230469 119.09375 14.480469 119.070312 14.769531 C 119.046875 15.054688 119.027344 15.296875 118.988281 15.488281 L 108.730469 15.488281 C 108.878906 16.9375 109.386719 18.089844 110.25 18.921875 C 111.109375 19.753906 112.28125 20.167969 113.757812 20.167969 C 115.207031 20.167969 116.492188 19.796875 117.605469 19.050781 L 118.496094 20.601562 C 117.882812 21.078125 117.160156 21.449219 116.328125 21.703125 C 115.496094 21.96875 114.59375 22.097656 113.644531 22.097656 Z M 113.070312 9.019531 C 111.859375 9.019531 110.875 9.441406 110.113281 10.296875 C 109.347656 11.152344 108.894531 12.285156 108.757812 13.703125 L 117.058594 13.703125 C 117 12.203125 116.636719 11.054688 115.957031 10.238281 C 115.277344 9.417969 114.308594 9.019531 113.070312 9.019531 Z M 113.070312 9.019531 "/>
<path style=" stroke:none;fill-rule:nonzero;fill:rgb(91.764706%,11.372549%,14.509804%);fill-opacity:1;" d="M 125.710938 22.097656 C 124.289062 22.097656 123.152344 21.703125 122.292969 20.917969 C 121.429688 20.132812 121 19.070312 121 17.726562 C 121 16.3125 121.535156 15.183594 122.609375 14.359375 C 123.683594 13.535156 125.171875 13.125 127.09375 13.125 C 127.652344 13.125 128.226562 13.15625 128.816406 13.226562 C 129.414062 13.292969 129.996094 13.398438 130.570312 13.558594 L 130.570312 13.1875 C 130.570312 11.726562 130.253906 10.667969 129.625 10.007812 C 129 9.351562 127.984375 9.019531 126.609375 9.019531 C 125.898438 9.019531 125.195312 9.132812 124.5 9.351562 C 123.804688 9.570312 123.148438 9.875 122.535156 10.257812 L 121.671875 8.738281 C 122.457031 8.1875 123.304688 7.769531 124.210938 7.503906 C 125.121094 7.242188 126.019531 7.105469 126.898438 7.105469 C 130.691406 7.105469 132.582031 9.164062 132.582031 13.285156 L 132.582031 21.796875 L 130.714844 21.796875 L 130.652344 19.292969 C 130.179688 20.191406 129.511719 20.886719 128.660156 21.371094 C 127.804688 21.847656 126.820312 22.097656 125.710938 22.097656 Z M 123.09375 17.613281 C 123.09375 18.398438 123.367188 19.019531 123.910156 19.480469 C 124.453125 19.941406 125.195312 20.167969 126.132812 20.167969 C 127.457031 20.167969 128.507812 19.730469 129.292969 18.859375 C 130.078125 17.992188 130.503906 16.796875 130.554688 15.28125 C 129.980469 15.167969 129.421875 15.085938 128.894531 15.039062 C 128.355469 14.996094 127.828125 14.972656 127.3125 14.972656 C 124.5 14.964844 123.09375 15.847656 123.09375 17.613281 Z M 123.09375 17.613281 "/>
<path style=" stroke:none;fill-rule:nonzero;fill:rgb(91.764706%,11.372549%,14.509804%);fill-opacity:1;" d="M 136.195312 21.78125 L 136.195312 0.796875 L 138.269531 0.796875 L 138.269531 21.78125 Z M 136.195312 21.78125 "/>
<path style=" stroke:none;fill-rule:nonzero;fill:rgb(91.764706%,11.372549%,14.509804%);fill-opacity:1;" d="M 148.148438 22.097656 C 146.714844 22.097656 145.464844 21.789062 144.414062 21.167969 C 143.363281 20.546875 142.539062 19.667969 141.957031 18.550781 C 141.375 17.429688 141.082031 16.121094 141.082031 14.625 C 141.082031 13.148438 141.359375 11.847656 141.910156 10.714844 C 142.464844 9.585938 143.234375 8.695312 144.210938 8.050781 C 145.1875 7.40625 146.304688 7.089844 147.574219 7.089844 C 149.433594 7.089844 150.902344 7.71875 151.984375 8.972656 C 153.0625 10.230469 153.609375 11.910156 153.609375 14.019531 C 153.609375 14.230469 153.601562 14.480469 153.578125 14.769531 C 153.554688 15.054688 153.53125 15.296875 153.496094 15.488281 L 143.234375 15.488281 C 143.386719 16.9375 143.894531 18.089844 144.753906 18.921875 C 145.617188 19.753906 146.789062 20.167969 148.261719 20.167969 C 149.714844 20.167969 151 19.796875 152.109375 19.050781 L 153.003906 20.601562 C 152.390625 21.078125 151.664062 21.449219 150.832031 21.703125 C 150 21.96875 149.101562 22.097656 148.148438 22.097656 Z M 147.574219 9.019531 C 146.363281 9.019531 145.382812 9.441406 144.617188 10.296875 C 143.855469 11.152344 143.402344 12.285156 143.265625 13.703125 L 151.566406 13.703125 C 151.507812 12.203125 151.144531 11.054688 150.464844 10.238281 C 149.78125 9.417969 148.816406 9.019531 147.574219 9.019531 Z M 147.574219 9.019531 "/>
<path style=" stroke:none;fill-rule:nonzero;fill:rgb(91.764706%,11.372549%,14.509804%);fill-opacity:1;" d="M 156.277344 21.78125 L 156.277344 7.40625 L 158.144531 7.40625 L 158.203125 10.136719 C 158.589844 9.175781 159.105469 8.445312 159.753906 7.9375 C 160.40625 7.429688 161.175781 7.171875 162.054688 7.171875 C 162.953125 7.171875 163.730469 7.421875 164.382812 7.921875 L 163.40625 9.585938 C 162.96875 9.335938 162.445312 9.214844 161.855469 9.214844 C 160.769531 9.214844 159.90625 9.730469 159.285156 10.765625 C 158.667969 11.800781 158.347656 13.230469 158.347656 15.046875 L 158.347656 21.773438 L 156.277344 21.773438 Z M 156.277344 21.78125 "/>
<path style=" stroke:none;fill-rule:nonzero;fill:rgb(91.764706%,11.372549%,14.509804%);fill-opacity:1;" d="M 169.808594 21.78125 L 177.96875 1.660156 L 179.632812 1.660156 L 187.789062 21.78125 L 185.492188 21.78125 L 183.625 17.039062 L 173.914062 17.039062 L 172.078125 21.78125 Z M 174.664062 15.109375 L 182.882812 15.109375 L 178.777344 4.585938 Z M 174.664062 15.109375 "/>
<path style=" stroke:none;fill-rule:nonzero;fill:rgb(91.764706%,11.372549%,14.509804%);fill-opacity:1;" d="M 195.09375 22.097656 C 193.792969 22.097656 192.644531 21.78125 191.660156 21.152344 C 190.671875 20.515625 189.90625 19.640625 189.363281 18.503906 C 188.816406 17.378906 188.546875 16.070312 188.546875 14.59375 C 188.546875 13.097656 188.824219 11.789062 189.378906 10.652344 C 189.929688 9.527344 190.699219 8.648438 191.691406 8.019531 C 192.671875 7.398438 193.832031 7.089844 195.152344 7.089844 C 196.242188 7.089844 197.234375 7.355469 198.109375 7.875 C 198.996094 8.40625 199.660156 9.085938 200.121094 9.933594 L 200.121094 0.796875 L 202.191406 0.796875 L 202.191406 21.78125 L 200.316406 21.78125 L 200.234375 19.109375 C 199.773438 20.046875 199.101562 20.78125 198.207031 21.3125 C 197.316406 21.832031 196.28125 22.097656 195.09375 22.097656 Z M 195.402344 20.167969 C 196.816406 20.167969 197.957031 19.65625 198.820312 18.632812 C 199.683594 17.613281 200.113281 16.25 200.113281 14.5625 C 200.113281 12.898438 199.691406 11.554688 198.835938 10.539062 C 197.980469 9.527344 196.839844 9.019531 195.402344 9.019531 C 194.464844 9.019531 193.640625 9.253906 192.929688 9.722656 C 192.21875 10.191406 191.667969 10.839844 191.28125 11.675781 C 190.890625 12.507812 190.691406 13.480469 190.691406 14.59375 C 190.691406 16.257812 191.132812 17.605469 192 18.632812 C 192.871094 19.65625 194.003906 20.167969 195.402344 20.167969 Z M 195.402344 20.167969 "/>
<path style=" stroke:none;fill-rule:nonzero;fill:rgb(91.764706%,11.372549%,14.509804%);fill-opacity:1;" d="M 209.972656 21.78125 L 204.050781 7.40625 L 206.320312 7.40625 L 210.855469 18.988281 L 215.371094 7.40625 L 217.554688 7.40625 L 211.636719 21.78125 Z M 209.972656 21.78125 "/>
<path style=" stroke:none;fill-rule:nonzero;fill:rgb(91.764706%,11.372549%,14.509804%);fill-opacity:1;" d="M 222.789062 22.097656 C 221.367188 22.097656 220.230469 21.703125 219.371094 20.917969 C 218.507812 20.132812 218.078125 19.070312 218.078125 17.726562 C 218.078125 16.3125 218.613281 15.183594 219.6875 14.359375 C 220.761719 13.535156 222.25 13.125 224.171875 13.125 C 224.722656 13.125 225.296875 13.15625 225.894531 13.226562 C 226.492188 13.292969 227.074219 13.398438 227.648438 13.558594 L 227.648438 13.1875 C 227.648438 11.726562 227.332031 10.667969 226.703125 10.007812 C 226.078125 9.351562 225.0625 9.019531 223.6875 9.019531 C 222.976562 9.019531 222.273438 9.132812 221.578125 9.351562 C 220.882812 9.570312 220.222656 9.875 219.613281 10.257812 L 218.75 8.738281 C 219.535156 8.1875 220.382812 7.769531 221.289062 7.503906 C 222.199219 7.242188 223.097656 7.105469 223.972656 7.105469 C 227.769531 7.105469 229.660156 9.164062 229.660156 13.285156 L 229.660156 21.796875 L 227.792969 21.796875 L 227.730469 19.292969 C 227.253906 20.191406 226.589844 20.886719 225.734375 21.371094 C 224.882812 21.847656 223.898438 22.097656 222.789062 22.097656 Z M 220.171875 17.613281 C 220.171875 18.398438 220.445312 19.019531 220.988281 19.480469 C 221.53125 19.941406 222.273438 20.167969 223.21875 20.167969 C 224.542969 20.167969 225.59375 19.730469 226.378906 18.859375 C 227.164062 17.992188 227.589844 16.796875 227.640625 15.28125 C 227.066406 15.167969 226.507812 15.085938 225.976562 15.039062 C 225.441406 14.996094 224.910156 14.972656 224.398438 14.972656 C 221.578125 14.964844 220.171875 15.847656 220.171875 17.613281 Z M 220.171875 17.613281 "/>
<path style=" stroke:none;fill-rule:nonzero;fill:rgb(91.764706%,11.372549%,14.509804%);fill-opacity:1;" d="M 233.273438 21.78125 L 233.273438 7.40625 L 235.140625 7.40625 L 235.203125 10.078125 C 235.640625 9.175781 236.296875 8.453125 237.167969 7.90625 C 238.035156 7.363281 239.019531 7.089844 240.109375 7.089844 C 243.691406 7.089844 245.484375 9.214844 245.484375 13.472656 L 245.484375 21.78125 L 243.414062 21.78125 L 243.414062 13.527344 C 243.414062 12.03125 243.117188 10.910156 242.535156 10.144531 C 241.953125 9.390625 241.039062 9.011719 239.792969 9.011719 C 238.453125 9.011719 237.371094 9.472656 236.554688 10.386719 C 235.738281 11.3125 235.339844 12.511719 235.339844 14.011719 L 235.339844 21.773438 L 233.273438 21.773438 Z M 233.273438 21.78125 "/>
<path style=" stroke:none;fill-rule:nonzero;fill:rgb(91.764706%,11.372549%,14.509804%);fill-opacity:1;" d="M 253.152344 21.953125 C 250.601562 21.953125 249.332031 20.441406 249.332031 17.414062 L 249.332031 9.246094 L 247.382812 9.246094 L 247.382812 7.40625 L 249.332031 7.40625 L 249.332031 3.125 L 251.402344 3.125 L 251.402344 7.40625 L 255.488281 7.40625 L 255.488281 9.246094 L 251.402344 9.246094 L 251.402344 17.40625 C 251.402344 18.347656 251.578125 19.019531 251.933594 19.421875 C 252.289062 19.820312 252.804688 20.023438 253.46875 20.023438 C 254.066406 20.023438 254.691406 19.835938 255.367188 19.449219 L 256.199219 20.917969 C 255.8125 21.226562 255.359375 21.476562 254.835938 21.667969 C 254.308594 21.855469 253.746094 21.953125 253.152344 21.953125 Z M 253.152344 21.953125 "/>
<path style=" stroke:none;fill-rule:nonzero;fill:rgb(91.764706%,11.372549%,14.509804%);fill-opacity:1;" d="M 261.972656 22.097656 C 260.550781 22.097656 259.417969 21.703125 258.554688 20.917969 C 257.695312 20.132812 257.261719 19.070312 257.261719 17.726562 C 257.261719 16.3125 257.800781 15.183594 258.875 14.359375 C 259.949219 13.535156 261.4375 13.125 263.359375 13.125 C 263.910156 13.125 264.484375 13.15625 265.082031 13.226562 C 265.679688 13.292969 266.261719 13.398438 266.835938 13.558594 L 266.835938 13.1875 C 266.835938 11.726562 266.519531 10.667969 265.890625 10.007812 C 265.253906 9.351562 264.25 9.019531 262.875 9.019531 C 262.164062 9.019531 261.460938 9.132812 260.765625 9.351562 C 260.070312 9.570312 259.410156 9.875 258.796875 10.257812 L 257.9375 8.738281 C 258.722656 8.1875 259.570312 7.769531 260.476562 7.503906 C 261.382812 7.242188 262.285156 7.105469 263.160156 7.105469 C 266.957031 7.105469 268.847656 9.164062 268.847656 13.285156 L 268.847656 21.796875 L 266.980469 21.796875 L 266.917969 19.292969 C 266.441406 20.191406 265.777344 20.886719 264.921875 21.371094 C 264.066406 21.847656 263.085938 22.097656 261.972656 22.097656 Z M 259.359375 17.613281 C 259.359375 18.398438 259.628906 19.019531 260.175781 19.480469 C 260.71875 19.941406 261.460938 20.167969 262.40625 20.167969 C 263.726562 20.167969 264.777344 19.730469 265.566406 18.859375 C 266.351562 17.992188 266.773438 16.796875 266.828125 15.28125 C 266.253906 15.167969 265.695312 15.085938 265.164062 15.039062 C 264.628906 14.996094 264.097656 14.972656 263.585938 14.972656 C 260.765625 14.964844 259.359375 15.847656 259.359375 17.613281 Z M 259.359375 17.613281 "/>
<path style=" stroke:none;fill-rule:nonzero;fill:rgb(91.764706%,11.372549%,14.509804%);fill-opacity:1;" d="M 277.261719 17.265625 C 276.339844 17.265625 275.507812 17.113281 274.757812 16.800781 C 274.609375 17.113281 274.53125 17.421875 274.53125 17.75 C 274.53125 18.226562 274.667969 18.582031 274.949219 18.816406 C 275.226562 19.042969 275.660156 19.1875 276.253906 19.246094 L 279.53125 19.5625 C 281.003906 19.699219 282.128906 20.078125 282.910156 20.699219 C 283.6875 21.320312 284.074219 22.195312 284.074219 23.332031 C 284.074219 24.769531 283.484375 25.878906 282.304688 26.667969 C 281.125 27.453125 279.515625 27.847656 277.464844 27.847656 C 275.378906 27.847656 273.738281 27.4375 272.550781 26.613281 C 271.363281 25.789062 270.765625 24.648438 270.765625 23.195312 C 270.765625 22.445312 270.964844 21.773438 271.355469 21.183594 C 271.75 20.585938 272.277344 20.132812 272.953125 19.804688 C 272.664062 19.382812 272.519531 18.867188 272.519531 18.253906 C 272.519531 17.46875 272.800781 16.71875 273.351562 16.015625 C 272.800781 15.554688 272.371094 15.003906 272.058594 14.351562 C 271.75 13.703125 271.597656 12.984375 271.597656 12.195312 C 271.597656 11.199219 271.832031 10.320312 272.300781 9.5625 C 272.769531 8.808594 273.429688 8.210938 274.28125 7.761719 C 275.136719 7.324219 276.128906 7.105469 277.253906 7.105469 C 278.363281 7.105469 279.347656 7.324219 280.210938 7.761719 L 284.375 7.761719 L 284.375 9.230469 L 282.109375 9.433594 C 282.644531 10.238281 282.910156 11.160156 282.910156 12.195312 C 282.910156 13.171875 282.675781 14.042969 282.207031 14.8125 C 281.738281 15.578125 281.070312 16.183594 280.226562 16.621094 C 279.378906 17.042969 278.386719 17.265625 277.261719 17.265625 Z M 272.777344 22.929688 C 272.777344 23.929688 273.203125 24.699219 274.039062 25.261719 C 274.878906 25.8125 276.074219 26.09375 277.601562 26.09375 C 279.023438 26.09375 280.105469 25.851562 280.84375 25.375 C 281.59375 24.898438 281.964844 24.253906 281.964844 23.445312 C 281.964844 22.832031 281.746094 22.378906 281.304688 22.089844 C 280.867188 21.804688 280.113281 21.613281 279.039062 21.515625 L 275.878906 21.199219 C 275.191406 21.121094 274.601562 20.976562 274.125 20.765625 C 273.222656 21.234375 272.777344 21.953125 272.777344 22.929688 Z M 277.261719 15.457031 C 278.394531 15.457031 279.273438 15.160156 279.90625 14.5625 C 280.542969 13.972656 280.851562 13.171875 280.851562 12.179688 C 280.851562 11.183594 280.535156 10.386719 279.90625 9.796875 C 279.273438 9.207031 278.394531 8.90625 277.261719 8.90625 C 276.148438 8.90625 275.273438 9.199219 274.628906 9.796875 C 273.988281 10.394531 273.671875 11.191406 273.671875 12.179688 C 273.671875 13.179688 273.988281 13.972656 274.628906 14.5625 C 275.273438 15.160156 276.148438 15.457031 277.261719 15.457031 Z M 277.261719 15.457031 "/>
<path style=" stroke:none;fill-rule:nonzero;fill:rgb(91.764706%,11.372549%,14.509804%);fill-opacity:1;" d="M 292.542969 22.097656 C 291.105469 22.097656 289.855469 21.789062 288.804688 21.167969 C 287.753906 20.546875 286.929688 19.667969 286.347656 18.550781 C 285.765625 17.429688 285.472656 16.121094 285.472656 14.625 C 285.472656 13.148438 285.75 11.847656 286.304688 10.714844 C 286.855469 9.585938 287.625 8.695312 288.601562 8.050781 C 289.578125 7.40625 290.695312 7.089844 291.964844 7.089844 C 293.828125 7.089844 295.292969 7.71875 296.375 8.972656 C 297.457031 10.230469 298 11.910156 298 14.019531 C 298 14.230469 297.992188 14.480469 297.96875 14.769531 C 297.945312 15.054688 297.925781 15.296875 297.886719 15.488281 L 287.625 15.488281 C 287.777344 16.9375 288.285156 18.089844 289.148438 18.921875 C 290.007812 19.753906 291.171875 20.167969 292.65625 20.167969 C 294.105469 20.167969 295.390625 19.796875 296.503906 19.050781 L 297.394531 20.601562 C 296.78125 21.078125 296.058594 21.449219 295.226562 21.703125 C 294.394531 21.96875 293.5 22.097656 292.542969 22.097656 Z M 291.964844 9.019531 C 290.757812 9.019531 289.773438 9.441406 289.011719 10.296875 C 288.246094 11.152344 287.792969 12.285156 287.65625 13.703125 L 295.957031 13.703125 C 295.898438 12.203125 295.535156 11.054688 294.855469 10.238281 C 294.175781 9.425781 293.214844 9.019531 291.964844 9.019531 Z M 291.964844 9.019531 "/>
</g>
</svg>
