<svg width="153" height="117" viewBox="0 0 153 117" fill="none" xmlns="http://www.w3.org/2000/svg">
<path d="M108.397 112.763C107.845 112.763 107.397 113.211 107.397 113.763H108.397V112.763ZM132.034 112.763H108.397V113.763H132.034V112.763ZM133.034 113.763C133.034 113.211 132.586 112.763 132.034 112.763V113.763H133.034ZM132.034 114.763C132.586 114.763 133.034 114.316 133.034 113.763H132.034V114.763ZM108.397 114.763H132.034V113.763H108.397V114.763ZM107.397 113.763C107.397 114.316 107.845 114.763 108.397 114.763V113.763H107.397ZM29.5896 112.763C29.0373 112.763 28.5896 113.211 28.5896 113.763H29.5896V112.763ZM43.5553 112.763H29.5896V113.763H43.5553V112.763ZM44.5553 113.763C44.5553 113.211 44.1075 112.763 43.5553 112.763V113.763H44.5553ZM43.5553 114.763C44.1075 114.763 44.5553 114.316 44.5553 113.763H43.5553V114.763ZM29.5896 114.763H43.5553V113.763H29.5896V114.763ZM28.5896 113.763C28.5896 114.316 29.0373 114.763 29.5896 114.763V113.763H28.5896ZM16.1605 112.763C15.6082 112.763 15.1605 113.211 15.1605 113.763H16.1605V112.763ZM22.1438 112.763H16.1605V113.763H22.1438V112.763ZM23.1438 113.763C23.1438 113.211 22.696 112.763 22.1438 112.763V113.763H23.1438ZM22.1438 114.763C22.696 114.763 23.1438 114.316 23.1438 113.763H22.1438V114.763ZM16.1605 114.763H22.1438V113.763H16.1605V114.763ZM15.1605 113.763C15.1605 114.316 15.6082 114.763 16.1605 114.763V113.763H15.1605Z" fill="#EB1D26"/>
<path d="M112.279 113.25H40.5963L0.379195 75.9744C-0.126398 75.468 -0.126398 74.6394 0.379195 74.133L75.5182 0.379313C76.0245 -0.126438 76.8511 -0.126438 77.3567 0.379313L152.621 74.133C153.126 74.6394 153.126 75.468 152.621 75.9744L112.279 113.25Z" fill="#F3F4F6"/>
<path d="M68.3266 46.8856C68.3266 46.8856 54.7234 49.1411 52.5197 49.3277C50.3154 49.5136 49.6941 52.0177 50.0203 54.1086L81.4024 49.2522C80.9312 46.2265 83.9018 44.4713 83.9018 44.4713L68.3266 46.8856Z" fill="white"/>
<path d="M68.3266 46.8856C68.3266 46.8856 54.7234 49.1411 52.5197 49.3277C50.3154 49.5136 49.6941 52.0177 50.0203 54.1086L81.4024 49.2522C80.9312 46.2265 83.9018 44.4713 83.9018 44.4713L68.3266 46.8856" stroke="#7350A0" stroke-linecap="round" stroke-linejoin="round"/>
<path d="M58.0564 75.9938C59.134 83.9509 60.1468 91.1642 60.4335 92.1906C61.0781 94.4997 63.5238 93.8742 63.5238 93.8742L96.1899 88.8105C96.1899 88.8105 93.7921 88.2011 93.407 85.7326C93.0219 83.2633 87.9849 46.8945 87.9849 46.8945C87.9849 46.8945 88.0134 43.934 85.0013 44.4014C81.9887 44.8681 49.8695 49.6917 52.5903 49.283C54.3739 49.0151 54.847 52.3042 55.0036 53.3029C55.1835 54.4506 55.9362 60.1508 56.8293 66.8555" fill="white"/>
<path d="M58.0564 75.9938C59.134 83.9509 60.1468 91.1642 60.4335 92.1906C61.0781 94.4997 63.5238 93.8742 63.5238 93.8742L96.1899 88.8105C96.1899 88.8105 93.7921 88.2011 93.407 85.7326C93.0219 83.2633 87.9849 46.8945 87.9849 46.8945C87.9849 46.8945 88.0134 43.934 85.0013 44.4014C81.9887 44.8681 49.8695 49.6917 52.5903 49.283C54.3739 49.0151 54.847 52.3042 55.0036 53.3029C55.1835 54.4506 55.9362 60.1508 56.8293 66.8555" stroke="#7350A0" stroke-linecap="round" stroke-linejoin="round"/>
<path fill-rule="evenodd" clip-rule="evenodd" d="M84.062 63.4051L63.442 66.37C63.0557 66.4262 62.6939 66.1564 62.6382 65.771L62.6085 65.5605C62.5528 65.1751 62.8233 64.8149 63.209 64.7594L83.8297 61.7944C84.2154 61.7389 84.5765 62.0087 84.6322 62.3935L84.6633 62.6046C84.7189 62.9887 84.4484 63.3495 84.062 63.4051ZM64.1347 70.4936L84.7547 67.5286C85.1411 67.4731 85.4116 67.1122 85.3559 66.7275L85.3255 66.517C85.2699 66.1316 84.9081 65.8618 84.5224 65.9173L63.9017 68.8823C63.516 68.9378 63.2455 69.2981 63.3011 69.6834L63.3309 69.8939C63.3866 70.2793 63.7483 70.5491 64.1347 70.4936ZM64.7756 74.9286L85.3956 71.963C85.7819 71.9075 86.0525 71.5473 85.9968 71.1625L85.9664 70.9514C85.9107 70.5667 85.5489 70.2968 85.1632 70.3524L64.5426 73.3174C64.1568 73.3729 63.8863 73.7331 63.942 74.1185L63.9717 74.3289C64.0274 74.7143 64.3892 74.9842 64.7756 74.9286ZM65.4318 79.3962L78.3315 77.5415C78.7172 77.486 78.9878 77.1251 78.9321 76.741L78.9017 76.5299C78.846 76.1445 78.4842 75.8753 78.0985 75.9309L65.1988 77.7855C64.8131 77.841 64.5426 78.2012 64.5982 78.5866L64.6286 78.7971C64.6843 79.1825 65.0461 79.4517 65.4318 79.3962Z" fill="#DDE5E8"/>
<path d="M83.116 51.2274L60.9376 54.4157L61.8586 60.7898L84.0376 57.6008L83.116 51.2274Z" fill="white"/>
<path fill-rule="evenodd" clip-rule="evenodd" d="M83.116 51.2274L60.9376 54.4157L61.8586 60.7898L84.0376 57.6008L83.116 51.2274Z" stroke="#DDE5E8"/>
<path d="M76.1725 87.1106L89.2146 85.1094L76.1725 87.1106Z" fill="white"/>
<path d="M76.1725 87.1106L89.2146 85.1094" stroke="#DDE5E8" stroke-linecap="round" stroke-linejoin="round" stroke-dasharray="2"/>
<path d="M71.4666 85.585L73.7692 87.102" stroke="#CCD82B" stroke-linecap="round" stroke-linejoin="round"/>
<path d="M91.9805 64.3065C91.9805 64.3065 97.8026 71.1803 93.249 79.0134L88.0417 78.3091L85.3552 73.104L88.4488 65.6867L91.9805 64.3065Z" fill="white"/>
<path fill-rule="evenodd" clip-rule="evenodd" d="M91.9805 64.3065C91.9805 64.3065 97.8026 71.1803 93.249 79.0134L88.0417 78.3091L85.3552 73.104L88.4488 65.6867L91.9805 64.3065Z" stroke="#7350A0" stroke-linecap="round" stroke-linejoin="round"/>
<path d="M73.3765 85.2635L71.9087 87.3564" stroke="#CCD82B" stroke-linecap="round" stroke-linejoin="round"/>
<path fill-rule="evenodd" clip-rule="evenodd" d="M99.6608 77.9744C96.3226 81.4661 90.7788 81.5965 87.2775 78.2661C83.7775 74.9351 83.6468 69.406 86.9856 65.9149C90.3238 62.4231 95.8683 62.2921 99.3682 65.6231C100.684 66.8753 101.524 68.4387 101.882 70.0878C102.174 71.4322 102.146 72.8335 101.794 74.1697C101.43 75.5529 100.72 76.8662 99.6608 77.9744ZM89.0489 76.4141C91.5237 78.7697 95.4444 78.6767 97.8047 76.2082C100.166 73.7396 100.073 69.8289 97.5982 67.4745C95.1227 65.1189 91.2027 65.2119 88.8418 67.6805C86.4808 70.149 86.5734 74.0598 89.0489 76.4141Z" fill="#AA81F7"/>
<path d="M99.6608 77.9746L102.055 80.2527" stroke="#7350A0" stroke-linecap="round" stroke-linejoin="round"/>
<path d="M106.915 84.0997L106.138 84.9131C105.74 85.3289 105.073 85.345 104.655 84.9473L100.924 81.3981C100.507 81.0011 100.491 80.3356 100.889 79.9192L101.667 79.1064C102.065 78.6901 102.732 78.6746 103.149 79.0716L106.88 82.6214C107.298 83.0178 107.313 83.6834 106.915 84.0997Z" fill="white"/>
<path d="M102.028 79.4519L102.39 79.7974L102.39 79.7974L102.028 79.4519ZM102.804 79.4338L103.15 79.072L103.149 79.0714L102.804 79.4338ZM102.028 79.4521L102.389 79.7979L102.39 79.7977L102.028 79.4521ZM101.251 80.2646L100.889 79.9189L100.889 79.9191L101.251 80.2646ZM101.25 80.2647L100.889 79.9192L100.889 79.9193L101.25 80.2647ZM101.269 81.0359L100.924 81.3978L100.924 81.398L101.269 81.0359ZM101.269 81.0361L100.924 81.3981L100.924 81.3983L101.269 81.0361ZM105 84.585L105.344 84.2228L105.344 84.2228L105 84.585ZM105 84.5853L105.345 84.2233L105.345 84.2231L105 84.5853ZM105.776 84.5675L105.415 84.2215L105.415 84.2216L105.776 84.5675ZM105.777 84.5673L106.138 84.9133L106.138 84.9128L105.777 84.5673ZM106.554 83.7543L106.193 83.4081L106.192 83.4088L106.554 83.7543ZM106.554 83.7542L106.914 84.1004L106.915 84.0997L106.554 83.7542ZM106.536 82.984L106.191 83.3464L106.192 83.3466L106.536 82.984ZM106.535 82.9836L106.191 83.3459L106.191 83.3461L106.535 82.9836ZM102.804 79.4338L102.459 79.7956L102.46 79.7961L102.804 79.4338ZM103.494 78.7092L103.838 78.3471L103.838 78.3469L103.494 78.7092ZM101.306 78.7607L100.944 78.4151L100.944 78.4151L101.306 78.7607ZM103.494 78.7093L103.149 79.0715L103.149 79.0715L103.494 78.7093ZM107.224 82.2588L106.88 82.6211L106.88 82.6215L107.224 82.2588ZM107.225 82.259L107.569 81.8965L107.569 81.8963L107.225 82.259ZM107.276 84.4452L106.915 84.0997L106.915 84.0998L107.276 84.4452ZM106.499 85.2585L106.861 85.6041L106.861 85.604L106.499 85.2585ZM106.499 85.2589L106.86 85.6046L106.86 85.6045L106.499 85.2589ZM104.31 85.3093L104.655 84.9473L104.655 84.9471L104.31 85.3093ZM100.579 81.7604L100.235 82.1225L100.235 82.1226L100.579 81.7604ZM100.579 81.7601L100.234 82.1222L100.234 82.1222L100.579 81.7601ZM100.528 79.5736L100.166 79.2281L100.166 79.2282L100.528 79.5736ZM100.528 79.5734L100.167 79.2277L100.167 79.2278L100.528 79.5734ZM101.306 78.7609L101.667 79.1066L101.667 79.1064L101.306 78.7609ZM106.114 81.8944L105.752 81.5488L106.114 81.8944ZM106.098 81.1874L106.444 80.8261L106.098 81.1874ZM103.889 84.2209L103.527 83.8753L103.889 84.2209ZM103.182 84.2367L102.836 84.598L103.182 84.2367ZM103.166 83.5297L102.805 83.1842L103.166 83.5297ZM105.391 81.2032L105.03 80.8576L105.391 81.2032ZM89.203 68.0261L88.8417 67.6805L89.203 68.0261ZM97.2534 67.8368L97.5994 67.4758L97.5981 67.4745L97.2534 67.8368ZM89.3934 76.0518L89.0488 76.4141L89.0491 76.4143L89.3934 76.0518ZM89.3935 76.0519L89.7382 75.6897L89.7378 75.6893L89.3935 76.0519ZM97.4432 75.8626L97.0828 75.5161L97.0818 75.5171L97.4432 75.8626ZM97.4432 75.8626L97.8036 76.2091L97.8046 76.2082L97.4432 75.8626ZM97.2535 67.8368L96.9075 68.1978L96.9089 68.1991L97.2535 67.8368ZM88.4803 67.3349L88.119 66.9893L88.4803 67.3349ZM88.7041 76.7763L88.3595 77.1386C88.5592 77.3285 88.875 77.321 89.0655 77.1218L88.7041 76.7763ZM88.7042 76.7764L88.6924 76.2765C88.4902 76.2813 88.3107 76.4075 88.2378 76.5962C88.1649 76.785 88.2129 76.9991 88.3595 77.1386L88.7042 76.7764ZM95.6262 62.9967L95.5025 63.4812L95.6262 62.9967ZM86.6241 65.5694L86.9855 65.915L86.9855 65.9149L86.6241 65.5694ZM95.9352 63.2307L95.5025 63.4812L95.5025 63.4812L95.9352 63.2307ZM102.194 74.043L102.626 73.7925L102.626 73.7925L102.194 74.043ZM102.242 74.4279L101.761 74.2935L101.761 74.2935L102.242 74.4279ZM100.022 78.3199L99.6607 77.9743L99.6607 77.9744L100.022 78.3199ZM86.9328 78.6284L86.5874 78.99L86.5882 78.9907L86.9328 78.6284ZM86.9327 78.6283L87.2781 78.2668L87.2774 78.2662L86.9327 78.6283ZM87.3469 66.2604L87.7081 66.6062L87.7083 66.606L87.3469 66.2604ZM95.1769 63.9168L95.6097 63.6664C95.5401 63.5462 95.4237 63.4604 95.2884 63.4294L95.1769 63.9168ZM87.3469 66.2605L86.9857 65.9147L86.9855 65.9149L87.3469 66.2605ZM87.622 77.9039L87.2773 78.2661L87.2774 78.2662L87.622 77.9039ZM99.2993 77.6289L98.94 77.2811L98.9379 77.2833L99.2993 77.6289ZM99.2993 77.6288L99.6586 77.9765L99.6607 77.9744L99.2993 77.6288ZM101.221 74.3586L101.699 74.5052C101.74 74.3723 101.723 74.2284 101.654 74.1081L101.221 74.3586ZM95.6262 62.9967L95.7499 62.5123L95.6262 62.9967ZM99.713 65.261L99.5124 65.7191C99.7347 65.8164 99.9949 65.74 100.129 65.5379C100.264 65.3358 100.234 65.0664 100.058 64.899L99.713 65.261ZM100.668 68.1742L100.306 68.5192C100.478 68.6992 100.756 68.7257 100.958 68.5814C101.161 68.4371 101.226 68.1658 101.112 67.9448L100.668 68.1742ZM97.4681 64.8181L97.7188 64.3855C97.5036 64.2607 97.2293 64.3132 97.0753 64.5087C96.9213 64.7041 96.9345 64.983 97.1062 65.1631L97.4681 64.8181ZM99.0235 65.9854L98.6787 66.3475L98.6789 66.3476L99.0235 65.9854ZM99.0233 65.9851L98.6784 66.3472L98.6785 66.3472L99.0233 65.9851ZM101.543 70.5412L101.181 70.8863L101.181 70.8863L101.543 70.5412ZM102.395 70.0963L102.885 69.9965V69.9965L102.395 70.0963ZM99.713 65.2611L100.058 64.8989C99.8906 64.7399 99.6364 64.7158 99.4424 64.8407C99.2484 64.9656 99.1651 65.2069 99.2406 65.4249L99.713 65.2611ZM102.39 79.7974C102.397 79.7902 102.408 79.7841 102.424 79.7837C102.441 79.7833 102.452 79.7889 102.46 79.7961L103.149 79.0714C102.731 78.6745 102.065 78.6901 101.667 79.1064L102.39 79.7974ZM102.39 79.7977L102.39 79.7974L101.667 79.1063L101.667 79.1066L102.39 79.7977ZM101.612 80.6104L102.389 79.7979L101.667 79.1064L100.889 79.9189L101.612 80.6104ZM101.612 80.6103L101.612 80.6102L100.889 79.9191L100.889 79.9192L101.612 80.6103ZM101.614 80.674C101.607 80.6672 101.601 80.6568 101.601 80.6421C101.6 80.6274 101.605 80.617 101.612 80.6101L100.889 79.9193C100.491 80.3356 100.507 81.0008 100.924 81.3978L101.614 80.674ZM101.614 80.674V80.674C101.614 80.674 101.614 80.674 101.614 80.674C101.614 80.674 101.614 80.674 101.614 80.674C101.614 80.674 101.614 80.674 101.614 80.674C101.614 80.674 101.614 80.674 101.614 80.674C101.614 80.674 101.614 80.674 101.614 80.674V80.674C101.614 80.674 101.614 80.674 101.614 80.674C101.614 80.674 101.614 80.674 101.614 80.674C101.614 80.674 101.614 80.674 101.614 80.674C101.614 80.674 101.614 80.674 101.614 80.674C101.614 80.674 101.614 80.674 101.614 80.674V80.674C101.614 80.674 101.614 80.674 101.614 80.674C101.614 80.674 101.614 80.674 101.614 80.674C101.614 80.674 101.614 80.674 101.614 80.674V80.674C101.614 80.674 101.614 80.674 101.614 80.674C101.614 80.674 101.614 80.674 101.614 80.674C101.614 80.674 101.614 80.674 101.614 80.674C101.614 80.674 101.614 80.674 101.614 80.674C101.614 80.674 101.614 80.674 101.614 80.674C101.614 80.674 101.614 80.674 101.614 80.674H101.614C101.614 80.674 101.614 80.674 101.614 80.674H101.614C101.614 80.674 101.614 80.674 101.614 80.674H101.614C101.614 80.674 101.614 80.674 101.614 80.674H101.614V80.674H101.614C101.614 80.674 101.614 80.674 101.614 80.674H101.614C101.614 80.6739 101.614 80.6739 101.614 80.6739H101.614V80.6739H101.614C101.614 80.6739 101.614 80.6739 101.614 80.6739H101.614V80.6739H101.614C101.614 80.6739 101.614 80.6739 101.614 80.6739C101.614 80.6739 101.614 80.6739 101.614 80.6739C101.614 80.6739 101.614 80.6739 101.614 80.6739C101.614 80.6739 101.614 80.6739 101.614 80.6739V80.6739C101.614 80.6739 101.614 80.6739 101.614 80.6739C101.614 80.6739 101.614 80.6739 101.614 80.6739C101.614 80.6739 101.614 80.6739 101.614 80.6739C101.614 80.6739 101.614 80.6739 101.614 80.6739C101.614 80.6739 101.614 80.6739 101.614 80.6739V80.6739C101.614 80.6739 101.614 80.6739 101.614 80.6739C101.614 80.6739 101.614 80.6739 101.614 80.6739C101.614 80.6739 101.614 80.6739 101.614 80.6739C101.614 80.6739 101.614 80.6739 101.614 80.6739C101.614 80.6739 101.614 80.6739 101.614 80.6739C101.614 80.6739 101.614 80.6739 101.614 80.6739C101.614 80.6739 101.614 80.6739 101.614 80.6739V80.6739C101.614 80.6739 101.614 80.6739 101.614 80.6739C101.614 80.6739 101.614 80.6739 101.614 80.6739C101.614 80.6739 101.614 80.6739 101.614 80.6739C101.614 80.6739 101.614 80.6739 101.614 80.6739C101.614 80.6739 101.614 80.6739 101.614 80.6739C101.614 80.6739 101.614 80.6739 101.614 80.6739C101.614 80.6739 101.614 80.6739 101.614 80.6739C101.614 80.6739 101.614 80.6739 101.614 80.6739C101.614 80.6739 101.614 80.6739 101.614 80.6739V80.6739C101.614 80.6739 101.614 80.6739 101.614 80.6739C101.614 80.6739 101.614 80.6739 101.614 80.6739C101.614 80.6739 101.614 80.6739 101.614 80.6739C101.614 80.6739 101.614 80.6739 101.614 80.6739C101.614 80.6739 101.614 80.6739 101.614 80.6739V80.6739C101.614 80.6739 101.614 80.6739 101.614 80.6739C101.614 80.6739 101.614 80.6739 101.614 80.6739C101.614 80.6739 101.614 80.6739 101.614 80.6739V80.6739C101.614 80.6739 101.614 80.6739 101.614 80.6739C101.614 80.6739 101.614 80.6739 101.614 80.6739C101.614 80.6739 101.614 80.6739 101.614 80.6739C101.614 80.6739 101.614 80.6739 101.614 80.6739H101.614V80.6739H101.614C101.614 80.6739 101.614 80.6739 101.614 80.6739H101.614C101.614 80.6739 101.614 80.6739 101.614 80.6739H101.614V80.6739H101.614C101.614 80.6739 101.614 80.6739 101.614 80.6739L101.614 80.6739C101.614 80.6739 101.614 80.6739 101.614 80.6739H101.614C101.614 80.6739 101.614 80.6739 101.614 80.6739H101.614V80.6739H101.614C101.614 80.6739 101.614 80.6739 101.614 80.6739H101.614C101.614 80.6739 101.614 80.6739 101.614 80.6739C101.614 80.6739 101.614 80.6739 101.614 80.6739V80.6739C101.614 80.6739 101.614 80.6739 101.614 80.6739C101.614 80.6739 101.614 80.6739 101.614 80.6739C101.614 80.6739 101.614 80.6739 101.614 80.6739V80.6739C101.614 80.6739 101.614 80.6739 101.614 80.6739C101.614 80.6739 101.614 80.6739 101.614 80.6739C101.614 80.6739 101.614 80.6739 101.614 80.6739C101.614 80.6739 101.614 80.6739 101.614 80.6739C101.614 80.6739 101.614 80.6739 101.614 80.6739V80.6739C101.614 80.6739 101.614 80.6739 101.614 80.6739C101.614 80.6739 101.614 80.6739 101.614 80.6739C101.614 80.6739 101.614 80.6739 101.614 80.6739C101.614 80.6739 101.614 80.6739 101.614 80.6739C101.614 80.6739 101.614 80.6739 101.614 80.6739C101.614 80.6739 101.614 80.6739 101.614 80.6739C101.614 80.6739 101.614 80.6739 101.614 80.6739C101.614 80.6739 101.614 80.6739 101.614 80.6739C101.614 80.6739 101.614 80.6739 101.614 80.6739V80.6739C101.614 80.6739 101.614 80.6739 101.614 80.6739C101.614 80.6739 101.614 80.6739 101.614 80.6739C101.614 80.6739 101.614 80.6739 101.614 80.6739C101.614 80.6739 101.614 80.6739 101.614 80.6739C101.614 80.6739 101.614 80.6739 101.614 80.6739L100.924 81.398V81.398H100.924C100.924 81.398 100.924 81.398 100.924 81.398H100.924V81.398H100.924C100.924 81.398 100.924 81.398 100.924 81.398H100.924C100.924 81.398 100.924 81.398 100.924 81.398H100.924V81.398H100.924C100.924 81.398 100.924 81.398 100.924 81.398H100.924C100.924 81.398 100.924 81.398 100.924 81.398H100.924C100.924 81.398 100.924 81.398 100.924 81.398C100.924 81.398 100.924 81.398 100.924 81.398C100.924 81.398 100.924 81.398 100.924 81.398C100.924 81.398 100.924 81.398 100.924 81.398V81.398C100.924 81.398 100.924 81.398 100.924 81.398C100.924 81.398 100.924 81.398 100.924 81.398C100.924 81.398 100.924 81.398 100.924 81.398C100.924 81.398 100.924 81.398 100.924 81.398C100.924 81.398 100.924 81.398 100.924 81.398C100.924 81.398 100.924 81.398 100.924 81.398C100.924 81.398 100.924 81.398 100.924 81.398V81.398C100.924 81.398 100.924 81.398 100.924 81.398C100.924 81.398 100.924 81.398 100.924 81.398C100.924 81.398 100.924 81.398 100.924 81.398C100.924 81.398 100.924 81.398 100.924 81.398C100.924 81.398 100.924 81.398 100.924 81.398V81.398C100.924 81.398 100.924 81.398 100.924 81.398C100.924 81.398 100.924 81.398 100.924 81.398C100.924 81.398 100.924 81.398 100.924 81.398C100.924 81.398 100.924 81.398 100.924 81.398C100.924 81.398 100.924 81.398 100.924 81.398V81.398C100.924 81.398 100.924 81.398 100.924 81.398C100.924 81.398 100.924 81.398 100.924 81.398C100.924 81.398 100.924 81.398 100.924 81.398V81.398C100.924 81.398 100.924 81.398 100.924 81.398C100.924 81.398 100.924 81.398 100.924 81.398C100.924 81.398 100.924 81.398 100.924 81.398C100.924 81.398 100.924 81.398 100.924 81.398C100.924 81.398 100.924 81.398 100.924 81.398V81.398C100.924 81.398 100.924 81.398 100.924 81.398C100.924 81.398 100.924 81.398 100.924 81.398C100.924 81.398 100.924 81.398 100.924 81.398C100.924 81.398 100.924 81.398 100.924 81.398C100.924 81.398 100.924 81.398 100.924 81.398C100.924 81.398 100.924 81.398 100.924 81.398C100.924 81.398 100.924 81.398 100.924 81.398C100.924 81.398 100.924 81.398 100.924 81.398H100.924V81.3981H100.924C100.924 81.3981 100.924 81.3981 100.924 81.3981H100.924C100.924 81.3981 100.924 81.3981 100.924 81.3981L100.924 81.3981C100.924 81.3981 100.924 81.3981 100.924 81.3981H100.924V81.3981H100.924C100.924 81.3981 100.924 81.3981 100.924 81.3981H100.924C100.924 81.3981 100.924 81.3981 100.924 81.3981H100.924V81.3981H100.924C100.924 81.3981 100.924 81.3981 100.924 81.3981C100.924 81.3981 100.924 81.3981 100.924 81.3981C100.924 81.3981 100.924 81.3981 100.924 81.3981C100.924 81.3981 100.924 81.3981 100.924 81.3981V81.3981C100.924 81.3981 100.924 81.3981 100.924 81.3981C100.924 81.3981 100.924 81.3981 100.924 81.3981C100.924 81.3981 100.924 81.3981 100.924 81.3981V81.3981C100.924 81.3981 100.924 81.3981 100.924 81.3981C100.924 81.3981 100.924 81.3981 100.924 81.3981C100.924 81.3981 100.924 81.3981 100.924 81.3981C100.924 81.3981 100.924 81.3981 100.924 81.3981C100.924 81.3981 100.924 81.3981 100.924 81.3981V81.3981C100.924 81.3981 100.924 81.3981 100.924 81.3981C100.924 81.3981 100.924 81.3981 100.924 81.3981C100.924 81.3981 100.924 81.3981 100.924 81.3981C100.924 81.3981 100.924 81.3981 100.924 81.3981C100.924 81.3981 100.924 81.3981 100.924 81.3981C100.924 81.3981 100.924 81.3981 100.924 81.3981C100.924 81.3981 100.924 81.3981 100.924 81.3981C100.924 81.3981 100.924 81.3981 100.924 81.3981V81.3981C100.924 81.3981 100.924 81.3981 100.924 81.3981C100.924 81.3981 100.924 81.3981 100.924 81.3981C100.924 81.3981 100.924 81.3981 100.924 81.3981C100.924 81.3981 100.924 81.3981 100.924 81.3981C100.924 81.3981 100.924 81.3981 100.924 81.3981C100.924 81.3981 100.924 81.3981 100.924 81.3981C100.924 81.3981 100.924 81.3981 100.924 81.3981V81.3981C100.924 81.3981 100.924 81.3981 100.924 81.3981C100.924 81.3981 100.924 81.3981 100.924 81.3981C100.924 81.3981 100.924 81.3981 100.924 81.3981C100.924 81.3981 100.924 81.3981 100.924 81.3981C100.924 81.3981 100.924 81.3981 100.924 81.3981V81.3981C100.924 81.3981 100.924 81.3981 100.924 81.3981C100.924 81.3981 100.924 81.3981 100.924 81.3981C100.924 81.3981 100.924 81.3981 100.924 81.3981C100.924 81.3981 100.924 81.3981 100.924 81.3981C100.924 81.3981 100.924 81.3981 100.924 81.3981V81.3981H100.924C100.924 81.3981 100.924 81.3981 100.924 81.3981H100.924V81.3981H100.924C100.924 81.3981 100.924 81.3981 100.924 81.3981H100.924C100.924 81.3981 100.924 81.3981 100.924 81.3981H100.924V81.3981H100.924C100.924 81.3981 100.924 81.3981 100.924 81.3981H100.924L101.614 80.674ZM105.344 84.2228L101.614 80.6738L100.924 81.3983L104.655 84.9473L105.344 84.2228ZM105.345 84.2231L105.344 84.2228L104.655 84.9473L104.655 84.9475L105.345 84.2231ZM105.415 84.2216C105.409 84.2288 105.397 84.2351 105.38 84.2355C105.364 84.2359 105.352 84.2301 105.345 84.2233L104.655 84.9473C105.072 85.3448 105.739 85.3289 106.138 84.9134L105.415 84.2216ZM105.416 84.2214L105.415 84.2215L106.137 84.9134L106.138 84.9133L105.416 84.2214ZM106.192 83.4088L105.415 84.2219L106.138 84.9128L106.915 84.0997L106.192 83.4088ZM106.193 83.408L106.193 83.4081L106.914 84.1005L106.914 84.1004L106.193 83.408ZM106.192 83.3466C106.198 83.3526 106.203 83.3623 106.204 83.3767C106.204 83.3909 106.199 83.4015 106.192 83.4087L106.915 84.0997C107.313 83.6832 107.297 83.0176 106.88 82.6214L106.192 83.3466ZM106.191 83.3461L106.191 83.3464L106.88 82.6215L106.88 82.6212L106.191 83.3461ZM102.46 79.7961L106.191 83.3459L106.88 82.6214L103.149 79.0716L102.46 79.7961ZM102.459 79.7955L102.459 79.7956L103.15 79.0721L103.15 79.072L102.459 79.7955ZM103.838 78.3469C103.022 77.5706 101.724 77.6 100.944 78.4151L101.667 79.1062C102.065 78.69 102.732 78.6746 103.149 79.0715L103.838 78.3469ZM103.838 78.3471L103.838 78.3471L103.149 79.0714L103.149 79.0715L103.838 78.3471ZM107.569 81.8966L103.838 78.3471L103.149 79.0715L106.88 82.6211L107.569 81.8966ZM107.569 81.8963L107.569 81.8961L106.88 82.6215L106.88 82.6218L107.569 81.8963ZM107.638 84.7907C108.417 83.9752 108.389 82.675 107.569 81.8965L106.88 82.6216C107.297 83.0179 107.313 83.6833 106.915 84.0997L107.638 84.7907ZM106.861 85.604L107.638 84.7906L106.915 84.0998L106.138 84.9131L106.861 85.604ZM106.86 85.6045L106.861 85.6041L106.138 84.9129L106.138 84.9133L106.86 85.6045ZM103.965 85.6714C104.783 86.4498 106.081 86.418 106.86 85.6046L106.138 84.9131C105.74 85.3289 105.072 85.3449 104.655 84.9473L103.965 85.6714ZM100.235 82.1226L103.966 85.6716L104.655 84.9471L100.924 81.3981L100.235 82.1226ZM100.234 82.1222L100.235 82.1225L100.924 81.3982L100.924 81.398L100.234 82.1222ZM100.166 79.2282C99.3855 80.0449 99.4177 81.3443 100.234 82.1222L100.924 81.3981C100.507 81.0011 100.491 80.3355 100.889 79.9191L100.166 79.2282ZM100.167 79.2278L100.166 79.2281L100.889 79.9192L100.889 79.919L100.167 79.2278ZM100.944 78.4152L100.167 79.2277L100.889 79.9191L101.667 79.1066L100.944 78.4152ZM100.944 78.4151L100.944 78.4154L101.667 79.1064L101.667 79.1062L100.944 78.4151ZM106.475 82.2399C106.857 81.8408 106.843 81.2078 106.444 80.8261L105.752 81.5488L106.475 82.2399ZM104.25 84.5665L106.475 82.2399L105.752 81.5488L103.527 83.8753L104.25 84.5665ZM102.836 84.598C103.235 84.9797 103.868 84.9656 104.25 84.5665L103.527 83.8753L102.836 84.598ZM102.805 83.1842C102.423 83.5833 102.437 84.2163 102.836 84.598L103.527 83.8753L102.805 83.1842ZM105.03 80.8576L102.805 83.1842L103.527 83.8753L105.752 81.5488L105.03 80.8576ZM106.444 80.8261C106.044 80.4444 105.411 80.4585 105.03 80.8576L105.752 81.5488L106.444 80.8261ZM89.5644 68.3717C91.5443 66.3015 94.8327 66.2234 96.9088 68.199L97.5981 67.4745C95.1226 65.1189 91.2026 65.2119 88.8417 67.6805L89.5644 68.3717ZM89.7379 75.6895C87.6634 73.7165 87.5859 70.4403 89.5644 68.3717L88.8417 67.6805C86.4807 70.149 86.5733 74.0598 89.0488 76.4141L89.7379 75.6895ZM89.7378 75.6893L89.7376 75.6892L89.0491 76.4143L89.0492 76.4145L89.7378 75.6893ZM97.0818 75.5171C95.1025 77.5871 91.8136 77.6652 89.7382 75.6897L89.0488 76.4141C91.5236 78.7697 95.4443 78.6767 97.8046 76.2082L97.0818 75.5171ZM97.0828 75.516L97.0828 75.5161L97.8036 76.2092L97.8036 76.2091L97.0828 75.516ZM96.9089 68.1991C98.9828 70.172 99.0603 73.4483 97.0819 75.517L97.8046 76.2082C100.166 73.7396 100.073 69.8289 97.5981 67.4745L96.9089 68.1991ZM96.9075 68.1978L96.9075 68.1978L97.5994 67.4758L97.5994 67.4758L96.9075 68.1978ZM98.2875 66.7501C95.4126 64.0144 90.8609 64.1224 88.119 66.9893L88.8417 67.6805C91.2026 65.2119 95.1226 65.1189 97.5981 67.4745L98.2875 66.7501ZM88.119 66.9893C85.3756 69.8578 85.4831 74.4029 88.3595 77.1386L89.0486 76.414C86.5733 74.0596 86.4808 70.149 88.8417 67.6805L88.119 66.9893ZM89.0655 77.1218L98.3042 67.4578L97.5814 66.7668L88.3426 76.4307L89.0655 77.1218ZM98.5273 76.8993C101.271 74.0309 101.163 69.4857 98.2874 66.7501L97.5982 67.4746C100.073 69.8289 100.165 73.7396 97.8046 76.2082L98.5273 76.8993ZM97.4429 67.1241L97.666 76.5656L98.6658 76.5419L98.4426 67.1005L97.4429 67.1241ZM88.3595 77.1386C91.2338 79.8742 95.786 79.7663 98.5273 76.8993L97.8045 76.2082C95.4443 78.6767 91.5237 78.7697 89.0489 76.4142L88.3595 77.1386ZM98.1541 76.0539L88.6924 76.2765L88.716 77.2763L98.1777 77.0536L98.1541 76.0539ZM95.7498 62.5123C92.4455 61.6689 88.7884 62.5823 86.2628 65.2238L86.9855 65.9149C89.2513 63.5451 92.5332 62.7233 95.5025 63.4812L95.7498 62.5123ZM96.368 62.9803C96.2333 62.7475 96.0104 62.5788 95.7498 62.5123L95.5025 63.4812L95.5025 63.4812L96.368 62.9803ZM102.626 73.7925L96.368 62.9803L95.5025 63.4812L101.761 74.2935L102.626 73.7925ZM102.724 74.5624C102.796 74.3031 102.761 74.0255 102.626 73.7925L101.761 74.2935H101.761L102.724 74.5624ZM100.383 78.6654C101.528 77.4689 102.307 76.0544 102.724 74.5624L101.761 74.2935C101.387 75.631 100.688 76.8995 99.6607 77.9743L100.383 78.6654ZM86.5882 78.9907C90.4887 82.7008 96.6641 82.5559 100.384 78.6654L99.6607 77.9744C96.3225 81.4661 90.7787 81.5965 87.2774 78.2662L86.5882 78.9907ZM86.5873 78.9899L86.5874 78.99L87.2782 78.2669L87.2781 78.2668L86.5873 78.9899ZM86.2628 65.2238C82.5414 69.1149 82.6875 75.2783 86.588 78.9905L87.2774 78.2662C83.7774 74.9351 83.6467 69.4061 86.9855 65.915L86.2628 65.2238ZM87.7083 66.606C89.6663 64.5581 92.4822 63.8136 95.0655 64.4042L95.2884 63.4294C92.3765 62.7636 89.197 63.602 86.9855 65.9149L87.7083 66.606ZM87.7081 66.6063L87.7081 66.6062L86.9858 65.9147L86.9857 65.9147L87.7081 66.6063ZM87.9667 77.5417C84.8674 74.5919 84.752 69.6972 87.7082 66.6061L86.9855 65.9149C83.6467 69.406 83.7774 74.935 87.2773 78.2661L87.9667 77.5417ZM98.9379 77.2833C95.9809 80.3763 91.0687 80.4923 87.9666 77.5416L87.2774 78.2662C90.7787 81.5965 96.3225 81.4661 99.6607 77.9744L98.9379 77.2833ZM98.94 77.2811L98.94 77.2811L99.6586 77.9766L99.6586 77.9765L98.94 77.2811ZM100.743 74.212C100.401 75.326 99.8011 76.3806 98.9379 77.2833L99.6607 77.9744C100.634 76.9565 101.312 75.7648 101.699 74.5052L100.743 74.212ZM94.7442 64.1673L100.788 74.609L101.654 74.1081L95.6097 63.6664L94.7442 64.1673ZM95.7499 62.5123C95.3178 62.4019 94.8648 62.5911 94.6395 62.976L95.5025 63.4812L95.7499 62.5123ZM100.058 64.899C98.8059 63.7064 97.3165 62.9123 95.7499 62.5123L95.5025 63.4812C96.9082 63.8401 98.2439 64.5521 99.3681 65.623L100.058 64.899ZM99.9135 64.803L95.2716 62.7706L94.8705 63.6866L99.5124 65.7191L99.9135 64.803ZM94.6395 62.976C94.4142 63.3609 94.471 63.8485 94.7788 64.1713L95.5025 63.4812L94.6395 62.976ZM94.5744 63.2865L94.644 63.8841L95.6373 63.7684L95.5677 63.1707L94.5744 63.2865ZM101.03 67.8292L97.8299 64.473L97.1062 65.1631L100.306 68.5192L101.03 67.8292ZM98.6789 66.3476C99.3237 66.9611 99.8386 67.6575 100.224 68.4036L101.112 67.9448C100.677 67.1008 100.095 66.3144 99.3682 65.6231L98.6789 66.3476ZM98.6785 66.3472L98.6787 66.3475L99.3683 65.6233L99.3681 65.6231L98.6785 66.3472ZM97.2173 65.2507C97.7347 65.5506 98.2256 65.9158 98.6784 66.3472L99.3682 65.6231C98.8579 65.137 98.3037 64.7245 97.7188 64.3855L97.2173 65.2507ZM94.7788 64.1713L101.181 70.8863L101.905 70.1962L95.5025 63.4812L94.7788 64.1713ZM94.7788 64.1713L101.181 70.8863L101.905 70.1962L95.5025 63.4812L94.7788 64.1713ZM102.885 69.9965C102.501 68.1127 101.555 66.3236 100.058 64.8989L99.3684 65.6233C100.713 66.9028 101.561 68.5069 101.905 70.1962L102.885 69.9965ZM102.368 71.0826C102.763 70.8762 102.974 70.4333 102.885 69.9965L101.905 70.1962V70.1962L102.368 71.0826ZM101.181 70.8863C101.489 71.2089 101.973 71.2889 102.368 71.0826L101.905 70.1962L101.181 70.8863ZM102.016 70.3775L100.185 65.0974L99.2406 65.4249L101.071 70.705L102.016 70.3775Z" fill="#7350A0"/>
<path d="M88.9784 68.0816L89.3397 68.4272L88.9784 68.0816ZM97.0288 67.8923L97.3748 67.5313L97.3735 67.5301L97.0288 67.8923ZM89.1687 76.1073L89.5133 75.745L89.5133 75.745L89.1687 76.1073ZM89.1689 76.1075L89.5136 75.7453L89.5135 75.7452L89.1689 76.1075ZM97.2185 75.9182L96.8581 75.5716L96.8572 75.5726L97.2185 75.9182ZM97.2186 75.9181L97.579 76.2647L97.5799 76.2637L97.2186 75.9181ZM97.0289 67.8924L96.6829 68.2534L96.6842 68.2546L97.0289 67.8924ZM97.7182 67.1679L97.3735 67.5301L97.3735 67.5302L97.7182 67.1679ZM88.2557 67.3904L88.617 67.736L88.2557 67.3904ZM88.4794 76.8318L88.8241 76.4696L88.824 76.4695L88.4794 76.8318ZM97.9413 76.6093L97.5799 76.2637L97.5799 76.2638L97.9413 76.6093ZM95.4137 63.0526L95.3243 63.5446L95.3243 63.5446L95.4137 63.0526ZM95.379 63.0466L95.2565 63.5313C95.2698 63.5347 95.2831 63.5375 95.2966 63.5397L95.379 63.0466ZM95.5673 63.0841L95.677 62.5963L95.677 62.5963L95.5673 63.0841ZM96.1038 63.2332L96.2586 62.7577V62.7577L96.1038 63.2332ZM97.8423 64.0478L97.5795 64.4732H97.5795L97.8423 64.0478ZM101.887 69.0905L102.351 68.9054V68.9054L101.887 69.0905ZM101.922 69.2644L102.422 69.2532V69.2532L101.922 69.2644ZM102.036 74.3378L102.536 74.3266V74.3266L102.036 74.3378ZM102.018 74.4835L101.536 74.349L102.018 74.4835ZM99.7974 78.3755L99.436 78.0299L99.436 78.03L99.7974 78.3755ZM86.7082 78.684L87.0528 78.3217L87.0518 78.3208L86.7082 78.684ZM86.7081 78.6839L86.3634 79.0461L86.3644 79.0471L86.7081 78.6839ZM86.3996 65.6249L86.7609 65.9705L86.761 65.9704L86.3996 65.6249ZM95.2072 64.0317L95.2892 63.5384L95.2782 63.5368L95.2072 64.0317ZM95.2098 64.0322L95.1277 64.5254L95.1299 64.5257L95.2098 64.0322ZM95.2349 64.0365L95.1454 64.5284L95.1454 64.5284L95.2349 64.0365ZM95.3479 64.0597L95.4576 63.5719L95.4576 63.5719L95.3479 64.0597ZM95.7941 64.184L95.949 63.7086L95.7941 64.184ZM97.3167 64.8986L97.0539 65.3239H97.0539L97.3167 64.8986ZM100.924 69.378L101.424 69.3667C101.423 69.3059 101.41 69.2458 101.388 69.1895L100.924 69.378ZM101.035 74.2849L101.515 74.4237C101.529 74.375 101.536 74.3244 101.534 74.2737L101.035 74.2849ZM99.0747 77.6844L98.7133 77.3388L98.7099 77.3424L99.0747 77.6844ZM99.0746 77.6844L99.4361 78.0299L99.4394 78.0264L99.0746 77.6844ZM87.3975 77.9595L87.0528 78.3217L87.0529 78.3218L87.3975 77.9595ZM87.1223 66.316L87.4836 66.6616L87.4842 66.661L87.1223 66.316ZM87.1223 66.316L86.7609 65.9705L86.7603 65.9711L87.1223 66.316ZM95.1542 64.0212L95.0306 64.5057L95.0306 64.5057L95.1542 64.0212ZM95.2066 64.0317L95.1354 64.5266L95.1356 64.5266L95.2066 64.0317ZM89.3397 68.4272C91.3197 66.357 94.6081 66.279 96.6841 68.2545L97.3735 67.5301C94.898 65.1745 90.978 65.2675 88.617 67.736L89.3397 68.4272ZM89.5133 75.745C87.4388 73.7721 87.3613 70.4959 89.3397 68.4272L88.617 67.736C86.2561 70.2046 86.3487 74.1153 88.8241 76.4696L89.5133 75.745ZM89.5135 75.7452L89.5133 75.745L88.8241 76.4696L88.8243 76.4698L89.5135 75.7452ZM96.8572 75.5726C94.8779 77.6427 91.589 77.7207 89.5136 75.7453L88.8241 76.4696C91.299 78.8252 95.2196 78.7323 97.5799 76.2637L96.8572 75.5726ZM96.8582 75.5716L96.8581 75.5716L97.579 76.2647L97.579 76.2647L96.8582 75.5716ZM96.6842 68.2546C98.7582 70.2276 98.8357 73.5039 96.8572 75.5725L97.5799 76.2637C99.9409 73.7951 99.8483 69.8844 97.3735 67.5301L96.6842 68.2546ZM96.6829 68.2533L96.6829 68.2534L97.3748 67.5314L97.3748 67.5313L96.6829 68.2533ZM98.0628 66.8057C95.1879 64.07 90.6363 64.1779 87.8944 67.0449L88.617 67.736C90.978 65.2675 94.898 65.1745 97.3735 67.5301L98.0628 66.8057ZM87.8944 67.0449C85.151 69.9133 85.2585 74.4584 88.1348 77.1941L88.824 76.4695C86.3487 74.1152 86.2562 70.2046 88.617 67.736L87.8944 67.0449ZM88.1347 77.194C91.009 79.9298 95.5613 79.8219 98.3027 76.9548L97.5799 76.2638C95.2196 78.7323 91.299 78.8252 88.8241 76.4696L88.1347 77.194ZM98.3026 76.9549C101.046 74.0864 100.938 69.5413 98.0628 66.8056L97.3735 67.5302C99.8483 69.8845 99.9409 73.7952 97.5799 76.2637L98.3026 76.9549ZM95.5032 62.5607C95.4872 62.5578 95.4732 62.5554 95.4614 62.5534L95.2966 63.5397C95.3038 63.5409 95.3131 63.5425 95.3243 63.5446L95.5032 62.5607ZM95.677 62.5963C95.6051 62.5801 95.5466 62.5686 95.5032 62.5607L95.3243 63.5446C95.3548 63.5501 95.3997 63.5589 95.4576 63.5719L95.677 62.5963ZM96.2586 62.7577C96.0188 62.6796 95.8207 62.6286 95.677 62.5963L95.4576 63.5719C95.5734 63.598 95.7412 63.6409 95.949 63.7086L96.2586 62.7577ZM98.1051 63.6225C97.3879 63.1793 96.7379 62.9138 96.2586 62.7577L95.949 63.7086C96.3645 63.8439 96.9399 64.078 97.5795 64.4732L98.1051 63.6225ZM102.351 68.9054C101.238 66.1118 99.5506 64.5156 98.1051 63.6225L97.5795 64.4732C98.8588 65.2636 100.395 66.6983 101.422 69.2757L102.351 68.9054ZM102.422 69.2532C102.419 69.134 102.395 69.0162 102.351 68.9054L101.422 69.2757V69.2757L102.422 69.2532ZM102.536 74.3266L102.422 69.2532L101.422 69.2757L101.536 74.349L102.536 74.3266ZM102.499 74.6179C102.526 74.5231 102.538 74.425 102.536 74.3266L101.536 74.349V74.349L102.499 74.6179ZM100.159 78.721C101.303 77.5245 102.083 76.1099 102.499 74.6179L101.536 74.349C101.163 75.6866 100.464 76.9551 99.436 78.0299L100.159 78.721ZM86.3636 79.0463C90.264 82.7563 96.4394 82.6115 100.159 78.721L99.436 78.03C96.0978 81.5217 90.5541 81.6521 87.0528 78.3217L86.3636 79.0463ZM86.3644 79.0471L86.3646 79.0472L87.0518 78.3208L87.0517 78.3207L86.3644 79.0471ZM86.0382 65.2793C82.3168 69.1704 82.4628 75.3338 86.3634 79.0461L87.0528 78.3217C83.5528 74.9907 83.4221 69.4616 86.7609 65.9705L86.0382 65.2793ZM95.5014 62.5618C92.2033 61.7288 88.5578 62.6441 86.0382 65.2793L86.761 65.9704C89.0213 63.6063 92.2928 62.7828 95.2565 63.5313L95.5014 62.5618ZM95.1251 64.525L95.1277 64.5254L95.2918 63.5389L95.2892 63.5385L95.1251 64.525ZM95.1299 64.5257C95.1314 64.526 95.1367 64.5269 95.1454 64.5284L95.3243 63.5446C95.3091 63.5418 95.2975 63.5398 95.2897 63.5386L95.1299 64.5257ZM95.1454 64.5284C95.1629 64.5316 95.1943 64.5377 95.2383 64.5476L95.4576 63.5719C95.3997 63.5589 95.3548 63.5501 95.3243 63.5446L95.1454 64.5284ZM95.2383 64.5476C95.3262 64.5673 95.4637 64.6022 95.6393 64.6594L95.949 63.7086C95.7412 63.6409 95.5734 63.598 95.4576 63.5719L95.2383 64.5476ZM95.6393 64.6594C95.991 64.774 96.4919 64.9767 97.0539 65.3239L97.5795 64.4732C96.9399 64.078 96.3645 63.8439 95.949 63.7086L95.6393 64.6594ZM97.0539 65.3239C98.1545 66.0039 99.521 67.2564 100.461 69.5665L101.388 69.1895C100.36 66.666 98.8442 65.2546 97.5795 64.4732L97.0539 65.3239ZM100.425 69.3892L100.535 74.2961L101.534 74.2737L101.424 69.3667L100.425 69.3892ZM100.554 74.1462C100.22 75.305 99.6077 76.4035 98.7133 77.3388L99.436 78.0299C100.445 76.9751 101.137 75.7338 101.515 74.4237L100.554 74.1462ZM98.7099 77.3424L98.7099 77.3424L99.4394 78.0264L99.4394 78.0264L98.7099 77.3424ZM98.7132 77.3389C95.7563 80.4319 90.8442 80.5478 87.7421 77.5972L87.0529 78.3218C90.5542 81.6521 96.0979 81.5217 99.436 78.0299L98.7132 77.3389ZM87.7422 77.5973C84.6428 74.6476 84.5273 69.7528 87.4836 66.6616L86.7609 65.9705C83.4221 69.4616 83.5528 74.9907 87.0528 78.3217L87.7422 77.5973ZM87.4842 66.661L87.4843 66.6609L86.7603 65.9711L86.7603 65.9711L87.4842 66.661ZM87.4837 66.6615C89.4897 64.5634 92.3964 63.8334 95.0306 64.5057L95.2779 63.5368C92.3085 62.7789 89.0267 63.6007 86.7609 65.9705L87.4837 66.6615ZM95.0306 64.5057C95.0651 64.5145 95.1001 64.5215 95.1354 64.5266L95.2779 63.5368L95.2779 63.5368L95.0306 64.5057ZM95.1356 64.5266L95.1362 64.5267L95.2782 63.5368L95.2776 63.5367L95.1356 64.5266Z" fill="#7350A0"/>
<path d="M99.5718 49.6721C99.5718 49.1198 99.1241 48.6721 98.5718 48.6721V49.6721H99.5718ZM99.5718 50.6494V49.6721H98.5718V50.6494H99.5718ZM98.5718 51.6494C99.1241 51.6494 99.5718 51.2017 99.5718 50.6494H98.5718V51.6494ZM97.5718 50.6494C97.5718 51.2017 98.0195 51.6494 98.5718 51.6494V50.6494H97.5718ZM97.5718 49.6721V50.6494H98.5718V49.6721H97.5718ZM98.5718 48.6721C98.0195 48.6721 97.5718 49.1198 97.5718 49.6721H98.5718V48.6721ZM99.5718 52.6035C99.5718 52.0512 99.1241 51.6035 98.5718 51.6035V52.6035H99.5718ZM99.5718 53.5808V52.6035H98.5718V53.5808H99.5718ZM98.5718 54.5808C99.1241 54.5808 99.5718 54.1331 99.5718 53.5808H98.5718V54.5808ZM97.5718 53.5808C97.5718 54.1331 98.0195 54.5808 98.5718 54.5808V53.5808H97.5718ZM97.5718 52.6035V53.5808H98.5718V52.6035H97.5718ZM98.5718 51.6035C98.0195 51.6035 97.5718 52.0512 97.5718 52.6035H98.5718V51.6035ZM99.5512 50.6263C98.9989 50.6263 98.5512 51.074 98.5512 51.6263H99.5512V50.6263ZM100.531 50.6263H99.5512V51.6263H100.531V50.6263ZM101.531 51.6263C101.531 51.074 101.083 50.6263 100.531 50.6263V51.6263H101.531ZM100.531 52.6263C101.083 52.6263 101.531 52.1786 101.531 51.6263H100.531V52.6263ZM99.5512 52.6263H100.531V51.6263H99.5512V52.6263ZM98.5512 51.6263C98.5512 52.1786 98.9989 52.6263 99.5512 52.6263V51.6263H98.5512ZM96.6123 50.6263C96.06 50.6263 95.6123 51.074 95.6123 51.6263H96.6123V50.6263ZM97.5921 50.6263H96.6123V51.6263H97.5921V50.6263ZM98.5921 51.6263C98.5921 51.074 98.1444 50.6263 97.5921 50.6263V51.6263H98.5921ZM97.5921 52.6263C98.1444 52.6263 98.5921 52.1786 98.5921 51.6263H97.5921V52.6263ZM96.6123 52.6263H97.5921V51.6263H96.6123V52.6263ZM95.6123 51.6263C95.6123 52.1786 96.06 52.6263 96.6123 52.6263V51.6263H95.6123Z" fill="#F2C217"/>
<path d="M104.022 58.5288C104.022 58.887 103.73 59.1775 103.371 59.1775C103.011 59.1775 102.72 58.887 102.72 58.5288C102.72 58.1698 103.011 57.8793 103.371 57.8793C103.73 57.8793 104.022 58.1698 104.022 58.5288Z" fill="#D62793"/>
<path d="M53.0772 82.7115C53.0772 83.0704 52.786 83.3609 52.4268 83.3609C52.067 83.3609 51.7758 83.0704 51.7758 82.7115C51.7758 82.3532 52.067 82.0627 52.4268 82.0627C52.786 82.0627 53.0772 82.3532 53.0772 82.7115Z" fill="#0B9CE5"/>
<path d="M50.8205 90.7532C50.8205 90.2009 50.3728 89.7532 49.8205 89.7532V90.7532H50.8205ZM50.8205 92.0533V90.7532H49.8205V92.0533H50.8205ZM49.8205 93.0533C50.3728 93.0533 50.8205 92.6056 50.8205 92.0533H49.8205V93.0533ZM48.8205 92.0533C48.8205 92.6056 49.2682 93.0533 49.8205 93.0533V92.0533H48.8205ZM48.8205 90.7532V92.0533H49.8205V90.7532H48.8205ZM49.8205 89.7532C49.2682 89.7532 48.8205 90.2009 48.8205 90.7532H49.8205V89.7532ZM50.8205 94.6523C50.8205 94.1 50.3728 93.6523 49.8205 93.6523V94.6523H50.8205ZM50.8205 95.9524V94.6523H49.8205V95.9524H50.8205ZM49.8205 96.9524C50.3728 96.9524 50.8205 96.5047 50.8205 95.9524H49.8205V96.9524ZM48.8205 95.9524C48.8205 96.5047 49.2682 96.9524 49.8205 96.9524V95.9524H48.8205ZM48.8205 94.6523V95.9524H49.8205V94.6523H48.8205ZM49.8205 93.6523C49.2682 93.6523 48.8205 94.1 48.8205 94.6523H49.8205V93.6523ZM51.1235 92.353C50.5712 92.353 50.1235 92.8007 50.1235 93.353H51.1235V92.353ZM52.4269 92.353H51.1235V93.353H52.4269V92.353ZM53.4269 93.353C53.4269 92.8007 52.9792 92.353 52.4269 92.353V93.353H53.4269ZM52.4269 94.353C52.9792 94.353 53.4269 93.9053 53.4269 93.353H52.4269V94.353ZM51.1235 94.353H52.4269V93.353H51.1235V94.353ZM50.1235 93.353C50.1235 93.9053 50.5712 94.353 51.1235 94.353V93.353H50.1235ZM47.2145 92.353C46.6622 92.353 46.2145 92.8007 46.2145 93.353H47.2145V92.353ZM48.5179 92.353H47.2145V93.353H48.5179V92.353ZM49.5179 93.353C49.5179 92.8007 49.0702 92.353 48.5179 92.353V93.353H49.5179ZM48.5179 94.353C49.0702 94.353 49.5179 93.9053 49.5179 93.353H48.5179V94.353ZM47.2145 94.353H48.5179V93.353H47.2145V94.353ZM46.2145 93.353C46.2145 93.9053 46.6622 94.353 47.2145 94.353V93.353H46.2145Z" fill="#D62793"/>
<path d="M90.1995 113.845C90.1995 115.56 84.4906 116.952 77.448 116.952C70.4053 116.952 64.6958 115.56 64.6958 113.845C64.6958 112.13 70.4053 110.739 77.448 110.739C84.4906 110.739 90.1995 112.13 90.1995 113.845Z" fill="#D0D7DA"/>
<path d="M47.3784 69.4798L46.4128 70.3132C45.8737 70.7773 45.0524 70.7179 44.5871 70.1802L36.3199 60.6403C35.8546 60.1032 35.9142 59.2834 36.4533 58.8192L37.4189 57.9858C37.9573 57.5223 38.7792 57.5811 39.2452 58.1188L47.5117 67.6593C47.9771 68.1964 47.9175 69.0156 47.3784 69.4798Z" fill="white"/>
<path fill-rule="evenodd" clip-rule="evenodd" d="M47.3784 69.4798L46.4128 70.3132C45.8737 70.7773 45.0524 70.7179 44.5871 70.1802L36.3199 60.6403C35.8546 60.1032 35.9142 59.2834 36.4533 58.8192L37.4189 57.9858C37.9573 57.5223 38.7792 57.5811 39.2452 58.1188L47.5117 67.6593C47.9771 68.1964 47.9175 69.0156 47.3784 69.4798Z" stroke="#391572" stroke-linecap="round" stroke-linejoin="round"/>
<path d="M43.1053 66.9966L44.568 65.7365" stroke="#D62793" stroke-linecap="round" stroke-linejoin="round"/>
<path d="M46.8956 69.8965L47.7305 70.8603" stroke="#391572" stroke-linecap="round" stroke-linejoin="round"/>
<path d="M40.5046 61.0881L36.5885 56.5686L35.8572 57.1993L36.8506 58.3451" stroke="#391572" stroke-linecap="round" stroke-linejoin="round"/>
<path d="M49.6479 71.8243C52.2503 71.6919 54.3413 69.5087 56.9152 69.0955C57.0213 69.0788 57.1346 69.0665 57.231 69.1143C57.4679 69.2324 57.409 69.5816 57.3145 69.8289C56.8298 71.0948 55.4111 72.5408 55.8603 73.6253C56.3088 74.7105 58.3164 73.1825 59.4593 72.6925" stroke="#F5C400" stroke-linecap="round"/>
</svg>
