<svg width="153" height="117" viewBox="0 0 153 117" fill="none" xmlns="http://www.w3.org/2000/svg">
<path d="M113.09 114H39.9097L0.38712 78.4833C-0.12904 77.9602 -0.12904 77.1042 0.38712 76.5811L75.5615 0.391839C76.0783 -0.130613 76.9222 -0.130613 77.4384 0.391839L152.613 76.5811C153.129 77.1042 153.129 77.9602 152.613 78.4833L113.09 114Z" fill="#F3F4F6"/>
<path d="M26.399 114.395H20.29M59.8006 114.395H34.0011H59.8006Z" stroke="#ED0722" stroke-linecap="round" stroke-linejoin="round"/>
<path d="M83.0344 35.1951H82.0339M84.0345 33.1991V34.1973V33.1991ZM84.0345 36.1932V37.1914V36.1932ZM86.035 35.1951H85.0345H86.035Z" stroke="#F2C217" stroke-linecap="round"/>
<path d="M122.71 57.1858C122.71 57.5524 122.412 57.8485 122.045 57.8485C121.678 57.8485 121.381 57.5524 121.381 57.1858C121.381 56.8192 121.678 56.5225 122.045 56.5225C122.412 56.5225 122.71 56.8192 122.71 57.1858Z" fill="#D62793"/>
<path d="M92.0917 40.3195C92.0917 40.6855 91.7943 40.9822 91.427 40.9822C91.0596 40.9822 90.7622 40.6855 90.7622 40.3195C90.7622 39.953 91.0596 39.6562 91.427 39.6562C91.7943 39.6562 92.0917 39.953 92.0917 40.3195Z" fill="#0B9CE5"/>
<path d="M37.6921 79.8149H36.3613M39.0221 77.1602V78.4874V77.1602ZM39.0221 81.1426V82.4698V81.1426ZM41.6833 79.8149H40.3525H41.6833Z" stroke="#AA81F7" stroke-linecap="round"/>
<path d="M98.5381 113.531C98.5381 115.283 91.4631 116.704 82.7362 116.704C74.0086 116.704 66.9343 115.283 66.9343 113.531C66.9343 111.78 74.0086 110.359 82.7362 110.359C91.4631 110.359 98.5381 111.78 98.5381 113.531Z" fill="#D0D7DA"/>
<path d="M110.642 85.8053L111.367 94.6926L60.0308 98.8669C60.0308 98.8669 56.6165 99.7187 56.3232 96.1233C56.0298 92.5286 53.3364 59.5556 53.3364 59.5556L108.134 55.1011L109.606 73.1196" fill="white"/>
<path d="M110.642 85.8053L111.367 94.6926L60.0308 98.8669C60.0308 98.8669 56.6165 99.7187 56.3232 96.1233C56.0298 92.5286 53.3364 59.5556 53.3364 59.5556L108.134 55.1011L109.606 73.1196" stroke="#7350A0" stroke-linecap="round" stroke-linejoin="round"/>
<path d="M90.9934 89.686L64.9573 91.8031L62.8362 65.8238L88.8716 63.7073L90.9934 89.686Z" fill="white"/>
<path d="M90.9128 88.7002L90.9927 89.6859L90.0055 89.7657" stroke="#DDE5E8" stroke-linecap="round" stroke-linejoin="round"/>
<path d="M85.6304 90.1219L68.1329 91.5441" stroke="#DDE5E8" stroke-linecap="round" stroke-linejoin="round" stroke-dasharray="3.32 3.32"/>
<path d="M65.9452 91.7226L64.9573 91.8031L64.8767 90.8167" stroke="#DDE5E8" stroke-linecap="round" stroke-linejoin="round"/>
<path d="M64.5202 86.4525L63.0942 68.9918" stroke="#DDE5E8" stroke-linecap="round" stroke-linejoin="round" stroke-dasharray="3.32 3.32"/>
<path d="M62.9161 66.8077L62.8362 65.822L63.8234 65.7422" stroke="#DDE5E8" stroke-linecap="round" stroke-linejoin="round"/>
<path d="M68.1984 65.3876L85.6958 63.9655" stroke="#DDE5E8" stroke-linecap="round" stroke-linejoin="round" stroke-dasharray="3.32 3.32"/>
<path d="M87.8838 63.7877L88.8717 63.7066L88.9523 64.693" stroke="#DDE5E8" stroke-linecap="round" stroke-linejoin="round"/>
<path d="M89.3086 69.0586L90.7346 86.5193" stroke="#DDE5E8" stroke-linecap="round" stroke-linejoin="round" stroke-dasharray="3.32 3.32"/>
<path d="M46.0442 67.987L45.0656 67.832" stroke="#0B9CE5" stroke-linecap="round" stroke-linejoin="round"/>
<path d="M41.7752 67.3079L40.7959 67.1523L40.9518 66.1752" stroke="#0B9CE5" stroke-linecap="round" stroke-linejoin="round"/>
<path d="M41.6421 61.8508L44.4042 44.551" stroke="#0B9CE5" stroke-linecap="round" stroke-linejoin="round" stroke-dasharray="3.32 3.32"/>
<path d="M44.7487 42.3866L44.9046 41.4102L45.8839 41.5658" stroke="#0B9CE5" stroke-linecap="round" stroke-linejoin="round"/>
<path d="M50.218 42.2578L67.5556 45.0132" stroke="#0B9CE5" stroke-linecap="round" stroke-linejoin="round" stroke-dasharray="3.32 3.32"/>
<path d="M69.7229 45.3558L70.7015 45.5114L70.5462 46.4879" stroke="#0B9CE5" stroke-linecap="round" stroke-linejoin="round"/>
<path d="M70.1776 48.793L69.8088 51.0993" stroke="#0B9CE5" stroke-linecap="round" stroke-linejoin="round" stroke-dasharray="1.77 1.77"/>
<path d="M69.6251 52.2537L69.4698 53.2301" stroke="#0B9CE5" stroke-linecap="round" stroke-linejoin="round"/>
<path d="M104.467 79.5171L95.5426 80.2431C95.1461 80.2747 94.7939 79.9773 94.7616 79.5811L94.7444 79.3648C94.712 78.9686 95.01 78.6178 95.4072 78.5855L104.332 77.8595C104.729 77.8272 105.08 78.1259 105.113 78.5215L105.13 78.7378C105.162 79.134 104.864 79.4848 104.467 79.5171ZM104.229 76.6055L95.3045 77.3308C94.9081 77.3631 94.5565 77.065 94.5242 76.6694L94.5063 76.4532C94.4739 76.0562 94.7719 75.7061 95.1697 75.6738L104.094 74.9479C104.491 74.9156 104.842 75.2136 104.875 75.6092L104.892 75.8261C104.925 76.2224 104.627 76.5725 104.229 76.6055ZM101.103 83.1223L95.813 83.5522C95.4159 83.5845 95.0643 83.2871 95.032 82.8908L95.0148 82.6739C94.9817 82.2783 95.2804 81.9275 95.6775 81.8959L100.968 81.4653C101.364 81.4324 101.716 81.7311 101.748 82.1267L101.765 82.3429C101.798 82.7399 101.5 83.09 101.103 83.1223Z" fill="#DDE5E8"/>
<path d="M103.076 62.5508L93.7667 63.3077L94.5253 72.5972L103.834 71.8402L103.076 62.5508Z" fill="white"/>
<path fill-rule="evenodd" clip-rule="evenodd" d="M103.076 62.5508L93.7667 63.3077L94.5253 72.5972L103.834 71.8402L103.076 62.5508Z" stroke="#DDE5E8"/>
<path d="M81.5592 72.3822L85.2642 74.4684" stroke="#0B9CE5" stroke-width="2" stroke-linecap="round"/>
<path d="M74.7391 84.4319L77.1602 81.0198" stroke="#D62793" stroke-width="2" stroke-linecap="round"/>
<path d="M71.7786 75.1L70.5277 71.4724" stroke="#575700" stroke-width="2" stroke-linecap="round"/>
<path d="M54.6382 77.5497L52.8627 55.8152C52.8627 55.8152 55.1913 51.8209 57.6983 51.6172L60.9909 91.9372C57.3626 92.2326 56.156 96.1352 56.156 96.1352L54.6382 77.5497Z" fill="white"/>
<path fill-rule="evenodd" clip-rule="evenodd" d="M54.6382 77.5497L52.8627 55.8152C52.8627 55.8152 55.1913 51.8209 57.6983 51.6172L60.9909 91.9372C57.3626 92.2326 56.156 96.1352 56.156 96.1352L54.6382 77.5497Z" stroke="#7350A0" stroke-linecap="round" stroke-linejoin="round"/>
<path d="M121.093 69.2143C121.616 68.7112 122.045 68.8932 122.045 69.6178V86.2444C122.045 86.9703 121.451 87.563 120.723 87.563H103.322C102.596 87.563 102.429 87.1516 102.953 86.6485L121.093 69.2143Z" fill="#F5C400"/>
<path fill-rule="evenodd" clip-rule="evenodd" d="M121.093 69.2143C121.616 68.7112 122.045 68.8932 122.045 69.6178V86.2444C122.045 86.9703 121.451 87.563 120.723 87.563H103.322C102.596 87.563 102.429 87.1516 102.953 86.6485L121.093 69.2143Z" stroke="#391572" stroke-linecap="round" stroke-linejoin="round"/>
<path d="M116.69 83.3254C117.417 83.3254 118.011 82.7326 118.011 82.0067V78.8551C118.011 78.1291 117.566 77.9293 117.023 78.4113L112.46 82.4504C111.916 82.9311 112.066 83.3254 112.793 83.3254H116.69Z" fill="#F3F4F6"/>
<path fill-rule="evenodd" clip-rule="evenodd" d="M116.69 83.3254C117.417 83.3254 118.011 82.7326 118.011 82.0067V78.8551C118.011 78.1291 117.566 77.9293 117.023 78.4113L112.46 82.4504C111.916 82.9311 112.066 83.3254 112.793 83.3254H116.69ZM118.968 87.5615V85.7793V87.5615ZM116.553 87.5615V86.6701V87.5615ZM113.886 87.5615V85.7793V87.5615ZM111.471 87.5615V86.6701V87.5615ZM109.38 87.5615V85.7793V87.5615ZM106.964 87.5615V86.6701V87.5615Z" stroke="#391572" stroke-linecap="round" stroke-linejoin="round"/>
<path d="M105.621 114.309H122.152" stroke="#EB1D26" stroke-linecap="round" stroke-linejoin="round"/>
</svg>
